<?xml version="1.0" standalone="no"?><!DOCTYPE svg PUBLIC "-//W3C//DTD SVG 1.1//EN" "http://www.w3.org/Graphics/SVG/1.1/DTD/svg11.dtd"><svg class="icon" width="200px" height="200.00px" viewBox="0 0 1024 1024" version="1.1" xmlns="http://www.w3.org/2000/svg"><path fill="#2286D4" d="M514.143083 29.974265c-264.233214 0-482.371627 217.198274-482.371627 480.280924v25.085723c0 8.361908 12.54241 16.723816 21.009079 16.723816 12.54241 0 21.009079-8.361908 21.009079-20.904318v-20.904318c0-242.178333 197.129334-438.472288 440.353469-438.472288s440.353469 196.293053 440.353469 438.472288-197.130237 438.471385-440.353469 438.471385c-159.396439 0-306.146611-87.694819-385.897662-225.45542v-4.180502l218.138412-179.570141 113.19778 112.77964c8.361908 8.361908 21.009079 8.361908 29.370986 0L765.728223 414.094604v137.760602c0 12.54241 8.361908 20.904318 21.009079 20.904318 12.647171 0 21.009079-8.361908 21.009079-20.904318V364.028822c0-12.54241-8.361908-20.904318-21.009079-20.904318H597.969876c-12.54241 0-21.009079 8.361908-21.009078 20.904318 0 12.54241 8.361908 20.904318 21.009078 20.904318h134.206859L472.124926 606.207155 358.927146 493.427516c-8.361908-8.361908-21.009079-8.361908-29.370986 0L77.865355 702.263881c-8.361908 8.361908-8.361908 20.904318-4.180502 29.266226 4.180502 4.180502 8.361908 4.180502 12.54241 8.361908v4.180502c83.931554 154.484417 247.509399 246.359738 423.629654 246.359738 264.233214 0 482.371627-217.198274 482.371627-480.176163 0-263.188315-213.853149-480.281827-478.085461-480.281827m0 0"  /><path fill="#2286D4" d="M509.85782 999.011813c-181.892039 0-347.107225-96.118138-431.168827-250.843686l-1.040384-1.915499v-2.084381a54.478384 54.478384 0 0 0-1.528968-0.783901c-2.417629-1.209266-5.425893-2.712946-8.500084-5.787137l-0.985294-0.984392-0.622244-1.24539c-5.359966-10.719028-5.835002-27.548508 5.788944-39.170648l0.587022-0.536448 251.409034-208.60246c11.646524-11.332241 29.661788-11.232899 41.197229 0.302543l107.588555 107.192089 236.271985-201.039806h-110.884009c-17.421017 0-29.588636-12.12427-29.588636-29.483875 0-17.359606 12.167619-29.482972 29.588636-29.482972h188.768329c17.421017 0 29.588636 12.12427 29.588637 29.482972V551.855206c0 17.360509-12.167619 29.483875-29.588637 29.483875-17.421921 0-29.589539-12.12427-29.589539-29.483875V432.79804L494.773151 658.611996c-11.646524 11.392749-29.703331 11.310566-41.25864-0.243841L345.834741 551.086658 137.691062 722.428551c79.415094 134.395609 223.289759 217.719369 376.452021 217.719369 238.080917 0 431.773912-192.848586 431.773912-429.892731S752.224 80.363361 514.143083 80.363361 82.368268 273.211947 82.368268 510.256092v20.904318c0 17.359606-12.167619 29.482972-29.588636 29.482972-13.041831 0-29.588636-11.912941-29.588636-25.303373v-25.08482c0-65.438543 13.089696-129.165691 38.906036-189.411344 24.898779-58.103473 60.467819-110.409875 105.719114-155.465196 45.248587-45.052612 97.777154-80.46451 156.12808-105.253109C384.440041 34.425701 448.432703 21.394707 514.143083 21.394707c65.690512 0 129.463718 13.029187 189.548617 38.724511 57.903886 24.762409 109.942966 60.177017 154.673168 105.257625 44.644405 44.993909 79.712218 97.302117 104.228078 155.469711 25.358463 60.165276 38.216059 123.892424 38.216058 189.408635 0 65.414159-13.089696 129.121438-38.906939 189.351739-24.898779 58.09083-60.467819 110.386394-105.718211 155.433587-45.24949 45.047193-97.77896 80.455479-156.12808 105.241369-60.497621 25.698936-124.490284 38.729929-190.197954 38.729929zM94.806821 741.880666c81.375749 148.075939 240.203228 239.972032 415.050096 239.972032 261.249335 0 473.792069-211.55744 473.792069-471.596606 0-260.096965-210.620011-471.701366-469.506806-471.701366-261.249335 0-473.792069 211.604402-473.792069 471.701366v25.08482c0.123726 2.421241 7.52382 8.144258 12.429521 8.144258 7.783013 0 12.429521-4.607674 12.429521-12.323857v-20.904318c0-60.356736 11.872301-118.910862 35.28456-174.034068 22.612101-53.237509 54.981417-101.046417 96.208449-142.098245 41.225226-41.050022 89.235527-73.279356 142.694299-95.791212 55.349887-23.309303 114.142434-35.127418 174.745719-35.127418 60.602382 0 119.395833 11.819018 174.744816 35.127418 53.459675 22.512759 101.46817 54.74119 142.694299 95.791212 41.227032 41.051828 73.596348 88.860736 96.208449 142.098245 23.413161 55.123206 35.284559 113.677332 35.28456 174.034068s-11.872301 118.910862-35.28456 174.034068c-22.612101 53.237509-54.981417 101.046417-96.208449 142.098245-41.225226 41.050022-89.234624 73.279356-142.694299 95.791212-55.348984 23.309303-114.142434 35.127418-174.744816 35.127418-160.575 0-311.288024-88.029873-393.323044-229.736168l-1.154176-1.99407v-10.535697L346.931118 527.95888l118.704953 118.265137c5.005043 5.005043 12.253414 5.005043 17.248523 0.011741l0.470521-0.4353L774.307781 395.391169v156.464037c0 7.832685 4.53091 12.32476 12.430424 12.32476 7.898612 0 12.429521-4.492979 12.429521-12.32476V364.028822c0-7.832685-4.53091-12.323857-12.429521-12.323857h-188.768329c-7.783013 0-12.429521 4.607674-12.429521 12.323857 0 7.832685 4.53091 12.32476 12.429521 12.32476h157.528805L471.666145 617.862709l-118.795263-118.358157c-5.005946-5.005946-12.254318-5.005946-17.248524-0.010838l-0.587925 0.536449L83.686811 708.582048c-4.707016 4.941825-5.041167 12.325663-2.935112 17.740719 0.788416 0.577088 1.705977 1.046706 3.040776 1.714105 2.417629 1.208363 5.426796 2.712946 8.50189 5.788041l2.512456 2.513359v5.542394z"  /></svg>