<?xml version="1.0" encoding="UTF-8"?>
<svg width="15px" height="15px" viewBox="0 0 15 15" version="1.1" xmlns="http://www.w3.org/2000/svg" xmlns:xlink="http://www.w3.org/1999/xlink">
    <!-- Generator: Sketch 63.1 (92452) - https://sketch.com -->
    <title>职务管理</title>
    <desc>Created with Sketch.</desc>
    <g id="127001-人物画像" stroke="none" stroke-width="1" fill="none" fill-rule="evenodd">
        <g id="人物画像备份-7" transform="translate(-496.000000, -253.000000)" fill-rule="nonzero">
            <g id="编组-33" transform="translate(120.000000, 190.000000)">
                <g id="编组-25" transform="translate(168.000000, 24.000000)">
                    <g id="编组-26" transform="translate(0.000000, 34.000000)">
                        <g id="编组-11" transform="translate(206.000000, 0.000000)">
                            <g id="编组-7" transform="translate(0.000000, 3.000000)">
                                <g id="职务管理">
                                    <rect id="矩形" fill="#000000" opacity="0" x="0" y="0" width="18" height="18"></rect>
                                    <g id="编组-24" transform="translate(2.000000, 2.000000)" fill="#5D6573">
                                        <path d="M12.7257108,14.0887811 L10.7952068,14.0887811 C12.1041956,13.1091542 13.4739721,11.9212562 14.0209003,11.1673905 C14.4564974,10.5666007 14.9474207,9.72247155 14.8760977,8.51702476 C14.8200605,7.56751495 14.3765458,6.67592495 13.6273473,6.0064927 C12.8663854,5.32657219 11.8725816,4.95212959 10.8289454,4.95212959 C9.67190988,4.95212959 8.67564999,5.55628854 8.0026866,6.11360186 L8.0026866,5.28224612 C8.56616094,4.92675855 9.8961556,3.95911401 9.8961556,2.74610864 C9.8961556,1.23987144 7.84517489,0.111797533 7.75788744,0.0645124654 C7.59914643,-0.0215041551 7.40111211,-0.0215041551 7.2423711,0.0645124654 C7.15508363,0.111797533 5.10410294,1.23990072 5.10410294,2.74610864 C5.10410294,3.95911401 6.43409759,4.92675855 6.99757194,5.28224612 L6.99757194,6.08878745 C6.33675963,5.53739208 5.35643189,4.95212958 4.17102224,4.95212959 C3.127483,4.95212959 2.1336792,5.3265722 1.37281432,6.0065513 C0.623615767,6.67598354 0.180198041,7.56757355 0.124128526,8.51717124 C0.0686407216,9.45991348 0.332539053,10.2774411 0.979810674,11.1678886 C1.52286086,11.9148695 2.90178302,13.1046132 4.22198572,14.0888104 L0.502557329,14.0888104 C0.224989005,14.0888104 0,14.2927749 0,14.5444052 C0,14.7960356 0.224989005,15 0.502557329,15 L12.7257108,15 C13.0032144,15 13.2282681,14.7960356 13.2282681,14.5444052 C13.2283004,14.2928042 13.0032144,14.0887811 12.7257108,14.0887811 Z M6.10912064,2.74610864 C6.10912064,2.0518327 6.96086014,1.35187316 7.50067865,1.00136605 C8.04078801,1.35058411 8.89094399,2.04822918 8.89094399,2.74610864 C8.89094399,3.44038458 8.0392045,4.14040271 7.49938599,4.49085122 C6.95930894,4.14160389 6.10912064,3.4439881 6.10912064,2.74610864 L6.10912064,2.74610864 Z M5.84806616,14.0887811 C4.21965891,12.9885392 2.36219073,11.4136888 1.81901128,10.666415 C1.29063289,9.93947307 1.08387051,9.31117357 1.12775662,8.56574536 C1.21569042,7.0755921 2.58094262,5.86326057 4.17102224,5.86326057 C5.82146951,5.86326057 7.06973517,7.52881385 7.08166005,7.54492711 C7.17346087,7.67027148 7.32758693,7.74646433 7.49353665,7.74853998 C7.6582873,7.74900874 7.81586362,7.67822762 7.91135954,7.55518099 C8.27666776,7.08455694 9.51278233,5.86326057 10.8289454,5.86326057 C12.419122,5.86326057 13.7844712,7.07559212 13.8724696,8.56574536 C13.9164526,9.30944504 13.7096579,9.93786174 13.1810534,10.6667958 C12.6329294,11.42239 10.785027,12.9968302 9.17219642,14.0887811 L5.84806616,14.0887811 Z M14.8528943,14.2222281 C14.7363602,14.1165252 14.5629163,14.0677753 14.3995876,14.0978631 C14.3672015,14.103593 14.335541,14.11229 14.3050935,14.1238201 C14.2748774,14.1352166 14.2457277,14.1493377 14.218614,14.1657439 C14.1910911,14.1821619 14.1654924,14.2010884 14.1422173,14.2222281 C14.0483277,14.3078618 13.9954303,14.4235793 13.9949823,14.5443173 C13.9949823,14.5739364 13.9984402,14.6039949 14.0049682,14.633614 C14.0110114,14.6623249 14.0210619,14.6910065 14.0336008,14.7188092 C14.046172,14.7461431 14.0612316,14.7725688 14.079846,14.7971782 C14.0979434,14.8222269 14.1190462,14.8454593 14.1421526,14.8664358 C14.1655379,14.8876039 14.1911221,14.9066767 14.2185494,14.9233888 C14.2456954,14.9397951 14.2748451,14.9534474 14.3050289,14.9648438 C14.3356328,14.9762403 14.3673032,14.9853516 14.399523,14.9912696 C14.4316781,14.9971875 14.4648674,14.9999121 14.4975073,14.9999121 C14.6296827,14.9999121 14.7593374,14.9511622 14.852765,14.8664358 C14.8761151,14.8452358 14.8971539,14.8220424 14.9155887,14.7971782 C14.9334037,14.7723569 14.9487086,14.7461273 14.9613169,14.7188092 C14.9738881,14.6910065 14.9839386,14.6623249 14.9899495,14.633614 C14.9964775,14.6039949 15,14.5739364 15,14.5443173 C14.9996842,14.4235783 14.9468195,14.3078306 14.8528943,14.2222281 L14.8528943,14.2222281 Z" id="Shape"></path>
                                        <rect id="矩形" x="0" y="14" width="15" height="1" rx="0.5"></rect>
                                    </g>
                                </g>
                            </g>
                        </g>
                    </g>
                </g>
            </g>
        </g>
    </g>
</svg>