
<?xml version="1.0" encoding="UTF-8"?>
<svg width="16px" height="16px" viewBox="0 0 16 16" version="1.1" xmlns="http://www.w3.org/2000/svg" xmlns:xlink="http://www.w3.org/1999/xlink">
    <!-- Generator: Sketch 63.1 (92452) - https://sketch.com -->
    <title>部门</title>
    <desc>Created with Sketch.</desc>
    <g id="127001-人物画像" stroke="none" stroke-width="1" fill="none" fill-rule="evenodd">
        <g id="法官画像" transform="translate(-289.000000, -340.000000)" fill="#5D6573" fill-rule="nonzero">
            <g id="编组-33" transform="translate(120.000000, 246.000000)">
                <g id="编组-25" transform="translate(168.000000, 24.000000)">
                    <g id="编组-26" transform="translate(0.000000, 34.000000)">
                        <g id="编组-11备份-3" transform="translate(0.000000, 32.000000)">
                            <g id="编组-7" transform="translate(1.000000, 4.000000)">
                                <g id="部门">
                                    <path d="M0.299065421,5.46724696 L6.39964397,9.07755831 C6.89986649,9.37931034 7.44993324,9.52929361 8,9.52929361 C8.55006676,9.52929361 9.10013351,9.37931034 9.60035603,9.07755831 L15.7009346,5.46724696 C16.0516244,5.26726928 16.1014686,4.71554514 15.7009346,4.46378752 L9.44904317,0.451735297 C8.99866489,0.149983261 8.49844237,0 7.99821985,0 C7.49799733,0 6.99777481,0.149983261 6.54739653,0.451735297 L0.299065421,4.46378752 C-0.101468625,4.71554514 -0.0498442368,5.26726928 0.299065421,5.46724696 Z M7.09924344,1.25343154 C7.34846462,1.10344828 7.64931019,1.00345944 8,1.00345944 C8.35068981,1.00345944 8.64975523,1.10344828 8.90075656,1.25343154 L14.5509568,4.91373731 L9.05028927,8.17408771 C8.69959947,8.37406539 8.35068981,8.47583975 7.95015576,8.47583975 C7.54962172,8.47583975 7.20071206,8.37585091 6.85002225,8.17408771 L1.3493547,4.91552282 L7.09924344,1.25343154 Z M0.249221184,8.52583417 L6.39964397,12.3879031 C6.89986649,12.6896552 7.44993324,12.8396384 8,12.8396384 C8.55006676,12.8396384 9.10013351,12.6896552 9.60035603,12.3879031 L15.7507788,8.52583417 C15.9003115,8.42584533 16,8.27586207 16,8.12409329 C16,7.72235242 15.5496217,7.47238031 15.2505563,7.72235242 L9.10013351,11.5862069 C8.7494437,11.7861846 8.40053405,11.8879589 8,11.8879589 C7.59946595,11.8879589 7.2505563,11.7879701 6.89986649,11.5862069 L0.749443703,7.67414351 C0.448598131,7.42417141 0,7.67414351 0,8.07588439 C0,8.27586207 0.0996884735,8.42584533 0.249221184,8.52583417 Z M15.2505563,10.882714 L9.10013351,14.7447829 C8.7494437,14.9447606 8.40053405,15.046535 8,15.046535 C7.59946595,15.046535 7.2505563,14.9465461 6.89986649,14.7447829 L0.749443703,10.882714 C0.448598131,10.6327419 0,10.882714 0,11.2844549 C0,11.4344381 0.0996884735,11.6362013 0.249221184,11.6861957 L6.39964397,15.5482647 C6.89986649,15.8500167 7.44993324,16 8,16 C8.55006676,16 9.10013351,15.8500167 9.60035603,15.5482647 L15.7507788,11.6861957 C15.9003115,11.5862069 16,11.4362236 16,11.2844549 C16,10.882714 15.5496217,10.6327419 15.2505563,10.882714 L15.2505563,10.882714 Z" id="形状"></path>
                                </g>
                            </g>
                        </g>
                    </g>
                </g>
            </g>
        </g>
    </g>
</svg>