<?xml version="1.0" encoding="UTF-8"?>
<svg width="10px" height="18px" viewBox="0 0 10 18" version="1.1" xmlns="http://www.w3.org/2000/svg" xmlns:xlink="http://www.w3.org/1999/xlink">
    <!-- Generator: Sketch 63.1 (92452) - https://sketch.com -->
    <title>等级</title>
    <desc>Created with Sketch.</desc>
    <g id="127001-人物画像" stroke="none" stroke-width="1" fill="none" fill-rule="evenodd">
        <g id="人物画像备份-7" transform="translate(-704.000000, -283.000000)" fill="#5D6573" fill-rule="nonzero">
            <g id="编组-33" transform="translate(120.000000, 190.000000)">
                <g id="编组-25" transform="translate(168.000000, 24.000000)">
                    <g id="编组-26" transform="translate(0.000000, 34.000000)">
                        <g id="编组-13备份" transform="translate(412.000000, 32.000000)">
                            <g id="编组-9" transform="translate(0.000000, 3.000000)">
                                <g id="等级">
                                    <path d="M8.98317861,9 C9.31940994,9 9.65564128,9.1125 9.76771839,9.5625 L9.76771839,9.5625 L10.4401811,10.9125 C10.5522582,11.25 10.8884895,11.475 11.2247209,11.475 L11.2247209,11.475 L12.7938004,11.5875 C13.4662631,11.7 13.8024944,12.6 13.2421089,13.1625 L13.2421089,13.1625 L12.2334149,14.2875 C11.8971835,14.625 11.7851064,14.9625 11.8971835,15.3 L11.8971835,15.3 L12.1213378,16.875 C12.2334149,17.55 11.7851064,18 11.2247209,18 C11.1126437,18 10.8884895,18 10.7764124,17.8875 L10.7764124,17.8875 L9.43148706,17.2125 C9.31940994,17.1 9.09525572,17.1 8.98317861,17.1 L8.90427632,17.1009 C8.78592289,17.1045 8.62453185,17.1225 8.53487016,17.2125 L8.53487016,17.2125 L7.18994481,17.8875 C7.07786769,18 6.85371347,18 6.74163636,18 C6.1812508,18 5.73294235,17.4375 5.84501946,16.875 L5.84501946,16.875 L6.1812508,15.4125 C6.1812508,14.9625 6.06917368,14.625 5.84501946,14.4 L5.84501946,14.4 L4.83632545,13.275 C4.27593988,12.7125 4.50009411,11.8125 5.2846339,11.7 L5.2846339,11.7 L6.74163636,11.475 C7.07786769,11.475 7.41409903,11.25 7.52617614,10.9125 L7.52617614,10.9125 L8.19863882,9.5625 C8.31071593,9.1125 8.64694727,9 8.98317861,9 Z M9.05,10.2 C8.95147059,10.2 8.95147059,10.2 8.85294118,10.3914286 L8.85294118,10.3914286 L8.26176471,11.54 C8.06470588,11.9228571 7.67058824,12.21 7.17794118,12.3057143 L7.17794118,12.3057143 L5.89705882,12.4971429 C5.79852941,12.4971429 5.7,12.5928571 5.7,12.5928571 C5.7,12.6885714 5.7,12.7842857 5.79852941,12.88 L5.79852941,12.88 L6.68529412,13.8371429 C6.98088235,14.22 7.17794118,14.6985714 7.07941176,15.1771429 L7.07941176,15.1771429 L6.88235294,16.6128571 C6.88235294,16.7085714 6.98088235,16.8042857 6.98088235,16.8042857 C6.98088235,16.9 6.98088235,16.9 7.07941176,16.9 L7.17794118,16.9 L8.36029412,16.3257143 C8.55735294,16.23 8.85294118,16.1342857 9.05,16.1342857 C9.24705882,16.1342857 9.54264706,16.23 9.73970588,16.3257143 L9.73970588,16.3257143 L10.9220588,16.9 L11.0205882,16.9 L11.1191176,16.8042857 C11.2176471,16.8042857 11.2176471,16.7085714 11.2176471,16.6128571 L11.2176471,16.6128571 L11.0205882,15.2728571 C10.9220588,14.7942857 11.0205882,14.3157143 11.4147059,13.9328571 L11.4147059,13.9328571 L12.3014706,12.9757143 C12.4,12.88 12.4,12.6885714 12.4,12.6885714 C12.3014706,12.6885714 12.3014706,12.5928571 12.2029412,12.5928571 L12.2029412,12.5928571 L10.9220588,12.4014286 C10.4294118,12.3057143 10.0352941,12.0185714 9.83823529,11.54 L9.83823529,11.54 L9.24705882,10.2957143 C9.14852941,10.2 9.14852941,10.2 9.05,10.2 Z" id="形状结合"></path>
                                    <path d="M12.6363636,0 L13,0.335599357 L13,9.17304908 C13,9.50864844 12.7575758,9.8442478 12.3939394,9.95611425 L12.1515152,9.95611425 C11.9090909,9.95611425 11.6666667,9.8442478 11.5454545,9.73238134 L9.72727273,7.94251811 C9.36363636,7.60691875 8.75757576,7.60691875 8.39393939,7.94251811 L6.57575758,9.73238134 C6.33333333,9.95611425 5.96969697,10.0679807 5.60606061,9.95611425 C5.24242424,9.8442478 5,9.50864844 5,9.17304908 L5,0.335599357 L5.36363636,0 L12.6363636,0 Z M12,1 L6,1 L6,8.45133758 C6,8.54938149 6.09323188,8.5684363 6.09323188,8.5684363 C6.09323188,8.5684363 6.16883738,8.56558118 6.22104081,8.52071921 C6.78329517,8.02356215 7.33924453,7.51021536 7.88888889,6.98067885 C8.44444444,6.39241535 9.55555556,6.39241535 10.1111111,6.98067885 L11.7777778,8.54938149 C11.8852234,8.6258751 11.9644775,8.59295657 11.9644775,8.59295657 C11.9644775,8.59295657 12,8.54938149 12,8.45133758 L12,1 Z" id="形状结合"></path>
                                </g>
                            </g>
                        </g>
                    </g>
                </g>
            </g>
        </g>
    </g>
</svg>