<?xml version="1.0" encoding="UTF-8"?>
<svg width="14px" height="14px" viewBox="0 0 14 14" version="1.1" xmlns="http://www.w3.org/2000/svg" xmlns:xlink="http://www.w3.org/1999/xlink">
    <!-- Generator: Sketch 50 (54983) - http://www.bohemiancoding.com/sketch -->
    <title></title>
    <desc>Created with Sketch.</desc>
    <defs></defs>
    <g id="7-12舆情线索需求调整" stroke="none" stroke-width="1" fill="none" fill-rule="evenodd">
        <g id="舆情线索" transform="translate(-1265.000000, -333.000000)">
            <g id="信息卡" transform="translate(144.000000, 316.000000)">
                <g id="Group-8">
                    <g id="操作" transform="translate(1120.000000, 16.000000)">
                        <g id="标记">
                            <g id="Group-154">
                                <rect id="Rectangle-45-Copy-19" x="0" y="0" width="16" height="16"></rect>
                                <g id="flag" transform="translate(1.000000, 1.000000)" fill="#1B95E7" fill-rule="nonzero">
                                    <path d="M12.875,3 L10.125,3 L10.125,2.125 C10.125,1.503125 9.621875,1 9,1 L3.36875,1 C3.30625,0.4375 2.8296875,0 2.25,0 L1.125,0 C0.503125,0 2.84217094e-14,0.503125 2.84217094e-14,1.125 L2.84217094e-14,12.875 C2.84217094e-14,13.496875 0.503125,14 1.125,14 L2.25,14 C2.871875,14 3.375,13.496875 3.375,12.875 L3.375,8.875 L9,8.875 L9,9.75 C9,10.371875 9.503125,10.875 10.125,10.875 L12.875,10.875 C13.496875,10.875 14,10.371875 14,9.75 L14,4.125 C14,3.503125 13.496875,3 12.875,3 Z" id="Shape"></path>
                                </g>
                            </g>
                        </g>
                    </g>
                </g>
            </g>
        </g>
    </g>
</svg>
