<?xml version="1.0" standalone="no"?><!DOCTYPE svg PUBLIC "-//W3C//DTD SVG 1.1//EN" "http://www.w3.org/Graphics/SVG/1.1/DTD/svg11.dtd"><svg class="icon" width="200px" height="200.00px" viewBox="0 0 1024 1024" version="1.1" xmlns="http://www.w3.org/2000/svg"><path fill="#2CB75D" d="M153.6 51.2h716.8a51.2 51.2 0 0 1 51.2 51.2v819.2a51.2 51.2 0 0 1-51.2 51.2H153.6a51.2 51.2 0 0 1-51.2-51.2V102.4a51.2 51.2 0 0 1 51.2-51.2z m0 51.2v819.2h716.8V102.4H153.6z m102.4 153.6h512v51.2H256V256z m0 204.8h358.4v51.2H256V460.8z m302.592 332.8l223.3856-230.4 37.2224 38.4L558.592 870.4 409.6 716.8l37.2224-38.4 111.7184 115.2z" /></svg>