<?xml version="1.0" standalone="no"?><!DOCTYPE svg PUBLIC "-//W3C//DTD SVG 1.1//EN" "http://www.w3.org/Graphics/SVG/1.1/DTD/svg11.dtd"><svg class="icon" width="200px" height="200.00px" viewBox="0 0 1024 1024" version="1.1" xmlns="http://www.w3.org/2000/svg"><path fill="#25B1CC" d="M442.77523717 479.83287245V173.59079009c0-13.91383213 11.29637841-25.34797308 25.34797307-25.21021246h15.56696147c13.91383213 0 25.21021245 11.29637841 25.21021244 25.21021246l1.10208495 239.01485042c0 13.91383213 11.29637841 25.21021245 25.21021247 25.21021244h149.88366281c14.05159273 0 25.48573367 11.57189968 25.21021244 25.62349239l-0.27552124 16.66904835c-0.27552124 13.7760715-11.43413907 24.79693058-25.21021243 24.79692867H468.12321024c-14.05159273 0.27552124-25.34797308-11.15861779-25.34797307-25.07244991z m0 25.34797117"  /><path fill="#25B1CC" d="M512.06888031 880.30328535c-118.47422055 0-229.7848813-46.14984188-313.4056384-129.90835771-83.75851774-83.75851774-129.90835962-195.06918035-129.90835962-313.40564028 0-118.47422055 46.14984188-229.7848813 129.90835962-313.40563843 83.75851774-83.75851774 195.06918035-129.90835962 313.4056384-129.90835962 19.01097885 0 34.44017969 15.42920085 34.44017969 34.44017968s-15.42920085 34.44017969-34.44017969 34.4401797c-206.50331942 0-374.43363867 167.93031924-374.43363866 374.43363867S305.5655609 811.42292597 512.06888031 811.42292597c102.63173599 0 198.37543713-40.77717391 269.59773087-114.61691939 13.225029-13.63831088 34.99122218-14.05159273 48.62953304-0.96432435 13.63831088 13.225029 14.05159273 34.99122218 0.96432625 48.62953303-40.91493454 42.43030133-88.9934251 75.9061567-142.8578674 99.1877186-55.79309098 24.38364685-115.16796189 36.64435151-176.33372276 36.64435149zM899.58978735 602.16439226c-3.58177799 0-7.30131855-0.5510425-11.0208572-1.79088997-18.04665453-6.06147106-27.68990553-25.6234943-21.62843444-43.67014881 12.94950779-38.43524146 19.56202323-78.66137099 19.56202323-119.71406612 0-144.09771298-84.3095602-277.17456876-214.63120359-338.7536115-17.22009081-8.12788227-24.52140745-28.65422983-16.39352516-45.87432065 8.12788227-17.22009081 28.65422983-24.52140745 45.87432065-16.39352518 74.94183234 35.40450593 138.31176314 90.92207567 183.35951816 160.62900067 46.2876025 71.63557557 70.80900997 154.70528831 70.80900995 240.39245666 0 48.49177434-7.71460042 96.15698301-23.14380122 141.61802179-4.95938611 14.46487651-18.45993637 23.5570831-32.78705038 23.55708311z"  /></svg>