<?xml version="1.0" encoding="UTF-8"?>
<svg width="21px" height="20px" viewBox="0 0 21 20" version="1.1" xmlns="http://www.w3.org/2000/svg" xmlns:xlink="http://www.w3.org/1999/xlink">
    <!-- Generator: Sketch 63.1 (92452) - https://sketch.com -->
    <title>视频</title>
    <desc>Created with Sketch.</desc>
    <g id="131005-帮助中心" stroke="none" stroke-width="1" fill="none" fill-rule="evenodd">
        <g id="帮助中心备份" transform="translate(-169.000000, -275.000000)" fill-rule="nonzero">
            <g id="编组-33" transform="translate(120.000000, 186.000000)">
                <g id="编组-11备份-2" transform="translate(24.000000, 72.000000)">
                    <g id="编组-6" transform="translate(24.000000, 16.000000)">
                        <g id="视频">
                            <rect id="矩形" fill="#000000" opacity="0" x="0" y="0" width="22" height="22"></rect>
                            <path d="M9.79375,4.49998633 L6.81876367,1 L3.45000684,1 L6.42501367,4.49998633 L9.79375,4.49998633 Z M18.5437568,4.49998633 L15.56875,1 L12.2000137,1 L15.175,4.49998633 L18.5437568,4.49998633 Z M14.1687637,4.49998633 L11.1937568,1 L7.825,1 L10.8000068,4.49998633 L14.1687637,4.49998633 Z M19.8125137,1 L16.5750068,1 L19.5500137,4.49998633 L21.1250137,4.49998633 L21.1250137,2.3125 C21.1250137,1.56874316 20.55625,1 19.8125137,1 Z M2.44375,1 L2.3125,1 C1.56876367,1 1,1.56874316 1,2.3125 L1,4.49998633 L5.41875684,4.49998633 L2.44375,1 L2.44375,1 Z M1,18.9374863 C1,19.6812432 1.56876367,20.2499863 2.3125,20.2499863 L19.8125137,20.2499863 C20.55625,20.2499863 21.1250137,19.6812432 21.1250137,18.9374863 L21.1250137,5.37499316 L1,5.37499316 L1,18.9374863 Z M8.00001367,9.31249316 C8.00001367,8.56873633 8.6125,8.21875 9.31251367,8.21875 C9.53125,8.21875 9.79375,8.26249316 10.0125068,8.39374316 L15.0000137,11.2812432 C15.8750137,11.7625 15.8750137,12.9874932 15.0000137,13.46875 L10.0125068,16.35625 C9.79375,16.4875 9.57501367,16.5312432 9.31251367,16.5312432 C8.6125,16.5312432 8.00001367,16.1812363 8.00001367,15.4375 L8.00001367,9.31249316 Z" id="形状" fill="#FFAA22"></path>
                        </g>
                    </g>
                </g>
            </g>
        </g>
    </g>
</svg>