<?xml version="1.0" encoding="UTF-8"?>
<svg width="22px" height="20px" viewBox="0 0 22 20" version="1.1" xmlns="http://www.w3.org/2000/svg" xmlns:xlink="http://www.w3.org/1999/xlink">
    <!-- Generator: Sketch 63.1 (92452) - https://sketch.com -->
    <title>pdf文件</title>
    <desc>Created with Sketch.</desc>
    <g id="131005-帮助中心" stroke="none" stroke-width="1" fill="none" fill-rule="evenodd">
        <g id="帮助中心" transform="translate(-168.000000, -275.000000)" fill-rule="nonzero">
            <g id="编组-33" transform="translate(120.000000, 186.000000)">
                <g id="编组-11备份-2" transform="translate(24.000000, 72.000000)">
                    <g id="编组-6" transform="translate(24.000000, 16.000000)">
                        <g id="pdf文件">
                            <rect id="矩形" fill="#000000" opacity="0" x="0" y="0" width="22" height="22"></rect>
                            <path d="M18.6715007,5.95776264 L14.1176183,5.95776264 L14.1176183,1.40388018 L18.6715007,5.95776264 L18.6715007,5.95776264 Z M13.5532169,6.52216398 L13.5532169,1.40388018 L3.31596777,1.40271495 L3.31596777,10.3607834 L18.6715007,10.3607834 L18.6715007,6.52216398 L13.5532169,6.52216398 L13.5532169,6.52216398 Z M6.33799485,14.2687878 C6.22905871,14.2029644 6.10286426,14.1585105 5.95967535,14.1355581 C5.81635452,14.1126936 5.6674055,14.1011734 5.51258647,14.1011734 L4.46367763,14.1011734 L4.46367763,15.9411279 L5.51258647,15.9411279 C5.6674055,15.9411279 5.8163765,15.9296957 5.95967535,15.9067432 C6.10286426,15.8838787 6.22908069,15.8394468 6.33799485,15.7735135 C6.44679907,15.7076902 6.53423379,15.6143854 6.60027702,15.494061 C6.66612238,15.3736926 6.69912201,15.2161254 6.69912201,15.0211616 C6.69912201,14.8262858 6.66612238,14.6686526 6.60027702,14.5482842 C6.53423379,14.4279159 6.44679907,14.334721 6.33799485,14.2687878 L6.33799485,14.2687878 Z M0.769588209,11.6403378 L0.769588209,20.597263 L21.2304118,20.597263 L21.2304118,11.6403378 L0.769588209,11.6403378 L0.769588209,11.6403378 Z M7.88996661,15.7477031 C7.81262305,15.9855598 7.68924269,16.1962649 7.52024329,16.3796206 C7.35106799,16.5631522 7.13185462,16.7106502 6.86244928,16.8224224 C6.592956,16.9342606 6.26632344,16.9901467 5.88230981,16.9901467 L4.46356771,16.9901467 L4.46356771,19.1912064 L3.11368292,19.1912064 L3.11368292,13.0521546 L5.88230979,13.0521546 C6.26632342,13.0521546 6.59295598,13.1080188 6.86244926,13.219769 C7.13187658,13.3316291 7.35108997,13.4792151 7.52024326,13.6626587 C7.68924269,13.8461023 7.81251311,14.0553345 7.88996658,14.2902672 C7.96733214,14.5253758 8.00602589,14.7689046 8.00602589,15.0211177 C8.00602589,15.2677025 7.96733214,15.5099343 7.88996661,15.7477031 L7.88996661,15.7477031 Z M13.8552482,17.3253754 C13.740464,17.7036949 13.5671994,18.0304374 13.3350808,18.3056248 C13.1028962,18.5807023 12.8133745,18.7971675 12.4666036,18.9547347 C12.1197228,19.1124997 11.7113277,19.1912284 11.2413744,19.1912284 L8.59318182,19.1912284 L8.59318182,13.0521546 L11.2413744,13.0521546 C11.6368862,13.0521546 12.0051585,13.1153398 12.3462572,13.2413803 C12.687268,13.3674648 12.9825718,13.5565806 13.2318388,13.8088156 C13.4812377,14.0611385 13.6760037,14.3762509 13.8165764,14.7545704 C13.9569732,15.1328899 14.0271936,15.5771647 14.0271936,16.0873507 C14.0271936,16.5344396 13.9698345,16.9471658 13.8552482,17.3253754 L13.8552482,17.3253754 Z M19.1267241,14.1871351 L16.1603853,14.1871351 L16.1603853,15.6057673 L18.7312122,15.6057673 L18.7312122,16.654808 L16.1603853,16.654808 L16.1603853,19.1912284 L14.8105005,19.1912284 L14.8105005,13.0521546 L19.1267241,13.0521546 L19.1267241,14.1871351 L19.1267241,14.1871351 Z M12.2903711,14.7373781 C12.1528324,14.5597825 11.9707518,14.4236288 11.7444153,14.328961 C11.5178809,14.2343811 11.2384284,14.1871131 10.9061237,14.1871131 L9.94306661,14.1871131 L9.94306661,18.0562039 L11.1468165,18.0562039 C11.3416923,18.0562039 11.5307861,18.0247652 11.7143397,17.961646 C11.8976954,17.8986587 12.0611106,17.7940317 12.2044314,17.6477868 C12.3476203,17.5016739 12.4624045,17.311195 12.5483442,17.0760644 C12.6343279,16.8410438 12.6773088,16.554556 12.6773088,16.2162494 C12.6773088,15.9066993 12.6472332,15.6272467 12.587038,15.3779578 C12.5268648,15.1285808 12.4279099,14.9151495 12.2903711,14.7373781 L12.2903711,14.7373781 Z" id="形状" fill="#FF4444"></path>
                        </g>
                    </g>
                </g>
            </g>
        </g>
    </g>
</svg>