<?xml version="1.0" standalone="no"?><!DOCTYPE svg PUBLIC "-//W3C//DTD SVG 1.1//EN" "http://www.w3.org/Graphics/SVG/1.1/DTD/svg11.dtd"><svg t="1521529051854" class="icon" style="" viewBox="0 0 1024 1024" version="1.1" xmlns="http://www.w3.org/2000/svg" p-id="4089" xmlns:xlink="http://www.w3.org/1999/xlink" width="200" height="200"><defs><style type="text/css"></style></defs><path d="M159.219512 443.317073h74.926829v478.699187h112.390244V512h110.308943v410.01626h112.390244V512h110.308943v410.01626h112.390244V443.317073h72.845529c11.107902 0 20.126179-3.121951 27.05691-9.365853 6.936976-6.243902 10.406504-14.221528 10.406504-23.93496 0-11.10374-4.855675-20.124098-14.569105-27.05691v-2.081301h-2.081301L531.772358 197.723577V143.609756c20.813008 9.715512 52.380098 11.10374 94.699187 4.162602 42.319089-6.936976 78.741854-4.855675 109.268292 6.243902V35.382114c-29.138211-11.099577-65.560976-13.180878-109.268292-6.243903s-75.274407 5.550829-94.699187-4.162601V16.650407c0-11.099577-6.243902-16.650407-18.731708-16.650407s-18.731707 5.550829-18.731707 16.650407v181.07317L140.487805 380.878049H138.406504v2.081301c-11.099577 6.936976-16.650407 15.957333-16.650406 27.05691 0 9.713431 3.815024 17.691057 11.447154 23.93496S149.506081 443.317073 159.219512 443.317073zM196.682927 955.317073L121.756098 1024h780.487804l-72.845528-68.682927z" p-id="4090"></path></svg>