<svg id="图层_1" data-name="图层 1" xmlns="http://www.w3.org/2000/svg" viewBox="0 0 26.8 31.6"><defs><style>.cls-1{fill:none;stroke:#fff;stroke-width:2px;}.cls-2{fill:#fff;}</style></defs><title></title><g id="二期"><g id="系统管理-员额法官首页-"><g id="头像模块"><g id="Group-31"><g id="Group-4-Copy-6"><g id="个人"><path id="Shape" class="cls-1" d="M16.3,18.2H10.6A9.4,9.4,0,0,0,1,27.4v.5c0,2.7,4.2,2.7,9.6,2.7h5.7c5.1,0,9.5,0,9.5-2.7v-.5a9.4,9.4,0,0,0-9.5-9.2"/><path id="Rectangle-5" class="cls-2" d="M14,20h0a1.6,1.6,0,0,1,1.5,1.6h0A1.5,1.5,0,0,1,14,23.1h0a1.5,1.5,0,0,1-1.5-1.5h0A1.6,1.6,0,0,1,14,20Z"/><path id="Rectangle-5-Copy-2" class="cls-2" d="M14,23.8h0a1.6,1.6,0,0,1,1.5,1.6h0A1.5,1.5,0,0,1,14,26.9h0a1.5,1.5,0,0,1-1.5-1.5h0A1.6,1.6,0,0,1,14,23.8Z"/><circle id="Oval-3" class="cls-1" cx="13.7" cy="8.2" r="7.2"/><ellipse id="Oval-3-Copy" class="cls-2" cx="11.5" cy="7.5" rx="1.1" ry="1.5"/><ellipse id="Oval-3-Copy-2" class="cls-2" cx="16.5" cy="7.5" rx="1.1" ry="1.5"/></g></g></g></g></g></g></svg>