<?xml version="1.0" encoding="UTF-8"?>
<svg width="36px" height="42px" viewBox="0 0 36 42" version="1.1" xmlns="http://www.w3.org/2000/svg" xmlns:xlink="http://www.w3.org/1999/xlink">
    <!-- Generator: Sketch 52.5 (67469) - http://www.bohemiancoding.com/sketch -->
    <title></title>
    <desc>Created with Sketch.</desc>
    <g id="二期" stroke="none" stroke-width="1" fill="none" fill-rule="evenodd">
        <g id="档案查询——工作业绩" transform="translate(-309.000000, -132.000000)">
            <g id="查询" transform="translate(224.000000, 84.000000)">
                <g id="Group" transform="translate(25.000000, 33.000000)">
                    <g id="Group-4-Copy-6">
                        <g id="个人-copy" transform="translate(61.000000, 16.000000)">
                            <path d="M20.3537907,22.9233349 L12.7731266,22.9233349 C5.72934508,22.9233349 0,28.4107634 0,35.1561686 L0,35.882243 C0,39.409547 5.63775351,39.409547 12.7731266,39.409547 L20.3537907,39.409547 C27.2095172,39.409547 33.1288661,39.409547 33.1288661,35.882243 L33.1288661,35.1561686 C33.1288661,28.4116837 27.3985466,22.9233349 20.3537907,22.9233349" id="Shape" stroke="#F6D269" stroke-width="2" fill-rule="nonzero"></path>
                            <path d="M17.3181158,25.3854448 L17.3181158,25.3854448 C18.4319448,25.3854448 19.3348816,26.2883816 19.3348816,27.4022107 L19.3348816,27.4022107 C19.3348816,28.5160397 18.4319448,29.4189765 17.3181158,29.4189765 L17.3181158,29.4189765 C16.2042867,29.4189765 15.3013499,28.5160397 15.3013499,27.4022107 L15.3013499,27.4022107 C15.3013499,26.2883816 16.2042867,25.3854448 17.3181158,25.3854448 Z" id="Rectangle-5" fill="#F6D269" fill-rule="nonzero"></path>
                            <path d="M17.3181158,30.4635803 L17.3181158,30.4635803 C18.4319448,30.4635803 19.3348816,31.3665171 19.3348816,32.4803462 L19.3348816,32.4803462 C19.3348816,33.5941752 18.4319448,34.497112 17.3181158,34.497112 L17.3181158,34.497112 C16.2042867,34.497112 15.3013499,33.5941752 15.3013499,32.4803462 L15.3013499,32.4803462 C15.3013499,31.3665171 16.2042867,30.4635803 17.3181158,30.4635803 Z" id="Rectangle-5-Copy-2" fill="#F6D269" fill-rule="nonzero"></path>
                            <circle id="Oval-3" stroke="#F6D269" stroke-width="2" cx="16.9325316" cy="9.57056132" r="9.57056132"></circle>
                            <ellipse id="Oval-3-Copy" fill="#F6D269" fill-rule="nonzero" cx="14.0153494" cy="8.62577323" rx="1.50000001" ry="2"></ellipse>
                            <ellipse id="Oval-3-Copy-2" fill="#F6D269" fill-rule="nonzero" cx="20.6401664" cy="8.62577323" rx="1.49904369" ry="2"></ellipse>
                        </g>
                    </g>
                </g>
            </g>
        </g>
    </g>
</svg>