<?xml version="1.0" encoding="UTF-8"?>
<svg width="208px" height="208px" viewBox="0 0 208 208" version="1.1" xmlns="http://www.w3.org/2000/svg" xmlns:xlink="http://www.w3.org/1999/xlink">
    <!-- Generator: Sketch 50 (54983) - http://www.bohemiancoding.com/sketch -->
    <title></title>
    <desc>Created with Sketch.</desc>
    <defs></defs>
    <g id="7-12舆情线索需求调整" stroke="none" stroke-width="1" fill="none" fill-rule="evenodd">
        <g id="舆情线索-空页面" transform="translate(-616.000000, -412.000000)" fill-rule="nonzero">
            <g id="无内容" transform="translate(616.000000, 412.000000)">
                <path d="M188.120953,178.283257 C183.607281,182.784954 176.290618,182.784954 171.776946,178.283257 C169.811967,180.082174 167.985691,182.065595 166.055388,183.991359 C163.430521,186.610362 160.651503,189.07094 157.733121,191.36 L43.614042,191.36 C40.6913722,189.067578 37.9084806,186.603137 35.2802168,183.979827 C10.9093119,159.679786 2.10230935,123.876876 12.4286601,91.0819058 L3.40131256,82.0642575 C-1.12472752,77.561599 -1.13507746,70.2510217 3.37819533,65.7356259 C7.89146811,61.2202302 15.2192791,61.2099045 19.7453193,65.7125628 L25.4437603,71.4783225 C27.1967445,73.227184 29.7517746,73.9101922 32.1463956,73.2700644 C34.5410166,72.6299366 36.4114284,70.7639236 37.0530652,68.3749343 C37.6947019,65.985945 37.0100836,63.4369238 35.2570994,61.6880623 L24.6346509,51.090596 C21.924772,48.3870903 21.924772,44.0038415 24.6346509,41.3003358 C27.3445297,38.5968301 31.7381113,38.5968301 34.4479902,41.3003358 L49.1737783,55.9684288 C50.8932918,57.8594518 53.5169427,58.6520389 55.9991219,58.0303187 C58.4813011,57.4085985 60.4185462,55.4736276 61.0388027,52.9965542 C61.6590593,50.5194807 60.8615086,47.9029372 58.9640002,46.1897002 L52.6645069,39.881959 C82.5545866,21.765955 120.131911,22.0237652 149.769422,40.5481757 C179.406933,59.0725861 196.032782,92.6935261 192.732875,127.429255 L205.967591,140.748161 C208.67747,143.451666 208.67747,147.834915 205.967591,150.538421 C203.257712,153.241926 198.864131,153.241926 196.154252,150.538421 L183.220063,137.519335 C180.510184,134.815829 176.116602,134.815829 173.406723,137.519335 C170.696845,140.222841 170.696844,144.606089 173.406723,147.309595 L188.120953,161.98922 C192.625564,166.490953 192.625564,173.781524 188.120953,178.283257 Z" id="Shape" fill="#F8F8F8"></path>
                <path d="M134.886558,57.7663891 L134.886558,55.4478166 C134.886558,55.1403547 135.007855,54.8454857 135.223765,54.6280773 C135.439675,54.410669 135.732512,54.2885302 136.037855,54.2885302 C136.343197,54.2885302 136.636034,54.410669 136.851944,54.6280773 C137.067854,54.8454857 137.189151,55.1403547 137.189151,55.4478166 L137.189151,57.7663891 L139.491744,57.7663891 C140.127588,57.7663892 140.643041,58.2854193 140.643041,58.9256754 C140.643041,59.5659315 140.127588,60.0849616 139.491744,60.0849618 L137.189151,60.0849618 L137.189151,62.4035344 C137.189151,63.0437906 136.673698,63.5628208 136.037855,63.5628208 C135.402011,63.5628208 134.886558,63.0437906 134.886558,62.4035344 L134.886558,60.0849618 L132.583965,60.0849618 C131.948121,60.0849618 131.432668,59.5659316 131.432668,58.9256754 C131.432668,58.2854192 131.948121,57.7663891 132.583965,57.7663891 L134.886558,57.7663891 Z M25.5133863,127.323568 L25.5133863,125.004996 C25.5133863,124.36474 26.0288392,123.84571 26.6646827,123.845709 C27.3005262,123.845709 27.8159792,124.36474 27.8159792,125.004996 L27.8159792,127.323568 L30.1185724,127.323568 C30.7544159,127.323568 31.2698689,127.842599 31.2698689,128.482855 C31.2698689,129.123111 30.7544159,129.642141 30.1185724,129.642141 L27.8159792,129.642141 L27.8159792,131.960714 C27.8159792,132.60097 27.3005262,133.12 26.6646827,133.12 C26.0288392,133.12 25.5133863,132.60097 25.5133863,131.960714 L25.5133863,129.642141 L23.2107932,129.642141 C22.5749496,129.642141 22.0594966,129.123111 22.0594966,128.482855 C22.0594966,127.842599 22.5749496,127.323568 23.2107932,127.323568 L25.5133863,127.323568 Z M78.4730272,12.5542227 L78.4730272,10.23565 C78.4730272,9.59539381 78.9884803,9.07636364 79.6243238,9.07636364 C80.2601673,9.07636364 80.7756204,9.59539381 80.7756204,10.23565 L80.7756204,12.5542227 L83.0782135,12.5542227 C83.3835564,12.5542227 83.6763931,12.6763614 83.8923031,12.8937698 C84.1082131,13.1111781 84.2295101,13.4060472 84.2295101,13.713509 C84.2295101,14.3537652 83.7140571,14.8727954 83.0782135,14.8727954 L80.7756204,14.8727954 L80.7756204,17.1913678 C80.7756204,17.831624 80.2601673,18.3506542 79.6243238,18.3506542 C78.9884803,18.3506542 78.4730272,17.831624 78.4730272,17.1913678 L78.4730272,14.8727954 L76.1704343,14.8727954 C75.5345908,14.8727954 75.0191377,14.3537652 75.0191377,13.713509 C75.0191377,13.4060472 75.1404347,13.1111781 75.3563447,12.8937698 C75.5722547,12.6763614 75.8650915,12.5542227 76.1704343,12.5542227 L78.4730272,12.5542227 Z M9.83272727,33.4213765 C9.83272727,29.5798395 12.9254454,26.4656585 16.7405066,26.4656585 C20.5555678,26.4656585 23.6482859,29.5798395 23.6482859,33.4213765 C23.6482859,35.9064152 22.3316706,38.2026856 20.1943963,39.445205 C18.0571219,40.6877244 15.4238913,40.6877244 13.2866169,39.445205 C11.1493425,38.2026856 9.83272724,35.9064152 9.83272727,33.4213765 Z M169.425455,27.6249447 L169.425455,34.5806628 C169.425455,35.220919 168.910002,35.7399491 168.274158,35.7399491 C167.638314,35.7399491 167.122861,35.220919 167.122861,34.5806628 L167.122861,27.6249447 C167.122861,26.9846886 167.638314,26.4656584 168.274158,26.4656584 C168.579501,26.4656584 168.872338,26.5877971 169.088248,26.8052055 C169.304158,27.0226139 169.425455,27.3174829 169.425455,27.6249447 Z" id="Combined-Shape" fill="#EDEDED"></path>
                <path d="M20.1444848,190.666667 L167.948024,190.666667 C168.585756,190.666667 169.102739,191.184027 169.102739,191.822222 C169.102739,192.460418 168.585756,192.977778 167.948024,192.977778 L20.1444848,192.977778 C19.5067533,192.977778 18.9897697,192.460418 18.9897696,191.822222 C18.9897696,191.184027 19.5067532,190.666667 20.1444848,190.666667 Z M179.495176,190.666667 L186.423467,190.666667 C186.729716,190.666667 187.023422,190.788412 187.239974,191.005121 C187.456525,191.22183 187.578182,191.51575 187.578182,191.822222 C187.578182,192.460418 187.061198,192.977778 186.423467,192.977778 L179.495176,192.977778 C178.857444,192.977778 178.340461,192.460418 178.340461,191.822222 C178.340461,191.184027 178.857444,190.666667 179.495176,190.666667 Z M104.438691,197.6 L111.366982,197.6 C111.673231,197.6 111.966938,197.721746 112.183489,197.938454 C112.40004,198.155163 112.521697,198.449083 112.521697,198.755556 C112.521697,199.393751 112.004713,199.911111 111.366982,199.911111 L104.438691,199.911111 C103.800959,199.911111 103.283976,199.393751 103.283976,198.755556 C103.283976,198.11736 103.800959,197.6 104.438691,197.6 Z M15.5256243,205.688889 L45.5482182,205.688889 C46.1859498,205.688889 46.7029334,206.206249 46.7029334,206.844444 C46.7029334,207.48264 46.1859498,208 45.5482182,208 L15.5256243,208 C14.8878927,208 14.3709091,207.48264 14.3709091,206.844444 C14.3709091,206.206249 14.8878927,205.688889 15.5256243,205.688889 Z M70.9519514,205.688889 L184.114036,205.688889 C184.751768,205.688889 185.268751,206.206249 185.268751,206.844444 C185.268751,207.48264 184.751768,208 184.114036,208 L70.9519514,208 C70.3142198,208 69.7972362,207.48264 69.7972362,206.844444 C69.7972362,206.206249 70.3142198,205.688889 70.9519514,205.688889 Z M122.914133,197.6 L152.936727,197.6 C153.574459,197.6 154.091442,198.11736 154.091442,198.755556 C154.091442,199.393751 153.574459,199.911111 152.936727,199.911111 L122.914133,199.911111 C122.276402,199.911111 121.759418,199.393751 121.759418,198.755556 C121.759418,198.11736 122.276402,197.6 122.914133,197.6 Z M43.2387878,197.6 L95.2009697,197.6 C95.8387013,197.6 96.3556849,198.11736 96.3556849,198.755556 C96.3556849,199.393751 95.8387013,199.911111 95.2009697,199.911111 L43.2387878,199.911111 C42.6010563,199.911111 42.0840727,199.393751 42.0840727,198.755556 C42.0840727,198.11736 42.6010563,197.6 43.2387878,197.6 Z M134.461285,11.5555554 C136.32944,11.5555555 138.013644,10.4293872 138.728556,8.70218111 C139.443468,6.97497501 139.048298,4.98687476 137.727313,3.6649284 C136.406328,2.34298203 134.419674,1.94752428 132.693724,2.66295646 C130.967774,3.37838864 129.842424,5.06381864 129.842424,6.93333307 C129.842424,9.48611589 131.910359,11.5555553 134.461285,11.5555554 Z M134.461285,13.8666665 C130.634895,13.8666665 127.532994,10.7625075 127.532994,6.93333334 C127.532994,3.10415913 130.634895,7.47885575e-08 134.461285,0 C138.287674,-7.47885575e-08 141.389576,3.10415886 141.389576,6.93333307 C141.389576,8.77216742 140.659633,10.5356879 139.360326,11.8359402 C138.06102,13.1361924 136.298782,13.8666665 134.461285,13.8666665 Z M169.102739,123.644444 C170.970894,123.644444 172.655098,122.518276 173.37001,120.79107 C174.084922,119.063864 173.689752,117.075764 172.368767,115.753817 C171.047782,114.431871 169.061128,114.036413 167.335178,114.751845 C165.609228,115.467278 164.483879,117.152708 164.483879,119.022222 C164.483879,121.575005 166.551813,123.644444 169.102739,123.644444 Z M169.102739,125.955555 C165.27635,125.955555 162.174449,122.851396 162.174449,119.022222 C162.174449,115.193048 165.27635,112.088889 169.102739,112.088889 C172.929129,112.088889 176.03103,115.193048 176.03103,119.022222 C176.03103,122.851396 172.929129,125.955555 169.102739,125.955555 Z M100.974545,51.9999998 C102.8427,51.9999999 104.526904,50.8738317 105.241816,49.1466256 C105.956728,47.4194195 105.561558,45.4313192 104.240573,44.1093729 C102.919588,42.7874265 100.932934,42.3919687 99.2069841,43.1074009 C97.4810342,43.8228331 96.3556849,45.5082631 96.3556849,47.3777775 C96.3556849,49.9305603 98.4236191,51.9999997 100.974545,51.9999998 Z M100.974545,54.311111 C97.148156,54.3111109 94.0462547,51.2069518 94.0462547,47.3777777 C94.0462547,43.5486035 97.1481562,40.4444445 100.974545,40.4444445 C104.800935,40.4444444 107.902836,43.5486034 107.902836,47.3777775 C107.902836,49.2166119 107.172894,50.9801324 105.873587,52.2803847 C104.57428,53.580637 102.812042,54.3111111 100.974545,54.311111 Z M37.465212,161.777778 C39.3333668,161.777778 41.0175711,160.651609 41.732483,158.924403 C42.4473949,157.197197 42.0522248,155.209097 40.7312399,153.887151 C39.410255,152.565204 37.4236006,152.169747 35.6976506,152.885179 C33.9717006,153.600611 32.8463514,155.286041 32.8463515,157.155556 C32.8463516,159.708338 34.9142858,161.777778 37.465212,161.777778 Z M37.465212,164.088889 C33.6388226,164.088889 30.5369213,160.98473 30.5369213,157.155555 C30.5369214,153.326381 33.6388229,150.222222 37.4652122,150.222222 C41.2916016,150.222222 44.393503,153.326381 44.393503,157.155556 C44.393503,158.99439 43.6635602,160.75791 42.3642535,162.058163 C41.0649469,163.358415 39.302709,164.088889 37.465212,164.088889 Z M165.638594,30.0444442 L172.566885,30.0444442 C173.204616,30.0444442 173.7216,30.5618041 173.7216,31.1999998 C173.7216,31.8381956 173.204616,32.3555554 172.566885,32.3555554 L165.638594,32.3555554 C165.000862,32.3555554 164.483879,31.8381956 164.483879,31.1999998 C164.483879,30.5618041 165.000862,30.0444442 165.638594,30.0444442 Z" id="Shape" fill="#EDEDED"></path>
                <path d="M71.980606,78.6978353 C69.4278232,78.6978355 67.3583839,80.7618997 67.3583839,83.3080519 L67.3583839,166.291948 C67.3583839,168.8381 69.4278232,170.902165 71.980606,170.902165 L141.313939,170.902165 C143.866722,170.902165 145.936162,168.8381 145.936162,166.291948 L145.936162,83.3080519 C145.936162,80.7618996 143.866722,78.6978353 141.313939,78.6978353 L71.980606,78.6978353 Z M71.980606,76.3927273 L141.313939,76.3927273 C143.152774,76.3927272 144.916294,77.1213039 146.216546,78.4181789 C147.516799,79.7150538 148.247273,81.4739937 148.247273,83.3080519 L148.247273,166.291948 C148.247273,168.126006 147.516799,169.884946 146.216546,171.181821 C144.916294,172.478696 143.152774,173.207273 141.313939,173.207273 L71.980606,173.207273 C68.1514318,173.207273 65.0472727,170.111176 65.0472727,166.291948 L65.0472727,83.3080519 C65.0472727,79.4888236 68.1514318,76.3927273 71.980606,76.3927273 Z" id="Shape" fill="#D9D9D9"></path>
                <path d="M67.3163636,83.2 L130.739314,83.2 C132.574312,83.1999999 134.334153,83.929775 135.631692,85.2287829 C136.929232,86.5277909 137.658182,88.2896238 137.658182,90.1266985 L137.658182,170.938182 L74.2352309,170.938182 C72.4002332,170.938182 70.6403922,170.208407 69.3428529,168.909399 C68.0453136,167.610391 67.3163636,165.848558 67.3163636,164.011483 L67.3163636,83.2 Z" id="Shape" fill="#EDEDED"></path>
                <path d="M56.8533335,86.9818182 L126.186667,86.9818182 C130.015841,86.9818182 133.12,90.0779145 133.12,93.8971428 L133.12,176.881039 C133.12,180.700267 130.015841,183.796364 126.186667,183.796364 L56.8533335,183.796364 C55.0144991,183.796364 53.2509786,183.067787 51.9507264,181.770912 C50.6504741,180.474037 49.92,178.715097 49.92,176.881039 L49.92,93.8971428 C49.92,92.0630846 50.6504741,90.3041447 51.9507264,89.0072698 C53.2509786,87.7103949 55.0144991,86.9818181 56.8533335,86.9818182 Z" id="Shape" fill="#FFFFFF"></path>
                <path d="M56.8533335,89.2869263 C55.6274439,89.2869263 54.4517636,89.7726441 53.5849287,90.6372274 C52.7180939,91.5018107 52.2311112,92.6744373 52.2311112,93.8971428 L52.2311112,176.881039 C52.2311112,179.427191 54.3005506,181.491256 56.8533335,181.491256 L126.186667,181.491256 C128.73945,181.491255 130.808889,179.427191 130.808889,176.881039 L130.808889,93.8971428 C130.808889,91.3509906 128.73945,89.2869264 126.186667,89.2869263 L56.8533335,89.2869263 Z M56.8533335,86.9818182 L126.186667,86.9818182 C130.015841,86.9818182 133.12,90.0779145 133.12,93.8971428 L133.12,176.881039 C133.12,180.700267 130.015841,183.796364 126.186667,183.796364 L56.8533335,183.796364 C55.0144991,183.796364 53.2509786,183.067787 51.9507264,181.770912 C50.6504741,180.474037 49.92,178.715097 49.92,176.881039 L49.92,93.8971428 C49.92,92.0630846 50.6504741,90.3041447 51.9507264,89.0072698 C53.2509786,87.7103949 55.0144991,86.9818181 56.8533335,86.9818182 Z" id="Shape" fill="#D9D9D9"></path>
                <polygon id="Shape" fill="#EDEDED" points="62.7781818 133.876364 119.505455 133.876364 119.505455 146.734545 62.7781818 146.734545"></polygon>
                <path d="M63.9358813,153.541818 L118.347755,153.541818 C118.987135,153.541818 119.505455,154.049771 119.505455,154.676364 C119.505455,155.302956 118.987135,155.810909 118.347755,155.810909 L63.9358813,155.810909 C63.6288403,155.810909 63.3343749,155.691377 63.1172641,155.478608 C62.9001534,155.26584 62.7781818,154.977264 62.7781818,154.676364 C62.7781818,154.375463 62.9001534,154.086887 63.1172641,153.874119 C63.3343749,153.66135 63.6288403,153.541818 63.9358813,153.541818 Z M63.9358813,162.618182 L118.347755,162.618182 C118.987135,162.618182 119.505455,163.126135 119.505455,163.752727 C119.505455,164.379319 118.987135,164.887273 118.347755,164.887273 L63.9358813,164.887273 C63.6288403,164.887273 63.3343749,164.767741 63.1172641,164.554972 C62.9001534,164.342204 62.7781818,164.053627 62.7781818,163.752727 C62.7781818,163.451827 62.9001534,163.163251 63.1172641,162.950482 C63.3343749,162.737714 63.6288403,162.618182 63.9358813,162.618182 Z M63.9358813,171.694545 L118.347755,171.694545 C118.987135,171.694545 119.505455,172.202499 119.505455,172.829091 C119.505455,173.129991 119.383483,173.418567 119.166372,173.631336 C118.949261,173.844104 118.654796,173.963636 118.347755,173.963636 L63.9358813,173.963636 C63.6288403,173.963636 63.3343749,173.844104 63.1172641,173.631336 C62.9001534,173.418567 62.7781818,173.129991 62.7781818,172.829091 C62.7781818,172.528191 62.9001534,172.239615 63.1172641,172.026846 C63.3343749,171.814078 63.6288403,171.694545 63.9358813,171.694545 Z" id="Shape" fill="#EDEDED"></path>
                <path d="M63.9358813,104.378182 L118.347755,104.378182 C118.987135,104.378182 119.505455,104.886135 119.505455,105.512727 C119.505455,106.139319 118.987135,106.647273 118.347755,106.647273 L63.9358813,106.647273 C63.6288403,106.647273 63.3343749,106.527741 63.1172641,106.314972 C62.9001534,106.102204 62.7781818,105.813627 62.7781818,105.512727 C62.7781818,105.211827 62.9001534,104.923251 63.1172641,104.710482 C63.3343749,104.497714 63.6288403,104.378182 63.9358813,104.378182 Z M63.9358813,113.454545 L118.347755,113.454545 C118.987135,113.454545 119.505455,113.962499 119.505455,114.589091 C119.505455,115.215683 118.987135,115.723636 118.347755,115.723636 L63.9358813,115.723636 C63.6288403,115.723636 63.3343749,115.604104 63.1172641,115.391336 C62.9001534,115.178567 62.7781818,114.889991 62.7781818,114.589091 C62.7781818,114.288191 62.9001534,113.999615 63.1172641,113.786846 C63.3343749,113.574078 63.6288403,113.454545 63.9358813,113.454545 Z M63.9358813,122.530909 L118.347755,122.530909 C118.987135,122.530909 119.505455,123.038862 119.505455,123.665455 C119.505455,123.966355 119.383483,124.254931 119.166372,124.467699 C118.949261,124.680468 118.654796,124.8 118.347755,124.8 L63.9358813,124.8 C63.6288403,124.8 63.3343749,124.680468 63.1172641,124.467699 C62.9001534,124.254931 62.7781818,123.966355 62.7781818,123.665455 C62.7781818,123.364554 62.9001534,123.075978 63.1172641,122.86321 C63.3343749,122.650441 63.6288403,122.530909 63.9358813,122.530909 Z" id="Shape-Copy" fill="#EDEDED"></path>
            </g>
        </g>
    </g>
</svg>
