<?xml version="1.0" standalone="no"?><!DOCTYPE svg PUBLIC "-//W3C//DTD SVG 1.1//EN" "http://www.w3.org/Graphics/SVG/1.1/DTD/svg11.dtd"><svg t="1526881362269" class="icon" style="" viewBox="0 0 1024 1024" version="1.1" xmlns="http://www.w3.org/2000/svg" p-id="2069" xmlns:xlink="http://www.w3.org/1999/xlink" width="200" height="200"><defs><style type="text/css"></style></defs><path d="M149.504 865.792a397.312 64.512 0 1 0 794.624 0 397.312 64.512 0 1 0-794.624 0Z" fill="#EFEFEF" p-id="2070"></path><path d="M611.84 714.24c-19.456 55.808 7.168 116.224 59.392 134.656l4.096 1.536c52.224 18.432 111.104-12.288 130.56-68.096l-194.048-68.096z" fill="#CCCCCC" p-id="2071"></path><path d="M720.896 798.208l-15.36 7.68c-3.584 2.048-5.12 6.144-3.584 10.24 2.048 3.584 6.144 5.12 10.24 3.584l15.36-7.68 7.68 15.36c2.048 3.584 6.144 5.12 10.24 3.584 3.584-2.048 5.12-6.144 3.584-10.24l-7.68-15.36 15.36-7.68c3.584-2.048 5.12-6.144 3.584-10.24-2.048-3.584-6.144-5.12-10.24-3.584l-15.36 7.68-7.68-15.36c-2.048-3.584-6.144-5.12-10.24-3.584-3.584 2.048-5.12 6.144-3.584 10.24l7.68 15.36zM645.12 772.096l-15.36 7.68c-3.584 2.048-5.12 6.144-3.584 10.24 2.048 3.584 6.144 5.12 10.24 3.584l15.36-7.68 7.68 15.36c2.048 3.584 6.144 5.12 10.24 3.584 3.584-2.048 5.12-6.144 3.584-10.24l-7.68-15.36 15.36-7.68c3.584-2.048 5.12-6.144 3.584-10.24-2.048-3.584-6.144-5.12-10.24-3.584l-15.36 7.68-7.68-15.36c-2.048-3.584-6.144-5.12-10.24-3.584-3.584 2.048-5.12 6.144-3.584 10.24l7.68 15.36z" fill="#FFFFFF" p-id="2072"></path><path d="M570.368 598.528l44.544 15.36-19.968 56.32-41.472 19.968c-6.656 3.072-9.728 11.264-6.144 17.92s11.264 9.728 17.92 6.144l46.08-22.016 207.36 72.704 22.016 46.08c3.072 6.656 11.264 9.728 17.92 6.144 6.656-3.072 9.728-11.264 6.144-17.92L844.8 757.76l19.968-56.32 44.544 15.36c7.168 2.56 14.848-1.024 17.408-8.192 2.56-7.168-1.024-14.848-8.192-17.408l-44.544-15.36c10.752-30.208 10.752-61.44 2.048-89.088l57.344-27.648c6.656-3.072 9.728-11.264 6.144-17.92s-11.264-9.728-17.92-6.144l-55.808 27.136c-14.336-27.136-37.888-48.64-68.608-58.88l-5.632-2.048c-30.208-10.752-61.952-8.704-90.112 3.584l-27.136-55.808c-3.072-6.656-11.264-9.728-17.92-6.144s-9.728 11.264-6.144 17.92l27.648 57.344c-24.064 16.384-43.52 40.96-53.76 71.168l-44.544-15.36c-7.168-2.56-14.848 1.024-17.408 8.192-2.56 6.144 1.024 13.824 8.192 16.384z" fill="#CCCCCC" p-id="2073"></path><path d="M723.968 622.592l-38.4 18.432c-9.216 4.608-13.312 15.872-8.704 25.088 4.608 9.216 15.872 13.312 25.088 8.704l38.4-18.432 18.432 38.4c4.608 9.216 15.872 13.312 25.088 8.704 9.216-4.608 13.312-15.872 8.704-25.088l-18.432-38.4 38.4-18.432c9.216-4.608 13.312-15.872 8.704-25.088-4.608-9.216-15.872-13.312-25.088-8.704l-38.4 18.432-18.432-38.4c-4.608-9.216-15.872-13.312-25.088-8.704-9.216 4.608-13.312 15.872-8.704 25.088l18.432 38.4z" fill="#FFFFFF" p-id="2074"></path><path d="M273.408 70.144l42.496 48.64 6.144-0.512-33.28-51.2zM320 83.456l13.824 32.256H343.04l-11.776-40.448zM350.208 65.536l-1.024 49.664 7.168 1.536 11.264-54.784z" fill="#CCCCCC" p-id="2075"></path><path d="M380.416 853.504c-2.56-0.512-4.608-1.536-6.656-2.56l-49.664-28.16c-13.824-7.68-18.432-26.112-11.264-45.056 19.456-50.688-2.56-74.752-49.152-100.864s-78.336-32.768-111.616 10.24c-12.288 15.872-30.72 20.992-44.544 13.312l-49.664-28.16c-7.68-4.608-13.312-12.8-14.336-23.04-1.024-9.216 1.024-19.456 6.144-28.16 81.92-199.168 168.96-353.28 265.728-470.016 5.12-8.704 12.8-15.872 20.992-19.456 9.216-4.096 19.456-4.096 27.136 0.512l49.664 28.16c13.824 7.68 18.432 26.112 11.264 45.056-19.456 50.688 2.56 74.752 49.152 100.864s78.336 32.768 111.616-10.24c12.288-15.872 30.72-20.992 44.544-13.312l49.664 28.16c15.872 9.216 19.456 31.744 8.192 51.712l-0.512 1.024c-102.4 139.776-190.976 296.96-264.192 466.944l-0.512 1.024c-5.12 9.216-12.8 16.384-21.504 19.968-7.168 2.56-14.336 3.584-20.48 2.048z m-156.16-211.968c16.384 4.096 32.256 11.776 47.104 20.48 40.96 23.04 82.432 53.248 56.32 121.856-4.096 10.24-2.048 20.48 4.096 24.064l49.664 28.16c4.608 2.56 9.216 1.024 11.776-0.512 5.12-2.56 10.24-7.168 13.312-12.8 73.216-171.008 162.304-328.704 265.216-469.504 6.144-11.264 5.12-24.576-2.048-28.672l-49.664-28.16c-6.144-3.584-15.872 0.512-22.528 9.216-45.056 57.344-92.672 37.376-133.12 14.336-40.96-23.04-82.432-53.248-56.32-121.856 4.096-10.24 2.048-20.48-4.096-24.064l-49.664-28.16c-4.608-2.56-9.216-1.024-11.776 0.512-5.12 2.56-10.24 7.168-13.824 13.312l-0.512 0.512-0.512 0.512C231.936 276.48 145.92 429.056 64.512 627.2l-0.512 1.024c-3.584 6.144-5.12 12.8-4.096 18.432 0.512 3.072 1.536 8.192 6.144 10.24l49.664 28.16c6.144 3.584 15.872-0.512 22.528-9.216 28.672-35.84 57.856-40.96 86.016-34.304z" fill="#CCCCCC" p-id="2076"></path><path d="M277.9392 311.2448l266.97216 150.91712-17.3824 30.75584L260.5568 341.99552z" fill="#CCCCCC" p-id="2077"></path><path d="M527.872 494.592l-0.512-0.512-267.776-151.552 18.432-32.256 0.512 0.512 267.776 151.552-18.432 32.256z m-266.24-152.576L527.36 492.032l16.384-29.184L278.528 312.32l-16.896 29.696z" fill="#FFFFFF" p-id="2078"></path><path d="M242.19648 374.15936l266.97216 150.91712-17.3824 30.75584-266.97216-150.92224z" fill="#CCCCCC" p-id="2079"></path><path d="M492.544 557.568l-0.512-0.512-268.288-151.552 18.432-32.256 0.512 0.512 267.776 151.552-17.92 32.256zM225.792 404.992L491.52 555.008l16.384-29.184-265.216-150.016-16.896 29.184z" fill="#FFFFFF" p-id="2080"></path><path d="M205.6192 439.20384l266.96704 150.91712-17.3824 30.75584-266.97216-150.92224z" fill="#CCCCCC" p-id="2081"></path><path d="M455.68 622.08l-0.512-0.512-267.776-151.552 18.432-32.256 0.512 0.512 267.776 151.552-18.432 32.256zM189.44 469.504L455.168 619.52l16.384-29.184L206.336 440.32 189.44 469.504z" fill="#FFFFFF" p-id="2082"></path></svg>