<?xml version="1.0" encoding="UTF-8"?>
<svg width="24px" height="25px" viewBox="0 0 24 25" version="1.1" xmlns="http://www.w3.org/2000/svg" xmlns:xlink="http://www.w3.org/1999/xlink">
    <!-- Generator: Sketch 50 (54983) - http://www.bohemiancoding.com/sketch -->
    <title></title>
    <desc>Created with Sketch.</desc>
    <defs></defs>
    <g id="7-12舆情线索需求调整" stroke="none" stroke-width="1" fill="none" fill-rule="evenodd">
        <g id="舆情线索-详情页面" transform="translate(-991.000000, -400.000000)" fill="#1B95E7" fill-rule="nonzero">
            <g id="Group-6" transform="translate(919.000000, 384.000000)">
                <g id="Group-5-Copy" transform="translate(56.000000, 0.000000)">
                    <g id="原来价格" transform="translate(16.000000, 16.000000)">
                        <path d="M21.6922097,0 L2.30769292,0 C1.03348404,0 -2.69570224e-08,1.03550912 0,2.31328835 L0,21.7450733 C0,23.0227386 1.03348404,24.0583942 2.30769292,24.0583942 L21.6923233,24.0583942 C22.9668406,24.0583942 24,23.0228688 24,21.7450733 L24,2.31330464 C23.9998701,1.03552541 22.9668568,0 21.6922097,0 Z M22.6153778,21.2824969 C22.6153778,22.0487122 21.9956477,22.6703886 21.2308691,22.6703886 L2.76916334,22.6703886 C2.00467696,22.6703886 1.38452486,22.0487122 1.38452486,21.2824969 L1.38452486,2.77588094 C1.38452486,2.00872207 2.00467696,1.38789165 2.76916334,1.38789168 L21.2307717,1.38789168 C21.9955503,1.38789168 22.6152804,2.00872207 22.6152804,2.77588094 L22.6152804,21.2824969 L22.6153778,21.2824969 Z" id="Shape"></path>
                        <path d="M8.7723522,7.03042901 L11.9336925,7.03042901 C12.1547166,6.4720614 12.3642944,5.89618341 12.5624584,5.30279498 L6.833717,5.30279498 L6.833717,10.0489277 C6.833717,12.7478858 6.67646048,14.7369415 6.36220761,16.0166144 C6.04769459,17.3891835 5.40140156,18.7851106 4.42332853,20.2043796 C4.13219587,19.8087061 3.80625283,19.4074286 3.44525547,19.000336 C4.24854486,17.8021238 4.77848891,16.6216819 5.03482741,15.4582468 C5.30259597,14.3531906 5.43647211,12.6549897 5.43647211,10.3631404 L5.43647211,4.02919708 L20.7013282,4.02919708 L20.7013282,5.30277873 L14.0994327,5.30277873 C13.8372572,5.9312042 13.5839754,6.50708223 13.3395872,7.03041277 L19.3040833,7.03041277 L19.3040833,14.1843728 L17.994214,14.1843728 L17.994214,13.8353991 L14.763009,13.8353991 L14.763009,17.7439723 C14.763009,19.2096812 14.0991888,19.9368342 12.7720525,19.9251551 C12.3645546,19.9251551 11.6308697,19.9134761 10.571258,19.8901343 C10.5245136,19.4480046 10.4490558,18.9421845 10.344397,18.3721379 C11.2523615,18.4883758 11.9685192,18.5467547 12.49261,18.5467547 C13.0746314,18.5467547 13.3657641,18.2092001 13.3657641,17.5345784 L13.3657641,13.8354154 L10.0822053,13.8354154 L10.0822053,14.184389 L8.77233594,14.184389 L8.77233594,7.03042901 L8.7723522,7.03042901 Z M10.2745161,14.5158685 L11.4794501,15.3011405 C10.3499575,16.9762433 9.13333327,18.4592189 7.82931717,19.7505709 C7.52649435,19.494737 7.14796985,19.2097137 6.69398763,18.8957608 C7.86998079,17.8137865 9.06348485,16.3539091 10.2745161,14.5158685 Z M17.994214,8.19945179 L10.0822053,8.19945179 L10.0822053,9.85704417 L17.994214,9.85704417 L17.994214,8.19945179 Z M10.0822053,12.6663926 L17.994214,12.6663926 L17.994214,10.9912898 L10.0822053,10.9912898 L10.0822053,12.6663926 Z M17.0860056,14.5508893 C18.5996158,15.9818372 19.8922018,17.3079502 20.9635036,18.5292605 L19.7931198,19.5761977 C18.6753174,18.1569288 17.4294758,16.7610017 16.055595,15.3884326 L17.0860056,14.5508893 Z" id="Shape"></path>
                    </g>
                </g>
            </g>
        </g>
    </g>
</svg>
