<?xml version="1.0" standalone="no"?><!DOCTYPE svg PUBLIC "-//W3C//DTD SVG 1.1//EN" "http://www.w3.org/Graphics/SVG/1.1/DTD/svg11.dtd"><svg t="1526881923727" class="icon" style="" viewBox="0 0 1024 1024" version="1.1" xmlns="http://www.w3.org/2000/svg" p-id="18306" xmlns:xlink="http://www.w3.org/1999/xlink" width="200" height="200"><defs><style type="text/css"></style></defs><path d="M802.816 122.656c-123.264 87.008-284.032 221.888-440.416 465.728-156.416 243.808-232.448 461.12-132.128 399.168 0 0 166.304-323.008 286.272-376.992 119.968-54.016 235.2-67.552 308.288-155.232 0 0 32.672-60.992-110.08 0 0 0-49.984-7.232 21.984-44.384 72-37.12 221.824-113.28 242.24-177.408 0 0 32-41.152-66.08 0-98.048 41.152-116.096 22.88-44.032-22.176 72.064-45.056 147.04-107.456 154.144-155.232 7.104-47.776-96.96-20.48-220.192 66.528z m-417.6 17.696c0-24.48-19.712-44.352-44.032-44.352H76.928c-24.32 0-44.032 19.84-44.032 44.352v370.624c0 24.512 19.712 44.384 44.032 44.384 24.32 0 44.032-19.872 44.032-44.384V184.704h220.224c24.32 0 44.032-19.84 44.032-44.352z m559.776 548.064c-24.32 0-44.064 19.84-44.064 44.352v166.88h-352.32c-24.32 0-44.032 19.84-44.032 44.352 0 24.512 19.712 44.352 44.032 44.352h374.368c3.776 0 7.488-0.48 11.008-1.408a44.192 44.192 0 0 0 55.04-42.944v-211.232c0-24.512-19.712-44.352-44.032-44.352z" p-id="18307"></path></svg>