<?xml version="1.0" encoding="UTF-8"?>
<svg width="40px" height="40px" viewBox="0 0 40 40" version="1.1" xmlns="http://www.w3.org/2000/svg" xmlns:xlink="http://www.w3.org/1999/xlink">
    <!-- Generator: Sketch 60 (88103) - https://sketch.com -->
    <title>renwuhuaxiang</title>
    <desc>Created with Sketch.</desc>
    <g id="127001" stroke="none" stroke-width="1" fill="none" fill-rule="evenodd">
        <g id="员额法官-人物画像" transform="translate(-298.000000, -210.000000)" fill="#5F73F1" fill-rule="nonzero">
            <g id="查询" transform="translate(224.000000, 164.000000)">
                <g id="Group" transform="translate(25.000000, 30.000000)">
                    <g id="Group-4-Copy-6备份">
                        <g id="renwuhuaxiang" transform="translate(49.000000, 16.000000)">
                            <path d="M29.6272551,31.9999017 C29.6272551,31.9999017 29.4302152,30.5296461 29.4346934,30.4957195 C29.3899116,30.2921596 29.3473689,30.075029 29.3048262,29.8556367 C29.2323425,29.422399 29.1305996,28.9946784 29.00031,28.5754711 C28.0598923,25.8771717 26.3357932,24.0202531 23.733971,22.9051973 L23.6891892,22.8825795 C23.5906692,22.8328204 23.4899102,22.7921085 23.386912,22.7468729 C23.3119477,22.7152303 23.2373074,22.6828097 23.1630031,22.6496165 L21.6672911,21.9801307 L23.1226995,21.2246973 C24.8009157,20.3445333 25.9688865,18.715279 26.2730987,16.8300654 C26.6089622,14.9030318 26.0581461,12.9398097 24.8064949,11.580482 C23.586191,10.2596045 21.9718073,9.52452709 20.2633819,9.51547997 C18.593021,9.49964752 17.0010281,10.2007983 15.7963978,11.4764402 C14.6365494,12.7091085 14.0767769,14.1724779 14.1349933,15.8235748 C14.2111223,18.1645136 15.2881245,19.9400082 17.4264551,21.2518386 L18.8751462,22.1429786 L17.1532862,22.7219934 C17.1129826,22.735564 17.0771572,22.7536582 17.0413317,22.7717525 C16.974159,22.8011556 16.8957909,22.8396058 16.8017491,22.8712706 C15.0086983,23.5970029 13.4846456,24.8700314 12.4422414,26.5127309 C11.649308,27.7241532 11.1689963,29.1167081 11.0450494,30.5635727 L11.1793948,31.9048062 C10.736253,32.0272831 10.2618552,31.9149296 9.9187873,31.6062517 C9.58485416,31.2976659 9.42457355,30.8416205 9.49112116,30.389416 C9.64617821,28.6963387 10.2105409,27.0676469 11.134613,25.6464705 C12.1917764,23.9809572 13.6779562,22.6376619 15.4336653,21.7607383 C13.6110463,20.2521333 12.6482377,18.2776024 12.5698695,15.8801192 C12.4959795,13.7879759 13.2012928,11.9378427 14.6634184,10.3840022 C16.1703258,8.79171148 18.1563984,7.91866572 20.2723382,7.93428651 C22.4173862,7.94580703 24.434806,8.85956474 25.9529089,10.5038763 C27.5359453,12.2228265 28.2323022,14.6904248 27.8135924,17.1014786 C27.5076048,18.9498091 26.5432318,20.6213793 25.1020548,21.8014503 C27.6837252,23.120066 29.4906706,25.2212565 30.4758702,28.0552625 C30.6505192,28.5596387 30.7468,29.0640149 30.8408418,29.5525586 C30.8833845,29.7674274 30.9236881,29.9822962 30.972948,30.1994267 C31.0266862,30.4731017 30.9886217,30.71285 30.9595135,30.8870068 L30.9483181,30.9345041 C30.8151244,31.5619699 30.2624996,32.007603 29.6272551,31.9999017 L29.6272551,31.9999017 Z M4.54273282,10.770766 L3,9.84343757 C6.6078961,3.7138331 13.156751,-0.0303975628 20.216361,0.000185932787 C23.4952383,0.00374944288 26.7243994,0.810100328 29.6272551,2.35017181 L28.776401,3.9537714 C26.1378327,2.54677759 23.2000068,1.80934288 20.216361,1.80508364 C13.7887612,1.77937022 7.82708002,5.18959145 4.54273282,10.770766 L4.54273282,10.770766 Z" id="形状"></path>
                            <path d="M19.9777209,39.9976581 C8.96513312,39.9976581 0,30.5737705 0,19 L1.7823326,19 C1.7823326,29.5456675 9.94541606,38.1498829 20,38.1498829 L20,40 L19.9777209,40 L19.9777209,39.9976581 Z M29.8955635,37 L29,35.3172846 C34.7013756,31.8078519 38.2229209,25.2890151 38.2332592,18.225325 C38.2332592,14.6215696 37.3153067,11.0876264 35.5734357,8.01107364 L37.0958936,7 C39.0000131,10.386883 40.004351,14.2701346 39.9997581,18.2277323 C40.0352089,25.9889507 36.1719205,33.1664337 29.8955635,37 L29.8955635,37 Z M32,4.00059612 C32,5.10483639 32.8954305,6 34,6 C35.1045695,6 36,5.10483639 36,4.00059612 C36,2.90372577 35.1174717,2 33.9988074,2 C32.8801431,2 32,2.90611027 32,4.00298062 L32,4.00059612 Z M23,37.9988074 C23,39.0960048 23.8820024,40 25.0023838,40 C26.0941597,40 27,39.1174717 27,37.9988074 C27,36.9039952 26.1179976,36 25,36 C23.8796186,36 23,36.9063804 23,37.9988074 Z M0,12.9976162 C0,14.0941597 0.88200239,15 2.00238379,15 C3.11799761,15 4,14.1179976 4,12.9976162 C4,11.9034565 3.11799761,11 2,11 C0.903456485,11 0,11.9034565 0,12.9976162 L0,12.9976162 Z" id="形状"></path>
                        </g>
                    </g>
                </g>
            </g>
        </g>
    </g>
</svg>