<?xml version="1.0" encoding="UTF-8"?>
<svg width="26px" height="31px" viewBox="0 0 26 31" version="1.1" xmlns="http://www.w3.org/2000/svg" xmlns:xlink="http://www.w3.org/1999/xlink">
    <!-- Generator: Sketch 60 (88103) - https://sketch.com -->
    <title>编组 24</title>
    <desc>Created with Sketch.</desc>
    <g id="127001" stroke="none" stroke-width="1" fill="none" fill-rule="evenodd">
        <g id="员额法官-人物画像备份" transform="translate(-331.000000, -692.000000)">
            <g id="编组-33" transform="translate(224.000000, 346.000000)">
                <g id="编组-32" transform="translate(24.000000, 297.000000)">
                    <g id="编组-28" transform="translate(67.000000, 40.000000)">
                        <g id="编组-24" transform="translate(16.000000, 11.000000)">
                            <path d="M21.2960486,16.5418367 C20.6018997,17.3852041 19.7843465,18.1102041 18.8588146,18.7168367 L19.9694529,18.1102041 L22.4992401,22.7709184 L19.7534954,22.4602041 L18.7816869,24.6647959 L16.3136018,20.1372449 L17.4242401,19.5158163 C16.4524316,19.9596939 15.4034954,20.2704082 14.3082827,20.4331633 L18.9667933,29 L20.9721125,24.4576531 L25.8928571,25.005102 L21.2960486,16.5418367 Z" id="路径" fill="#FFFFFF" fill-rule="nonzero"></path>
                            <path d="M9.4585084,19.9590991 L7.02153361,24.5776561 L6.06197479,22.3287509 L3.35084034,22.6457107 L5.8487395,17.8913137 L6.94537815,18.5252333 C6.03151261,17.906407 5.22426471,17.1517408 4.53886555,16.3065147 L-2.22044605e-14,24.9248026 L4.85871849,24.3663496 L6.8387605,29 L11.4385504,20.2609655 C10.3419118,20.094939 9.30619748,19.7779792 8.34663866,19.3251795 L9.4585084,19.9590991 L9.4585084,19.9590991 Z" id="路径" fill="#FFFFFF" fill-rule="nonzero"></path>
                            <circle id="椭圆形" stroke="#FFFFFF" stroke-width="2.8" cx="12.9464286" cy="9.83928571" r="9.83928571"></circle>
                            <circle id="椭圆形备份" stroke="#FFFFFF" stroke-width="2.4" cx="12.9464286" cy="9.83928571" r="4.66071429"></circle>
                        </g>
                    </g>
                </g>
            </g>
        </g>
    </g>
</svg>