<?xml version="1.0" encoding="UTF-8"?>
<svg width="65px" height="74px" viewBox="0 0 65 74" version="1.1" xmlns="http://www.w3.org/2000/svg" xmlns:xlink="http://www.w3.org/1999/xlink">
    <!-- Generator: Sketch 52.5 (67469) - http://www.bohemiancoding.com/sketch -->
    <title></title>
    <desc>Created with Sketch.</desc>
    <g id="二期" stroke="none" stroke-width="1" fill="none" fill-rule="evenodd">
        <g id="系统管理-员额法官首页-" transform="translate(-96.000000, -374.000000)" fill-rule="nonzero">
            <g id="Group-27-Copy" transform="translate(23.000000, 300.000000)">
                <g id="Group-14-Copy" transform="translate(70.000000, 74.000000)">
                    <g id="胸章，勋章，奖章，表彰，荣誉">
                        <polygon id="Shape" fill="#FFA000" opacity="0.602355072" points="34.6875 41.625 24.975 41.625 24.975 72.15 34.6875 68.1857143 44.4 72.15 44.4 41.625"></polygon>
                        <polygon id="Shape" fill="#FFA000" points="46.25 74 35.1527253 69.5653624 24.05 74 24.05 66.1978261 26.6335502 66.1978261 26.6335502 70.2302899 35.1527253 66.8252174 43.6719003 70.2302899 43.6719003 43.2363768 25.3417751 43.2363768 25.3417751 40.7 46.25 40.7"></polygon>
                        <polygon id="Shape-Copy" fill="#FFA000" transform="translate(35.150000, 57.350000) scale(-1, 1) translate(-35.150000, -57.350000) " points="46.25 74 35.1527253 69.5653624 24.05 74 24.05 66.1978261 26.6335502 66.1978261 26.6335502 70.2302899 35.1527253 66.8252174 43.6719003 70.2302899 43.6719003 43.2363768 25.3417751 43.2363768 25.3417751 40.7 46.25 40.7"></polygon>
                        <path d="M59.2,31.9152059 C59.2,35.0756651 56.2827473,37.6354206 55.140743,40.3845872 C53.9608522,43.2365769 54.1665213,47.0951513 52.0178212,49.2436141 C49.8691212,51.3920769 46.0101208,51.1864306 43.1578163,52.3661911 C40.4083462,53.5080694 37.8483081,56.4250001 34.6875,56.425 C31.5266919,56.4249999 28.9612414,53.5080693 26.2117714,52.3661911 C23.3648791,51.1864306 19.5004664,51.392077 17.3517664,49.2436141 C15.2030663,47.0951512 15.4141477,43.2365769 14.2288447,40.3845872 C13.0868404,37.6354206 10.175,35.0756651 10.175,31.9152059 C10.175,28.7547467 13.0868403,26.1895795 14.2288447,23.4404129 C15.4141478,20.5884231 15.2030664,16.7298488 17.3517664,14.5813859 C19.5004663,12.432923 23.3648791,12.6385694 26.2117714,11.4588089 C28.9612414,10.3169307 31.5212795,7.4 34.6875,7.4 C37.8537205,7.4 40.4083462,10.3169307 43.1578163,11.4588089 C46.0101209,12.6385694 49.8745336,12.4329231 52.0178212,14.5813859 C54.1611088,16.7298487 53.9608522,20.5884231 55.140743,23.4404129 C56.2827473,26.1895795 59.2,28.7493349 59.2,31.9152059 Z" id="Shape" fill="#FFFFFF"></path>
                        <path d="M35.1391314,58.275 C32.7317248,58.275 30.6938523,56.9218527 28.8950902,55.7208665 C28.0296857,55.0924793 27.1072439,54.5466558 26.1398867,54.0905686 C25.0823043,53.7003534 23.9907452,53.409271 22.8792908,53.2210764 C20.7055602,52.7700273 18.4285774,52.3026752 16.8037138,50.6723773 C15.1788501,49.0420793 14.7278011,46.7813995 14.2984893,44.6076689 C14.11049,43.4967314 13.8212658,42.4053192 13.4344314,41.347073 C12.978193,40.3780783 12.4323867,39.4538463 11.8041335,38.5864352 C10.6085816,36.7876731 9.25,34.7824066 9.25,32.3478283 C9.25,29.9132501 10.6085816,27.9025493 11.8041335,26.1092216 C12.4324928,25.2399616 12.9782955,24.3139164 13.4344314,23.3431494 C13.8168003,22.3076632 14.1059673,21.2401097 14.2984893,20.1531998 C14.7495384,17.9794692 15.2168905,15.6970521 16.8471884,14.0721884 C18.4774864,12.4473247 20.7381662,11.9745384 22.9281997,11.5234894 C24.0296181,11.3324695 25.1117393,11.0432976 26.161624,10.6594314 C27.1288318,10.2030626 28.051248,9.65725419 28.9168275,9.02913345 C30.7155896,7.8335816 32.753462,6.475 35.1608686,6.475 C37.5682753,6.475 39.6007134,7.8335816 41.3994755,9.02913345 C42.2668866,9.65738672 43.1911186,10.203193 44.1601133,10.6594314 C45.2187997,11.0448647 46.3100831,11.3340548 47.4207092,11.5234894 C49.5944397,11.9745384 51.8714225,12.4418905 53.5017206,14.0721884 C55.1320186,15.7024863 55.5450273,17.9794692 56.0015107,20.1531998 C56.1843201,21.2652552 56.4736718,22.3571484 56.8655686,23.4137956 C57.3196969,24.3856215 57.8656083,25.3118513 58.4958665,26.1798678 C59.6914184,27.9731955 61.05,29.9838963 61.05,32.4184746 C61.05,34.8530529 59.6914184,36.8583193 58.4904322,38.6570814 C57.8619125,39.524318 57.3160911,40.4485756 56.8601343,41.4177193 C56.4682375,42.4743665 56.1788858,43.5662597 55.9960764,44.6783151 C55.539593,46.8520457 55.0722409,49.1290285 53.4473773,50.7593265 C51.8225136,52.3896245 49.5563995,52.8515422 47.3663659,53.3025912 C46.2548311,53.4904164 45.163238,53.7815079 44.10577,54.1720835 C43.1366263,54.6280404 42.2123687,55.1738618 41.3451322,55.8023815 C39.5844104,56.9218527 37.546538,58.275 35.1391314,58.275 Z M35.1391314,9.05087082 C33.5088334,9.05087082 31.9600504,10.0833928 30.3243181,11.1756924 C29.3198874,11.8940274 28.2478886,12.5128382 27.1234998,13.0233634 C25.9265044,13.4765441 24.6891659,13.8149925 23.4281578,14.0341482 C21.5261435,14.4254197 19.7273815,14.8003882 18.6459505,15.8818192 C17.5645194,16.9632502 17.189551,18.7674465 16.7928451,20.6966324 C16.5736895,21.9576406 16.235241,23.194979 15.7820604,24.3919744 C15.2702927,25.515724 14.6515494,26.5876058 13.9343894,27.5927927 C12.8475241,29.2230907 11.8095677,30.777308 11.8095678,32.407606 C11.8095679,34.0379039 12.8420898,35.5812526 13.9343894,37.2224192 C14.6526507,38.2249764 15.2714676,39.2951656 15.7820604,40.4178032 C16.2345488,41.6168866 16.5729746,42.8559618 16.7928451,44.1185795 C17.189551,46.0205938 17.5590851,47.8139215 18.6405161,48.9007869 C19.7219471,49.9876522 21.5207092,50.3571863 23.4227235,50.7484579 C24.6856542,50.966924 25.9248608,51.3053857 27.1234998,51.7592425 C28.2473867,52.272889 29.3192619,52.8934483 30.3243181,53.6123478 C31.954616,54.6992132 33.5088334,55.7317352 35.1391314,55.7317352 C36.7694293,55.7317352 38.312778,54.6992132 39.9539446,53.6123478 C40.9582629,52.8923049 42.0302518,52.2716797 43.1547629,51.7592425 C44.3517583,51.3060619 45.5890968,50.9676135 46.8501049,50.7484579 C48.7521192,50.3571863 50.5508813,49.9822179 51.6323122,48.9007869 C52.7137431,47.8193558 53.0887117,46.0205938 53.4799832,44.1185795 C53.705236,42.8460163 54.0509655,41.5977508 54.5125053,40.3906316 C55.0261518,39.2667447 55.6467111,38.1948695 56.3656106,37.1898133 C57.4524759,35.5595154 58.4904323,34.005298 58.4904322,32.3804344 C58.4904321,30.7555707 57.4579102,29.2013534 56.3656106,27.5656211 C55.6467111,26.5605649 55.0261518,25.4886897 54.5125053,24.3648028 C54.0600169,23.1657194 53.7215911,21.9266443 53.5017206,20.6640265 C53.110449,18.7620122 52.7409149,16.9686845 51.6540495,15.8818192 C50.5671842,14.7949538 48.7738565,14.430854 46.8718422,14.0341482 C45.6108341,13.8149925 44.3734956,13.4765441 43.1765002,13.0233634 C42.0497941,12.5118562 40.9759135,11.8911897 39.9702476,11.1702581 C38.312778,10.0833928 36.763995,9.05087074 35.1391314,9.05087082 Z" id="Shape" fill="#FFA000"></path>
                        <path d="M35.1391314,58.275 C32.7317248,58.275 30.6938523,56.9218527 28.8950902,55.7208665 C28.0296857,55.0924793 27.1072439,54.5466558 26.1398867,54.0905686 C25.0823043,53.7003534 23.9907452,53.409271 22.8792908,53.2210764 C20.7055602,52.7700273 18.4285774,52.3026752 16.8037138,50.6723773 C15.1788501,49.0420793 14.7278011,46.7813995 14.2984893,44.6076689 C14.11049,43.4967314 13.8212658,42.4053192 13.4344314,41.347073 C12.978193,40.3780783 12.4323867,39.4538463 11.8041335,38.5864352 C10.6085816,36.7876731 9.25,34.7824066 9.25,32.3478283 C9.25,29.9132501 10.6085816,27.9025493 11.8041335,26.1092216 C12.4324928,25.2399616 12.9782955,24.3139164 13.4344314,23.3431494 C13.8168003,22.3076632 14.1059673,21.2401097 14.2984893,20.1531998 C14.7495384,17.9794692 15.2168905,15.6970521 16.8471884,14.0721884 C18.4774864,12.4473247 20.7381662,11.9745384 22.9281997,11.5234894 C24.0296181,11.3324695 25.1117393,11.0432976 26.161624,10.6594314 C27.1288318,10.2030626 28.051248,9.65725419 28.9168275,9.02913345 C30.7155896,7.8335816 32.753462,6.475 35.1608686,6.475 C37.5682753,6.475 39.6007134,7.8335816 41.3994755,9.02913345 C42.2668866,9.65738672 43.1911186,10.203193 44.1601133,10.6594314 C45.2187997,11.0448647 46.3100831,11.3340548 47.4207092,11.5234894 C49.5944397,11.9745384 51.8714225,12.4418905 53.5017206,14.0721884 C55.1320186,15.7024863 55.5450273,17.9794692 56.0015107,20.1531998 C56.1843201,21.2652552 56.4736718,22.3571484 56.8655686,23.4137956 C57.3196969,24.3856215 57.8656083,25.3118513 58.4958665,26.1798678 C59.6914184,27.9731955 61.05,29.9838963 61.05,32.4184746 C61.05,34.8530529 59.6914184,36.8583193 58.4904322,38.6570814 C57.8619125,39.524318 57.3160911,40.4485756 56.8601343,41.4177193 C56.4682375,42.4743665 56.1788858,43.5662597 55.9960764,44.6783151 C55.539593,46.8520457 55.0722409,49.1290285 53.4473773,50.7593265 C51.8225136,52.3896245 49.5563995,52.8515422 47.3663659,53.3025912 C46.2548311,53.4904164 45.163238,53.7815079 44.10577,54.1720835 C43.1366263,54.6280404 42.2123687,55.1738618 41.3451322,55.8023815 C39.5844104,56.9218527 37.546538,58.275 35.1391314,58.275 Z M35.1391314,9.05087082 C33.5088334,9.05087082 31.9600504,10.0833928 30.3243181,11.1756924 C29.3198874,11.8940274 28.2478886,12.5128382 27.1234998,13.0233634 C25.9265044,13.4765441 24.6891659,13.8149925 23.4281578,14.0341482 C21.5261435,14.4254197 19.7273815,14.8003882 18.6459505,15.8818192 C17.5645194,16.9632502 17.189551,18.7674465 16.7928451,20.6966324 C16.5736895,21.9576406 16.235241,23.194979 15.7820604,24.3919744 C15.2702927,25.515724 14.6515494,26.5876058 13.9343894,27.5927927 C12.8475241,29.2230907 11.8095677,30.777308 11.8095678,32.407606 C11.8095679,34.0379039 12.8420898,35.5812526 13.9343894,37.2224192 C14.6526507,38.2249764 15.2714676,39.2951656 15.7820604,40.4178032 C16.2345488,41.6168866 16.5729746,42.8559618 16.7928451,44.1185795 C17.189551,46.0205938 17.5590851,47.8139215 18.6405161,48.9007869 C19.7219471,49.9876522 21.5207092,50.3571863 23.4227235,50.7484579 C24.6856542,50.966924 25.9248608,51.3053857 27.1234998,51.7592425 C28.2473867,52.272889 29.3192619,52.8934483 30.3243181,53.6123478 C31.954616,54.6992132 33.5088334,55.7317352 35.1391314,55.7317352 C36.7694293,55.7317352 38.312778,54.6992132 39.9539446,53.6123478 C40.9582629,52.8923049 42.0302518,52.2716797 43.1547629,51.7592425 C44.3517583,51.3060619 45.5890968,50.9676135 46.8501049,50.7484579 C48.7521192,50.3571863 50.5508813,49.9822179 51.6323122,48.9007869 C52.7137431,47.8193558 53.0887117,46.0205938 53.4799832,44.1185795 C53.705236,42.8460163 54.0509655,41.5977508 54.5125053,40.3906316 C55.0261518,39.2667447 55.6467111,38.1948695 56.3656106,37.1898133 C57.4524759,35.5595154 58.4904323,34.005298 58.4904322,32.3804344 C58.4904321,30.7555707 57.4579102,29.2013534 56.3656106,27.5656211 C55.6467111,26.5605649 55.0261518,25.4886897 54.5125053,24.3648028 C54.0600169,23.1657194 53.7215911,21.9266443 53.5017206,20.6640265 C53.110449,18.7620122 52.7409149,16.9686845 51.6540495,15.8818192 C50.5671842,14.7949538 48.7738565,14.430854 46.8718422,14.0341482 C45.6108341,13.8149925 44.3734956,13.4765441 43.1765002,13.0233634 C42.0497941,12.5118562 40.9759135,11.8911897 39.9702476,11.1702581 C38.312778,10.0833928 36.763995,9.05087074 35.1391314,9.05087082 Z" id="Shape" fill="#FFA000"></path>
                        <path d="M31.6137547,47.5974323 C37.2168184,49.026676 43.1567556,47.3581547 47.1960496,43.2203842 C51.2353435,39.0826136 52.7603293,33.1042197 51.1965595,27.5372056 C49.6327897,21.9701915 45.2178381,17.660319 39.6147744,16.2310755 C30.9531885,14.0216564 22.1404965,19.2521664 19.9310759,27.9137467 C17.7216553,36.575327 22.9521688,45.3880132 31.6137547,47.5974323 Z" id="Shape" fill="#FFA000" opacity="0.603713768"></path>
                        <path d="M35.1502564,49.95 C28.0414401,49.9499997 21.6327063,45.6674605 18.9127899,39.0995593 C16.1928736,32.5316581 17.697494,24.9720198 22.7249663,19.9461076 C27.7524386,14.9201955 35.3125433,13.4179218 41.8795997,16.1398769 C48.446656,18.861832 52.7272055,25.2718951 52.7249991,32.3807112 C52.7129718,42.0811045 44.8506526,49.9409838 35.1502564,49.95 Z M35.1502564,17.3859968 C26.8689046,17.3859968 20.1555426,24.0993591 20.1555426,32.3807111 C20.1555426,40.6620632 26.8689046,47.3754254 35.1502563,47.3754255 C43.4316081,47.3754255 50.1449701,40.6620633 50.1449702,32.3807112 C50.1389578,24.1009676 43.429997,17.389566 35.1502564,17.3805422 L35.1502564,17.3859968 Z" id="Shape" fill="#FFA000"></path>
                        <path d="M41.5372026,43.2498646 L35.0200539,39.9281846 C34.894458,39.859252 34.7424702,39.859252 34.6168744,39.9281846 L28.1880938,43.4214847 C28.0427336,43.5010611 27.8649571,43.491278 27.7291611,43.3962295 C27.593365,43.3011811 27.522966,43.1372574 27.5474249,42.9730579 L28.6906874,35.7317954 C28.7147142,35.5895233 28.6671858,35.4445279 28.5636583,35.3442661 L23.2615712,30.2953124 C23.1414018,30.1826742 23.0957285,30.0112644 23.143865,29.8535665 C23.1920014,29.6958686 23.3255411,29.579423 23.4880145,29.5534706 L30.7176312,28.4019548 C30.8583781,28.3796784 30.9786419,28.2882269 31.0379656,28.1583649 L34.1916028,21.5150048 C34.265857,21.3678037 34.4164172,21.275 34.5809748,21.275 C34.7455325,21.275 34.8960927,21.3678037 34.9703469,21.5150048 L38.2841513,28.0476422 C38.3500239,28.1757662 38.473323,28.2643405 38.6155317,28.285696 L45.8727634,29.2600555 C46.0366298,29.2806409 46.1743331,29.3933169 46.2272628,29.5501253 C46.2801924,29.7069336 46.2390313,29.8802715 46.1212987,29.9963612 L40.9517639,35.1837182 C40.8526466,35.2865112 40.8076258,35.4300995 40.8302577,35.5712475 L42.1613024,42.768221 C42.1965468,42.933075 42.1341199,43.1035564 42.0008466,43.2064089 C41.8675734,43.3092614 41.687188,43.3261682 41.5372026,43.2498646 Z" id="Shape" fill="#FFFFFF"></path>
                        <path d="M28.2032863,43.475 C27.7105498,43.4731566 27.2431686,43.2554289 26.9235992,42.8788629 C26.6040298,42.502297 26.4641213,42.0044223 26.5405306,41.5156848 L27.5617085,34.9399008 L22.7498756,30.350272 C22.2662174,29.9077814 22.0816127,29.2240711 22.2764588,28.5969047 C22.471305,27.9697383 23.010328,27.5126547 23.6587774,27.4247191 L30.234949,26.4048016 L33.0953164,20.3872883 C33.3716222,19.8046639 33.9549837,19.4315615 34.5976776,19.4264186 C35.2427659,19.3992925 35.8411647,19.7631608 36.1160782,20.3497123 L39.1314935,26.2867059 L45.7076652,27.1616877 C46.3437904,27.2428002 46.8783326,27.6806519 47.085196,28.2900442 C47.2920594,28.8994366 47.1351069,29.5739142 46.6807247,30.0281928 L41.9972073,34.7466533 L43.2055121,41.2955973 C43.3206868,41.9287606 43.069028,42.5728279 42.5557742,42.9584635 C42.0425203,43.3440991 41.3560985,43.404863 40.7835561,43.1153449 L34.8436157,40.0878003 L29.0052584,43.2656485 C28.7598141,43.4022643 28.4839231,43.4742845 28.2032863,43.475 Z M25.7439049,29.6846416 L29.6414896,33.3992886 C30.0476057,33.7849976 30.2342879,34.3493124 30.1387124,34.9023249 L29.3046613,40.211264 L34.0256041,37.6238943 C34.5133574,37.3698797 35.0936768,37.3698797 35.5814301,37.6238943 L40.393263,40.0716963 L39.4202035,34.7681252 C39.318451,34.2207284 39.4925364,33.6581997 39.8853473,33.2650889 L43.6813489,29.4538182 L38.3348678,28.7452439 C37.7832838,28.6725125 37.3030599,28.3309857 37.0517124,27.8326861 L34.6190635,23.0337058 L32.3093837,27.897102 C32.0702582,28.4021238 31.597922,28.7557915 31.0476142,28.8418676 L25.7439049,29.6846416 Z" id="Shape" fill="#FFA000"></path>
                        <g id="Group-35" transform="translate(3.700000, 0.000000)" fill="#FFA000">
                            <polygon id="Shape" points="30.525 0 32.375 0 32.375 5.55 30.525 5.55"></polygon>
                            <polygon id="Shape" points="39.775 7.364511 41.7760373 1.85 44.4 2.8098961 42.3989628 8.325"></polygon>
                            <polygon id="Shape" points="48.1 11.0970414 51.6391868 6.475 53.65 8.32856773 50.1102581 12.95"></polygon>
                            <polygon id="Shape" points="54.575 17.3281696 59.6531993 14.8 61.05 16.8968303 55.9723926 19.425"></polygon>
                            <polygon id="Shape" points="58.275 25.964846 63.3983191 24.975 63.825 27.685154 58.701156 28.675"></polygon>
                            <polygon id="Shape" points="58.275 38.7721205 58.7095532 36.075 63.825 37.0784585 63.3904468 39.775"></polygon>
                            <polygon id="Shape" points="54.575 47.4119649 55.979445 45.325 61.05 47.8630351 59.645555 49.95"></polygon>
                            <polygon id="Shape" points="48.1 53.6466936 50.1200531 51.8 53.65 56.4289155 51.6305032 58.275"></polygon>
                            <polygon id="Shape" points="10.175 57.3391156 13.7219425 52.725 15.725 54.5858844 12.1780575 59.2"></polygon>
                            <polygon id="Shape" points="2.775 47.8434374 7.86173921 45.325 9.25 47.4315626 4.16326088 49.95"></polygon>
                            <polygon id="Shape" points="0 37.0539997 5.12894015 36.075 5.55 38.7965841 0.421059847 39.775"></polygon>
                            <polygon id="Shape" points="0 28.5826297 0.442049359 25.9 5.55 26.9173704 5.10795071 29.6"></polygon>
                            <polygon id="Shape" points="2.775 16.8797732 4.18633928 14.8 9.25 17.3452269 7.83866064 19.425"></polygon>
                            <polygon id="Shape" points="10.175 8.31378314 12.2027025 6.475 15.725 11.1112169 13.6972975 12.95"></polygon>
                            <polygon id="Shape" points="19.425 2.79422141 22.0684508 1.85 24.05 7.38077859 21.4059556 8.325"></polygon>
                        </g>
                    </g>
                </g>
            </g>
        </g>
    </g>
</svg>