<?xml version="1.0" standalone="no"?><!DOCTYPE svg PUBLIC "-//W3C//DTD SVG 1.1//EN" "http://www.w3.org/Graphics/SVG/1.1/DTD/svg11.dtd"><svg t="1521528620998" class="icon" style="" viewBox="0 0 1024 1024" version="1.1" xmlns="http://www.w3.org/2000/svg" p-id="1732" xmlns:xlink="http://www.w3.org/1999/xlink" width="200" height="200"><defs><style type="text/css"></style></defs><path d="M764.866644 317.751214C764.866644 177.819942 651.429935 64.383234 511.498663 64.383234 371.567391 64.383234 258.130682 177.819942 258.130682 317.751214 258.130682 411.92219 371.627762 522.998925 371.627762 522.998925 379.431934 531.154731 377.87542 542.426529 368.466342 548.644187 368.466342 548.644187 325.695477 570.176824 325.695477 604.901593 325.695477 642.14067 356.017547 672.466388 393.421717 672.466388L629.575609 672.466388C666.89174 672.466388 697.301849 642.216599 697.301849 604.901593 697.301849 570.242436 654.521717 548.652659 654.521717 548.652659 644.977278 542.639945 643.634556 531.226155 651.37056 522.998308 651.37056 522.998308 764.866644 411.921728 764.866644 317.751214Z" p-id="1733"></path><path d="M795.101669 858.269574C806.38958 858.269574 815.54024 849.114283 815.54024 837.838034L815.54024 790.704779C815.54024 753.389773 785.281358 723.139985 747.976748 723.139985L275.020578 723.139985C237.706292 723.139985 207.457086 753.381569 207.457086 790.704779L207.457086 837.838034C207.457086 849.122062 216.614714 858.269574 227.895657 858.269574L795.101669 858.269574ZM761.310752 959.616766C772.603368 959.616766 781.757843 950.469546 781.757843 939.184688L781.757843 925.834369C781.757843 907.176866 766.630454 892.051971 747.971556 892.051971L275.02577 892.051971C256.366119 892.051971 241.239483 907.172764 241.239483 925.834369L241.239483 939.184688C241.239483 950.469014 250.394398 959.616766 261.686575 959.616766L761.310752 959.616766Z" p-id="1734"></path></svg>