<?xml version="1.0" encoding="UTF-8"?>
<svg width="14px" height="13px" viewBox="0 0 14 13" version="1.1" xmlns="http://www.w3.org/2000/svg" xmlns:xlink="http://www.w3.org/1999/xlink">
    <!-- Generator: Sketch 63.1 (92452) - https://sketch.com -->
    <title>性别</title>
    <desc>Created with Sketch.</desc>
    <g id="127001-人物画像" stroke="none" stroke-width="1" fill="none" fill-rule="evenodd">
        <g id="人物画像备份-7" transform="translate(-290.000000, -254.000000)" fill-rule="nonzero">
            <g id="编组-33" transform="translate(120.000000, 190.000000)">
                <g id="编组-25" transform="translate(168.000000, 24.000000)">
                    <g id="编组-26" transform="translate(0.000000, 34.000000)">
                        <g id="编组-4">
                            <g id="编组-6">
                                <g id="编组-5" transform="translate(0.000000, 3.000000)">
                                    <g id="性别">
                                        <rect id="矩形" fill="#000000" opacity="0" x="0" y="0" width="18" height="18"></rect>
                                        <path d="M6.08114885,10.3556641 C7.94565037,10.087793 9.29036178,8.38535157 9.15952499,6.45820312 C9.02868821,4.53105468 7.46699807,3.03634033 5.58424745,3.03634033 C3.60576638,3.03634033 2,4.68419189 2,6.71433106 C2,8.57149659 3.34409279,10.1054077 5.0875007,10.3556641 L5.0875007,12.1263428 L3.27488533,12.1263428 C2.99460352,12.1263428 2.76739021,12.3535561 2.76739021,12.6338379 C2.76739021,12.9141197 2.99460352,13.141333 3.27488533,13.141333 L5.0875007,13.141333 L5.0875007,13.141333 L5.0875007,15.0251974 C5.0875007,15.2995858 5.30993641,15.5220215 5.58432478,15.5220215 C5.85871314,15.5220215 6.08114885,15.2995858 6.08114885,15.0251974 L6.08114885,13.1414917 L6.08114885,13.1414917 L7.89376421,13.1414917 C8.17404602,13.1414917 8.40125932,12.9142784 8.40125932,12.6339966 C8.40125932,12.3537148 8.17404602,12.1265015 7.89376421,12.1265015 L6.08114885,12.1265015 L6.08114885,12.1265015 L6.08114885,10.3556641 Z M2.99364816,6.71433106 C2.99364816,5.24405518 4.15138359,4.0560913 5.58424745,4.0560913 C7.01494615,4.0560913 8.17469208,5.24627684 8.17469208,6.71433106 C8.17469208,8.18238526 7.01494615,9.37241211 5.58424745,9.37258407 C4.15138361,9.37717286 2.99364816,8.18444825 2.99364816,6.71433106 Z M8.82702016,12.322168 C8.82702016,14.3523071 10.4329412,16 12.4157525,16 C14.3942336,16 16,14.3523071 16,12.322168 C16,10.4650024 14.6559072,8.93109132 12.9124993,8.68067627 L12.9124993,4.9482544 L13.5113173,5.56270751 C13.6999377,5.75625274 14.0097441,5.76024513 14.2032893,5.57162477 C14.2062999,5.56869078 14.2092726,5.56571811 14.2122066,5.56270751 C14.4071957,5.36262728 14.4071957,5.04359831 14.2122066,4.84351807 L12.9124993,3.50987548 L12.9124993,3.50987548 C12.6381896,3.23330993 12.1916169,3.23148121 11.9150514,3.50579094 C11.9120424,3.50877539 11.9090604,3.51178689 11.9061057,3.51482508 L10.6142829,4.843152 C10.4194453,5.04349533 10.419612,5.36256793 10.6146589,5.56270751 C10.8032793,5.75625274 11.1130857,5.76024513 11.3066309,5.57162478 C11.3096415,5.56869079 11.3126142,5.56571812 11.3155482,5.56270752 L11.9143662,4.9482544 L11.9143662,4.9482544 L11.9143662,8.68067627 C10.1443579,8.93474121 8.82717481,10.4881714 8.82702016,12.322168 Z M15.0063518,12.3175659 C15.0063518,13.7878418 13.8486164,14.9758057 12.4157525,14.9804077 C10.9828887,14.9804077 9.82515327,13.7924439 9.82515327,12.322168 C9.82515327,10.8518921 10.9828887,9.66391494 12.4157525,9.66391494 C13.8441314,9.65932616 15.0018669,10.8518921 15.0063518,12.3175659 L15.0063518,12.3175659 Z" id="形状" fill="#5D6573"></path>
                                    </g>
                                </g>
                            </g>
                        </g>
                    </g>
                </g>
            </g>
        </g>
    </g>
</svg>