<?xml version="1.0" encoding="UTF-8"?>
<svg width="116px" height="99px" viewBox="0 0 116 99" version="1.1" xmlns="http://www.w3.org/2000/svg" xmlns:xlink="http://www.w3.org/1999/xlink">
    <!-- Generator: Sketch 50 (54983) - http://www.bohemiancoding.com/sketch -->
    <title>拍照</title>
    <desc>Created with Sketch.</desc>
    <defs></defs>
    <g id="06-05需求增加" stroke="none" stroke-width="1" fill="none" fill-rule="evenodd">
        <g id="首页工作台" transform="translate(-686.000000, -263.000000)" fill="#25B1CC" fill-rule="nonzero">
            <g id="随手拍" transform="translate(480.000000, 248.000000)">
                <g id="icon" transform="translate(192.000000, 0.000000)">
                    <g id="拍照" transform="translate(14.000000, 15.000000)">
                        <path d="M107.076923,26.8563702 L107.076923,89.3179086 L8.92307695,89.3179086 L8.92307695,26.8563702 L107.076923,26.8563702 Z M107.076923,17.9332932 L8.92307695,17.9332932 C4.01538463,17.9332932 0,21.9486779 0,26.8563702 L0,89.3179086 C0,94.2256009 4.01538463,98.2409856 8.92307695,98.2409856 L107.076923,98.2409856 C111.984615,98.2409856 116,94.2256009 116,89.3179086 L116,26.8563702 C116,21.9486779 111.984615,17.9332932 107.076923,17.9332932 Z M40.1538461,0.0871394492 L22.3076923,0.0871394492 C19.8538462,0.0871394492 17.8461539,2.09483177 17.8461539,4.54867787 C17.8461539,7.00252397 19.8538462,9.01021629 22.3076923,9.0102164 L40.1538461,9.0102164 C42.6076922,9.0102164 44.6153845,7.00252408 44.6153846,4.54867787 C44.6153847,2.09483165 42.6076923,0.0871394492 40.1538461,0.0871394492 Z" id="Shape"></path>
                        <path d="M40.1538461,44.7025241 C47.5332307,44.7025241 53.5384616,50.7077548 53.5384616,58.0871394 C53.5384616,65.4665241 47.5332307,71.4717548 40.1538461,71.4717548 C32.7744615,71.4717548 26.7692307,65.4665241 26.7692307,58.0871394 C26.7692307,50.7077548 32.7744616,44.7025241 40.1538461,44.7025241 Z M40.1538461,35.7794471 C32.1840752,35.779447 24.8197031,40.0312691 20.8348176,46.9332932 C16.8499321,53.8353173 16.8499321,62.3389616 20.8348176,69.2409857 C24.8197031,76.1430098 32.1840752,80.3948319 40.1538461,80.3948318 C52.4740442,80.3948316 62.4615381,70.4073376 62.4615381,58.0871394 C62.4615381,45.7669413 52.4740442,35.7794473 40.1538461,35.7794471 Z M93.6923077,35.7794471 L84.7692307,35.7794471 C82.3153846,35.7794471 80.3076923,37.7871394 80.3076923,40.2409856 C80.3076923,42.6948317 82.3153846,44.702524 84.7692307,44.7025241 L93.6923077,44.7025241 C96.1461538,44.7025241 98.1538461,42.6948318 98.1538461,40.2409856 C98.1538461,37.7871393 96.1461538,35.7794471 93.6923077,35.7794471 Z" id="Shape"></path>
                    </g>
                </g>
            </g>
        </g>
    </g>
</svg>