<?xml version="1.0" encoding="UTF-8"?>
<svg width="68px" height="51px" viewBox="0 0 68 51" version="1.1" xmlns="http://www.w3.org/2000/svg" xmlns:xlink="http://www.w3.org/1999/xlink">
    <!-- Generator: Sketch 50 (54983) - http://www.bohemiancoding.com/sketch -->
    <title></title>
    <desc>Created with Sketch.</desc>
    <defs></defs>
    <g id="7-12舆情线索需求调整" stroke="none" stroke-width="1" fill="none" fill-rule="evenodd">
        <g id="舆情线索-标记" transform="translate(-575.000000, -1243.000000)" fill="#CACACA" fill-rule="nonzero">
            <g id="Group-11" transform="translate(144.000000, 348.000000)">
                <g id="无效线索" transform="translate(0.000000, 726.000000)">
                    <g id="无效" transform="translate(431.000000, 169.000000)">
                        <path d="M35.8242514,4.38427914 L35.0030936,3.31265337 L34.3564814,4.54072086 L33.0196206,5.00222393 L34.0073901,5.93305215 L34.0073901,7.29018405 L35.2530112,6.62921779 L36.589872,7.02032209 L36.3796239,5.68665644 L37.2126825,4.56418712 L35.8242514,4.38427914 Z M33.9994562,49.6506902 C22.8007676,49.6506902 13.3713369,42.0593558 10.6182764,31.7498466 L9.13067161,31.3587423 C11.7805916,42.618635 21.9082048,51 33.9994562,51 C41.0610571,51.0001563 47.8021312,48.0939152 52.5964992,42.982362 L51.1088944,42.5912577 C46.5969714,47.1116194 40.4321397,49.6552572 33.9994562,49.6506902 Z M33.9994562,1.34930982 C45.1981449,1.34930982 54.6275756,8.94064417 57.3806361,19.2501534 L58.8682409,19.6412577 C56.2183209,8.38136503 46.0907077,0 33.9994562,0 C26.9378553,-0.000156301218 20.1967813,2.90608484 15.4024133,8.01763804 L16.890018,8.40874233 C21.4019411,3.88838064 27.5667728,1.34474284 33.9994562,1.34930982 Z M44.1508711,9.19877301 L45.2298804,10.0709356 L45.5631039,8.76464724 L46.7531877,8.06065951 L45.5631039,7.35667178 L45.2298804,6.04647239 L44.1508711,6.91863497 L42.7386383,6.81303681 L43.278143,8.05674847 L42.7386383,9.30046012 L44.1508711,9.19877301 Z M33.9994562,10.0709356 C38.9189585,10.0770651 43.538628,12.4030494 46.4278981,16.3286043 L48.4113711,16.8565951 C45.4022299,11.833195 39.9287826,8.74703844 34.0113571,8.73726994 C31.163968,8.73171042 28.3631692,9.44965606 25.8791177,10.8218558 L27.8625907,11.3459356 C29.7965115,10.5063087 31.8863261,10.0721272 33.9994562,10.0709356 Z M50.8629438,12.8086656 L49.6807939,12.0029908 L49.5141821,13.3483896 L48.4153381,14.1305982 L49.6847608,14.756365 L50.1726952,16.0548313 L51.1247622,15.0966258 L52.5250942,15.0966258 L51.8427795,13.8763804 L52.2394741,12.5818252 L50.8629438,12.8086656 Z M25.4308528,6.26940184 L24.3201079,5.48719325 L24.0781242,6.85214724 L22.9435777,7.69693252 L24.169364,8.28358896 L24.5660586,9.57814417 L25.5736629,8.58473926 L26.962094,8.53780675 L26.3551512,7.33320552 L26.8034161,6.01127301 L25.4308528,6.26940184 Z M17.0010925,38.1365798 L18.0959696,39.0204755 L18.3538211,37.6907209 L19.4963016,36.975 L18.2824161,36.2631902 L17.8857215,34.9373466 L16.8781172,35.8251534 L15.493653,35.7234663 L16.084728,36.9828221 L15.6205953,38.246089 L17.0010925,38.1365798 Z M66.0008098,22.946089 L7.55976098,7.30191718 C6.86788471,7.11998359 6.13096365,7.21799121 5.51271425,7.57416638 C4.89446485,7.93034155 4.44608779,8.51518743 4.26719578,9.19877301 L0.0939685657,24.768635 C-0.293916762,26.1922104 0.553932355,27.6580911 1.99413571,28.053911 L60.4312176,43.6980828 C61.1230939,43.8800164 61.8600149,43.7820088 62.4782643,43.4258336 C63.0965137,43.0696584 63.5448908,42.4848126 63.7237828,41.801227 L67.900977,26.2509202 C68.3015046,24.8210433 67.4509244,23.3416872 66.0008098,22.946089 Z M66.42924,26.5325153 L62.6011371,40.7882669 C62.4669738,41.3014284 62.1304333,41.7404824 61.6663332,42.0078208 C61.2022331,42.2751591 60.6490375,42.3486252 60.1297297,42.2118865 L3.00570695,26.9314417 C1.92399337,26.6363158 1.28632535,25.5361226 1.57760638,24.4674847 L5.40570929,10.2117331 C5.53987253,9.69857157 5.87641311,9.25951758 6.34051317,8.99217924 C6.80461324,8.72484089 7.35780887,8.65137478 7.87711667,8.7881135 L65.0011394,24.0685583 C66.082853,24.3636842 66.720521,25.4638774 66.42924,26.5325153 Z M33.9915223,46.5687883 L34.8087132,47.6365031 L35.4513585,46.4123466 L36.7802854,45.9547546 L35.7964828,45.0278374 L35.7964828,43.6746166 L34.5468948,44.3238497 L33.2219348,43.9327454 L33.432183,45.2625 L32.622926,46.3967025 L33.9915223,46.5687883 Z M43.7303748,44.7266871 L44.8331858,45.5088957 L45.0712026,44.1478528 L46.1978153,43.3069785 L44.9799628,42.7203221 L44.5832682,41.4296779 L43.5915317,42.4269939 L42.2150015,42.4700153 L42.8179772,43.6746166 L42.3736793,44.992638 L43.7303748,44.7266871 Z M25.7561424,42.434816 L24.685067,41.5626534 L24.3558105,42.8689417 L23.1657266,43.5729294 L24.3558105,44.2769172 L24.6890339,45.5832055 L25.7601093,44.7110429 L27.1604413,44.8166411 L26.6249036,43.5768405 L27.1604413,42.3370399 L25.7561424,42.434816 Z M40.1601234,39.6501534 C33.5461794,42.5146441 25.8014051,40.4428597 21.5630804,34.6753067 L19.5796074,34.147316 C22.5887487,39.170716 28.062196,42.2568726 33.9796215,42.2666411 C36.838111,42.2763962 39.6505468,41.5569227 42.1435964,40.1781442 L40.1601234,39.6501534 Z M47.9512054,22.6644939 L46.2414517,21.8822853 C45.3160401,23.5297658 44.1728237,25.0487942 42.8417789,26.3995399 C42.6064068,25.8780675 42.3419437,25.3305215 42.0483897,24.7569018 L40.4616113,25.3122699 C40.9027215,26.2298424 41.2907809,27.1713031 41.6239265,28.1321319 L40.2989665,27.3577454 C39.9527273,27.9514417 39.5315151,28.4994487 39.0454116,28.9886503 L38.0457412,27.2208589 L36.5224339,27.9483129 C36.9323517,28.6809816 37.3171454,29.3927914 37.6768152,30.0837423 C36.6096803,30.7304532 35.4232303,31.1624559 34.1859027,31.3548313 C34.4503658,32.0562117 34.6685478,32.7341258 34.8404488,33.3885736 C36.1495551,33.054116 37.3934775,32.5083184 38.5217747,31.7733129 C38.8073948,32.3730061 39.0718579,32.9544479 39.3151639,33.517638 L41.0169838,32.6337423 C40.7234297,32.0575153 40.3716939,31.392638 39.9617761,30.6391104 C40.697868,29.9546535 41.3442104,29.1820894 41.8857449,28.3394172 L41.7231001,28.2377301 L42.5164894,27.9444018 C42.6249192,28.2885736 42.7201259,28.6001534 42.8021095,28.8791411 C43.1723578,28.5480061 43.5280606,28.2142638 43.8692179,27.8779141 C43.7544543,29.1268365 43.8064689,30.385208 44.0239288,31.6207822 C42.8285608,32.3881847 41.4934462,32.9194864 40.0926853,33.1851994 C40.4097594,33.8150756 40.6750734,34.4690134 40.8860745,35.1407209 C42.1992288,34.8590054 43.4528582,34.3548277 44.5912021,33.6506135 C45.0023439,34.7140243 45.5835905,35.7056481 46.3128567,36.5878067 C46.997816,35.9463957 47.563767,35.4536043 48.0107096,35.1094325 C47.2035125,34.3563971 46.5738177,33.437849 46.1660797,32.418635 C47.4222793,31.1957822 48.5052555,29.447546 49.4150085,27.1739264 L50.2083977,27.4046779 L50.7399685,25.5860429 L46.8166588,24.4440184 C47.2287357,23.872517 47.6075289,23.2783839 47.9512054,22.6644939 Z M47.6973209,26.6694018 C47.2020568,27.9657701 46.498893,29.1753345 45.6146742,30.2519172 C45.4517167,28.869865 45.4958251,27.4716971 45.7455834,26.1023006 L47.6973209,26.6694018 Z M44.3531854,23.2746166 L42.0166542,22.5940951 C42.0325219,22.0152607 42.0153318,21.3712423 41.9650839,20.6620399 L40.0133464,20.5212423 C40.0635944,21.0609663 40.0940076,21.5654908 40.1045862,22.034816 L37.4983026,21.2760736 L36.9865666,22.9734663 L43.8414493,24.9720092 L44.3531854,23.2746166 Z M39.8705364,25.0111196 C38.9345399,25.9673546 37.8645107,26.7865543 36.6930126,27.4437883 C36.3492106,26.6902607 36.074169,26.1401074 35.8678878,25.7933282 C36.8336615,25.2560061 37.7255636,24.5988064 38.5217747,23.8378067 L39.8705364,25.0111196 Z M26.6288705,25.6955521 C27.377301,26.2170245 27.9445743,26.6081288 28.3306904,26.868865 C28.0006153,27.6024244 27.602213,28.3042056 27.1406066,28.965184 C26.887951,29.3130531 26.5108397,29.5534631 26.0853989,29.6378834 C25.5813395,29.7084481 25.0676552,29.6670238 24.5819264,29.5166411 L22.9396107,29.0746933 C21.4850638,28.683589 20.936303,27.8427147 21.2933281,26.5520706 L22.2612629,23.0321319 C20.9601047,25.1675613 18.7333256,26.619862 15.5809258,27.3890337 C15.2477024,26.8154141 14.8510078,26.1713957 14.390842,25.4569785 C17.7177874,24.6747699 19.8599383,23.3828221 20.8172946,21.581135 L15.9617527,20.2826687 L16.4417531,18.5461656 L21.6305185,19.9267638 C21.8949816,19.3192485 22.1448992,18.6309049 22.3802713,17.8617331 L17.8777876,16.6532209 L18.3419203,14.9284509 L29.7429232,17.9712423 L29.2629227,19.7077454 L24.391513,18.4014571 C24.1402731,19.1367331 23.87581,19.8224693 23.5981238,20.4586656 L29.5049064,22.042638 L29.0526745,23.7908742 L22.8285362,22.1208589 C22.6777923,22.4050613 22.5217591,22.6657975 22.3604366,22.9030675 L24.2606037,23.4467025 L23.4672145,26.3643405 C23.3608576,26.6185763 23.3817613,26.9072959 23.5236672,27.1440602 C23.6655732,27.3808245 23.9120104,27.5381524 24.1891987,27.5689417 L24.6057281,27.682362 C24.8314841,27.7439806 25.0663793,27.7664774 25.2999436,27.7488497 C25.5949975,27.6848301 25.8378282,27.4792031 25.9465558,27.2013037 C26.2043788,26.7133132 26.4322276,26.2104899 26.6288705,25.6955521 Z" id="Combined-Shape"></path>
                    </g>
                </g>
            </g>
        </g>
    </g>
</svg>
