<?xml version="1.0" encoding="UTF-8"?>
<svg width="116px" height="102px" viewBox="0 0 116 102" version="1.1" xmlns="http://www.w3.org/2000/svg" xmlns:xlink="http://www.w3.org/1999/xlink">
    <!-- Generator: Sketch 50 (54983) - http://www.bohemiancoding.com/sketch -->
    <title>人员_1</title>
    <desc>Created with Sketch.</desc>
    <defs></defs>
    <g id="06-05需求增加" stroke="none" stroke-width="1" fill="none" fill-rule="evenodd">
        <g id="首页工作台" transform="translate(-326.000000, -107.000000)" fill="#2286D4" fill-rule="nonzero">
            <g id="审执" transform="translate(120.000000, 92.000000)">
                <g id="icon" transform="translate(192.000000, 0.000000)">
                    <g id="人员_1" transform="translate(14.000000, 15.000000)">
                        <path d="M109.054566,11.4096663 C112.896302,11.4096664 116.005934,14.2800957 115.998685,17.8028952 L115.998685,95.3117335 C115.998685,98.8345331 112.889054,101.704962 109.047317,101.704962 L6.95136783,101.704962 C3.11688027,101.704962 0,98.834533 0,95.3117335 L0,17.8028952 C0,14.2800956 3.11688027,11.4096663 6.95136783,11.4096663 L27.0226269,11.4096663 L27.0226269,4.13936195 C27.0226269,1.84881741 28.9289978,0.000434915154 31.2630338,0.000434915154 C33.5970697,0.000434915154 35.4961921,1.84881741 35.4961921,4.13936195 L35.4961921,11.4096663 L53.8495427,11.4096663 L53.8495427,4.13936195 C53.8609969,3.02755377 54.3146815,1.96606513 55.1103535,1.18943482 C55.9060256,0.41280451 56.9781902,-0.0150399192 58.0899496,0.000434915154 C60.4010903,-0.0237254171 62.295243,1.82826296 62.3231078,4.13936195 L62.3231078,11.4096663 L80.6837072,11.4096663 L80.6837072,4.13936195 C80.6970831,3.02816723 81.1513734,1.96780719 81.9466218,1.19159035 C82.7418702,0.415373512 83.8129212,-0.013103928 84.924114,0.000434915154 C86.0333781,-0.011159856 87.1018093,0.418404719 87.8943342,1.19461697 C88.6868592,1.97082922 89.1385488,3.03009663 89.1500237,4.13936195 L89.1500237,11.4096663 L109.054566,11.4096663 Z M108.344207,95.5364389 L108.336959,95.5364389 L108.336959,19.1511271 L89.1427751,19.1511271 L89.1427751,26.4069344 C89.1408633,27.5244692 88.6940923,28.5952579 87.9011592,29.3827507 C87.1082261,30.1702434 86.0343869,30.6096319 84.9168654,30.6038499 C82.575581,30.6038499 80.6764586,28.7264731 80.6764586,26.4069344 L80.6764586,19.1511271 L62.3158594,19.1511271 L62.3158594,26.4069344 C62.313957,27.525733 61.8661913,28.5976291 61.0716862,29.3853319 C60.2771812,30.1730347 59.2014747,30.6115674 58.0827011,30.6038499 C55.7414165,30.6038499 53.8495427,28.7264731 53.8495427,26.4069344 L53.8495427,19.1511271 L35.4961921,19.1511271 L35.4961921,26.4069344 C35.4961921,28.7337217 33.5970696,30.6038499 31.2557852,30.6038499 C28.9145008,30.6038499 27.0153784,28.7264731 27.0153784,26.4069344 L27.0153784,19.1511271 L7.66897512,19.1511271 L7.66897512,95.5364389 L108.344207,95.5364389 Z M43.4841038,66.7161694 C46.5719898,67.3322969 57.9449785,73.4500804 57.9377299,79.3721529 L57.9377334,80.3434598 L19.2449234,80.3434598 L19.2449234,79.3721529 C19.2449234,73.4500804 30.6106635,67.3322969 33.7130466,66.723418 C33.8658214,66.3067965 33.9538262,65.8692169 33.9739947,65.425926 C33.2563874,64.6358331 31.5312304,62.4975081 30.8861087,59.7285587 C30.1386758,59.3247684 29.5773053,58.6464457 29.32042,57.836685 C28.8347666,56.5319444 28.7985238,54.7198047 29.7408364,53.5527868 L29.7408364,53.4947983 C29.5596224,51.8493755 29.0884662,47.5002403 31.6834502,44.6515567 C33.2201446,42.9481453 35.546932,42.0855669 38.5913266,42.0855669 C41.6429698,42.0855668 43.9697572,42.9481453 45.5137002,44.6370595 C48.1086842,47.4929916 47.6302794,51.8493754 47.4490654,53.4875497 L47.4490654,53.5455382 C48.3913781,54.7053076 48.3551352,56.5174473 47.8694818,57.8221879 C47.6194386,58.63526 47.059677,59.3173881 46.3110417,59.7213103 C45.6586714,62.4902597 43.940763,64.6285845 43.2231557,65.4186774 C43.2436636,65.8619266 43.3316581,66.2994551 43.4841038,66.7161694 Z M65.0848088,46.0505284 C65.0886447,45.2219552 65.4214776,44.428843 66.0100861,43.845672 C66.5986946,43.262501 67.3948615,42.937043 68.2234347,42.9408968 L93.5426503,42.9408968 C94.3712235,42.937043 95.1673904,43.262501 95.7559989,43.845672 C96.3446074,44.428843 96.6774403,45.2219552 96.6812763,46.0505284 C96.6774457,46.8784426 96.3443805,47.6708157 95.7555607,48.2528361 C95.166741,48.8348566 94.3705531,49.1586967 93.5426503,49.1529117 L68.2306833,49.1529117 C66.4910291,49.1529116 65.0848088,47.7611883 65.0848088,46.0505284 Z M68.2234347,64.389382 C66.4996349,64.3974364 65.0935026,63.0107439 65.0775602,61.2869989 C65.0935026,59.563254 66.4996349,58.1765614 68.2234347,58.1846158 L87.20741,58.1846158 C88.0340608,58.180762 88.828384,58.5054564 89.4156331,59.087268 C90.0028822,59.6690796 90.3349514,60.4603481 90.3387874,61.2869989 C90.3349514,62.1136497 90.0028822,62.9049183 89.4156331,63.4867299 C88.828384,64.0685415 88.0340608,64.3932359 87.20741,64.389382 L68.2234347,64.389382 Z M93.5354018,73.5298145 C94.3639749,73.5259608 95.1601418,73.8514188 95.7487503,74.4345898 C96.3373588,75.0177608 96.6701917,75.810873 96.6740277,76.6394462 C96.6701917,77.4680195 96.3373588,78.2611317 95.7487504,78.8443027 C95.1601419,79.4274738 94.3639749,79.7529318 93.5354018,79.749078 L68.2234347,79.749078 C66.4837805,79.7490779 65.0775602,78.3573546 65.0775602,76.6394462 C65.0895319,74.9128633 66.4968289,73.5217794 68.2234347,73.5298145 L93.5354018,73.5298145 Z" id="Combined-Shape"></path>
                    </g>
                </g>
            </g>
        </g>
    </g>
</svg>