<?xml version="1.0" encoding="UTF-8"?>
<svg width="27px" height="26px" viewBox="0 0 27 26" version="1.1" xmlns="http://www.w3.org/2000/svg" xmlns:xlink="http://www.w3.org/1999/xlink">
    <!-- Generator: Sketch 60 (88103) - https://sketch.com -->
    <title>peixun</title>
    <desc>Created with Sketch.</desc>
    <g id="127001" stroke="none" stroke-width="1" fill="none" fill-rule="evenodd">
        <g id="员额法官-人物画像备份" transform="translate(-259.000000, -694.000000)" fill="#FFFFFF" fill-rule="nonzero">
            <g id="编组-33" transform="translate(224.000000, 346.000000)">
                <g id="编组-32" transform="translate(24.000000, 297.000000)">
                    <g id="编组-27" transform="translate(0.000000, 40.000000)">
                        <g id="peixun" transform="translate(11.000000, 11.000000)">
                            <path d="M26.6422261,2.5597083 C26.5229682,2.39380128 26.0459364,1.7538742 25.020318,1.18505014 C23.6369258,0.402917046 21.8480565,0 19.725265,0 C17.5070671,0 15.6943463,0.402917046 14.3348057,1.18505014 C14.0485866,1.35095716 13.7862191,1.54056518 13.5715548,1.7301732 L13.4522968,1.82497721 L13.3330389,1.7301732 C13.094523,1.54056518 12.8321555,1.35095716 12.5459364,1.18505014 C11.1625442,0.402917046 9.37367491,0 7.25088339,0 C5.03268551,0 3.21996466,0.402917046 1.86042403,1.18505014 C0.787102473,1.80127621 0.381625442,2.44120328 0.286219081,2.6308113 C0.119257951,2.93892434 0,3.41294439 0,3.76845943 L0,24.7201459 C0,25.1467639 0.214664311,25.5496809 0.548586572,25.76299 C0.739399293,25.881495 0.954063604,25.952598 1.19257951,25.952598 C1.38339223,25.952598 1.57420495,25.905196 1.74116608,25.834093 C1.97968198,25.715588 4.22173145,24.7675479 7.25088339,24.7675479 C9.23056537,24.7675479 10.590106,25.0282589 11.4010601,25.2652689 C12.0689046,25.4548769 12.4982332,25.644485 12.6890459,25.76299 C12.9275618,25.905196 13.2376325,26 13.5477032,26 C13.7862191,26 14.024735,25.952598 14.2393993,25.857794 C14.4779152,25.739289 16.7438163,24.7912489 19.7491166,24.7912489 C21.7287986,24.7912489 23.0883392,25.0519599 23.8992933,25.2889699 C24.7102473,25.5259799 25.139576,25.739289 25.1872792,25.76299 C25.4019435,25.881495 25.6166078,25.952598 25.8551237,25.952598 C26.0459364,25.952598 26.2367491,25.905196 26.4037102,25.810392 C26.7853357,25.597083 27,25.1941659 27,24.7438469 L27,3.72105743 C27,3.34184139 26.8568905,2.89152233 26.6422261,2.5597083 Z M11.9423077,22.7886718 L11.7086538,22.7201756 C10.8377622,22.4233589 9.35087413,22.0808782 7.26923077,22.0808782 C5.4,22.0808782 3.82814685,22.4690231 2.82980769,22.8115038 L2.59615385,22.88 L2.59615385,3.79240395 L2.59615385,3.7695719 C2.59615385,3.74673985 2.6173951,3.70107574 2.6173951,3.67824369 L2.6173951,3.63257958 L2.63863636,3.60974753 C2.7236014,3.49558727 2.9784965,3.19877058 3.48828671,2.9019539 C4.63531469,2.21699232 6.18592657,2.08 7.26923077,2.08 C8.31005245,2.08 9.79694056,2.21699232 10.986451,2.92478595 C11.559965,3.24443469 11.8361014,3.58691548 11.8998252,3.67824369 L11.9423077,3.72390779 L11.9423077,22.7886718 Z M24.4038462,22.6522542 L24.1701923,22.5838331 C23.2993007,22.2873419 21.8124126,21.9452366 19.7307692,21.9452366 C17.8615385,21.9452366 16.2896853,22.3329559 15.2913462,22.6750612 L15.0576923,22.7434822 L15.0576923,3.63120152 L15.0576923,3.53997345 L15.0789336,3.51716643 L15.0789336,3.49435942 L15.1001748,3.4715524 C15.1851399,3.35751731 15.4187937,3.06102608 15.9498252,2.76453486 C17.0968531,2.10313135 18.647465,1.94348222 19.7307692,1.94348222 C20.7715909,1.94348222 22.258479,2.08032433 23.4479895,2.78734187 C23.979021,3.10664012 24.2551573,3.40313135 24.3613636,3.51716643 L24.3826049,3.53997345 L24.3826049,3.58558749 L24.4038462,3.63120152 L24.4038462,22.6522542 Z" id="形状"></path>
                            <path d="M20,12 C17.9527027,12 17.0202703,13.344 17,13.392 L17,15 C17.0608108,14.952 18.3378378,13.608 20,13.608 C21.7027027,13.608 22.9797297,14.976 23,15 L23,13.392 C22.9797297,13.344 22.0472973,12 20,12 Z" id="路径"></path>
                            <path d="M6.5,17 C4.11148649,17 3.02364865,18.344 3,18.392 L3,20 C3.0472973,19.952 4.53716216,18.608 6.5,18.608 C8.46283784,18.608 9.97635135,19.976 10,20 L10,18.392 C9.9527027,18.344 8.86486486,17 6.5,17 Z" id="路径"></path>
                            <path d="M6.5,6 C4.11148649,6 3.02364865,7.344 3,7.392 L3,9 C3.0472973,8.952 4.53716216,7.608 6.5,7.608 C8.46283784,7.608 9.97635135,8.976 10,9 L10,7.392 C9.97635135,7.32 8.88851351,6 6.5,6 Z" id="路径"></path>
                            <path d="M6.5,12 C4.11148649,12 3.02364865,13.344 3,13.392 L3,15 C3.0472973,14.952 4.53716216,13.608 6.5,13.608 C8.46283784,13.608 9.97635135,14.976 10,15 L10,13.392 C9.97635135,13.344 8.88851351,12 6.5,12 Z" id="路径"></path>
                            <path d="M20,17 C17.9527027,17 17.0202703,18.344 17,18.392 L17,20 C17.0608108,19.952 18.3378378,18.608 20,18.608 C21.7027027,18.608 22.9797297,19.976 23,20 L23,18.392 C22.9797297,18.344 22.0472973,17 20,17 Z" id="路径"></path>
                            <path d="M20,6 C17.9527027,6 17.0202703,7.344 17,7.392 L17,9 C17.0608108,8.952 18.3378378,7.608 20,7.608 C21.7027027,7.608 22.9797297,8.976 23,9 L23,7.392 C22.9797297,7.32 22.0472973,6 20,6 Z" id="路径"></path>
                        </g>
                    </g>
                </g>
            </g>
        </g>
    </g>
</svg>