<?xml version="1.0" encoding="UTF-8"?>
<svg width="14px" height="14px" viewBox="0 0 14 14" version="1.1" xmlns="http://www.w3.org/2000/svg" xmlns:xlink="http://www.w3.org/1999/xlink">
    <!-- Generator: Sketch 63.1 (92452) - https://sketch.com -->
    <title>工作年限</title>
    <desc>Created with Sketch.</desc>
    <g id="127001-人物画像" stroke="none" stroke-width="1" fill="none" fill-rule="evenodd">
        <g id="人物画像备份-8" transform="translate(-908.000000, -284.000000)" fill-rule="nonzero">
            <g id="编组-33" transform="translate(120.000000, 190.000000)">
                <g id="编组-25" transform="translate(168.000000, 24.000000)">
                    <g id="编组-26" transform="translate(0.000000, 34.000000)">
                        <g id="编组-14备份" transform="translate(618.000000, 32.000000)">
                            <g id="编组-10" transform="translate(0.000000, 3.000000)">
                                <g id="工作年限">
                                    <rect id="矩形" fill="#000000" opacity="0" x="0" y="0" width="18" height="18"></rect>
                                    <path d="M9,1.11566391 C9.90560166,1.11566391 10.7925311,1.29304979 11.623444,1.64782158 C12.4263486,1.99325726 13.1545643,2.47873444 13.7707469,3.09491701 C14.3869295,3.72043568 14.8817427,4.43931534 15.2178423,5.24221991 C15.563278,6.08246888 15.7406639,6.96939834 15.7406639,7.875 C15.7406639,8.78060166 15.563278,9.66753111 15.2085062,10.498444 C14.8630705,11.3013486 14.3775934,12.0295643 13.7614108,12.6457469 C13.1358921,13.2619295 12.4170125,13.7567427 11.6141079,14.0928423 C10.783195,14.4476141 9.89626558,14.625 8.99066391,14.625 C8.08506223,14.625 7.19813278,14.4476141 6.36721991,14.0928423 C5.56431536,13.7474066 4.83609959,13.2619295 4.21991701,12.6457469 C3.60373446,12.0202282 3.10892117,11.3013486 2.77282158,10.498444 C2.41804979,9.66753113 2.24066391,8.78060166 2.24066391,7.875 C2.24066391,6.96939834 2.41804979,6.08246889 2.77282158,5.25155602 C3.11825726,4.44865145 3.60373444,3.72043568 4.21991701,3.10425311 C4.84543568,2.48807055 5.56431534,1.99325726 6.36721991,1.65715768 C7.20746888,1.3023859 8.09439834,1.11566391 9,1.11566391 Z M9,2.27334025 C5.91908713,2.27334025 3.40767635,4.78475104 3.40767635,7.86566391 C3.40767635,10.9465768 5.91908713,13.4579876 9,13.4579876 C12.0809129,13.4579876 14.5923237,10.9465768 14.5923237,7.86566391 C14.5923237,4.78475104 12.0809129,2.27334025 9,2.27334025 Z M8.813278,3.84180499 C9.12136929,3.84180499 9.36410788,4.08454356 9.36410788,4.39263485 L9.36410788,4.39263485 L9.37344398,4.39263485 L9.37344398,7.50155602 L12.4823651,7.50155602 C12.7904564,7.501556 13.033195,7.7442946 13.033195,8.05238589 C13.033195,8.36047717 12.7904564,8.60321577 12.4823651,8.60321577 L12.4823651,8.60321577 L8.96265561,8.60321577 C8.93464731,8.60321577 8.90663901,8.59387968 8.8879668,8.59387968 C8.85995851,8.60321577 8.8412863,8.60321577 8.813278,8.60321577 C8.50518673,8.60321577 8.26244814,8.36047717 8.26244814,8.05238589 L8.26244814,8.05238589 L8.26244814,4.39263485 C8.26244814,4.08454358 8.50518671,3.84180499 8.813278,3.84180499 Z" id="形状结合" fill="#5D6573"></path>
                                </g>
                            </g>
                        </g>
                    </g>
                </g>
            </g>
        </g>
    </g>
</svg>