<?xml version="1.0" encoding="UTF-8"?>
<svg width="92px" height="104px" viewBox="0 0 92 104" version="1.1" xmlns="http://www.w3.org/2000/svg" xmlns:xlink="http://www.w3.org/1999/xlink">
    <!-- Generator: Sketch 50 (54983) - http://www.bohemiancoding.com/sketch -->
    <title>虚假投诉</title>
    <desc>Created with Sketch.</desc>
    <defs></defs>
    <g id="06-05需求增加" stroke="none" stroke-width="1" fill="none" fill-rule="evenodd">
        <g id="首页工作台" transform="translate(-338.000000, -260.000000)" fill="#E1678B" fill-rule="nonzero">
            <g id="虚假诉讼" transform="translate(120.000000, 248.000000)">
                <g id="icon" transform="translate(192.000000, 0.000000)">
                    <g id="虚假投诉" transform="translate(26.000000, 12.000000)">
                        <path d="M50.2293105,94.4178524 C48.3116507,95.4610688 46.9300518,95.9326304 45.7745588,95.9326304 C44.6012688,95.9326304 43.2675666,95.4694299 41.3195683,94.3873944 C7.54928775,75.6405535 7.6614448,65.353154 8.0769876,27.0894222 C8.1161649,23.4006595 8.16430056,19.4777881 8.17290046,15.2866475 C13.3158835,13.7633891 18.7971296,12.329713 24.507587,11.0183466 C30.907112,9.54190989 38.0201903,8.58445367 45.6447242,8.17751078 C60.0015516,9.77960171 71.080262,11.8837122 82.9954326,15.3131639 C83.0213517,20.0708233 83.0820289,24.474095 83.1380477,28.56992 C83.6839029,67.9643007 83.7919989,76.1553534 50.2293105,94.4178524 Z M91.0611895,28.4569268 C90.9960929,23.5345552 90.9183355,18.1615247 90.9097356,12.2695137 C90.9050773,10.4851525 89.7497037,8.91411675 88.069497,8.40278062 C74.4704168,4.30301401 62.3346347,1.9002957 46.1854433,0.111873419 C45.9783289,0.090134734 45.7699007,0.0860737149 45.557889,0.090134734 C37.3575197,0.518816198 29.6862835,1.54077179 22.7541616,3.13820444 C15.8096175,4.74041478 9.18147846,6.51545947 3.06801984,8.40755831 C1.40119072,8.92283606 0.258478168,10.4899301 0.258478168,12.2697525 C0.258478168,17.5818671 0.201623201,22.4653002 0.153845998,26.9937482 C-0.270057769,65.855293 -0.430111551,80.403349 37.526532,101.474792 C40.6786367,103.21484 43.219909,103.998985 45.7699008,103.998985 C48.2980344,103.998985 50.8270042,103.241118 53.9619091,101.539292 C91.7756984,80.9615068 91.6115835,68.7865473 91.0611895,28.4569268 Z M45.6226272,18.2482405 C42.341524,18.2482405 39.6784195,20.9628249 39.6784195,24.301022 L39.6784195,55.382279 C39.6784195,58.7251344 42.341524,61.434941 45.6226272,61.434941 C48.9087471,61.434941 51.5670738,58.720715 51.5670738,55.382279 L51.5670738,24.3055608 C51.5670738,20.9587638 48.9002666,18.2482405 45.6226272,18.2482405 Z M45.6272855,69.501534 C42.3452266,69.501534 39.6829583,72.2075185 39.6829583,75.554196 C39.6829583,78.8962153 42.3452266,81.6061414 45.6272855,81.6061414 C48.913286,81.6061414 51.5670738,78.8916764 51.5670738,75.554196 C51.5670738,72.2075185 48.9048055,69.501534 45.6272855,69.501534 Z" id="Shape"></path>
                    </g>
                </g>
            </g>
        </g>
    </g>
</svg>