<?xml version="1.0" encoding="UTF-8"?>
<svg width="8px" height="16px" viewBox="0 0 8 16" version="1.1" xmlns="http://www.w3.org/2000/svg" xmlns:xlink="http://www.w3.org/1999/xlink">
    <!-- Generator: Sketch 63.1 (92452) - https://sketch.com -->
    <title>职务管理</title>
    <desc>Created with Sketch.</desc>
    <g id="127001-人物画像" stroke="none" stroke-width="1" fill="none" fill-rule="evenodd">
        <g id="人物画像备份-8" transform="translate(-293.000000, -284.000000)" fill-rule="nonzero">
            <g id="编组-33" transform="translate(120.000000, 190.000000)">
                <g id="编组-25" transform="translate(168.000000, 24.000000)">
                    <g id="编组-26" transform="translate(0.000000, 34.000000)">
                        <g id="编组-11备份-2" transform="translate(0.000000, 32.000000)">
                            <g id="编组-7" transform="translate(0.000000, 3.000000)">
                                <g id="职务管理">
                                    <rect id="矩形" fill="#000000" opacity="0" x="0" y="0" width="18" height="18"></rect>
                                    <path d="M5.95239499,1.5 C5.84577666,1.5 5.82230839,1.83783774 5.73394435,2.22696679 L7.0836066,4.04587653 C7.28185729,4.31294706 7.6826838,4.5 8.03187348,4.5 L9.96817341,4.5 C10.3066649,4.5 10.6936594,4.32427302 10.8975708,4.07017108 L12.2358137,1.61555791 C12.0780799,1.60964901 11.8314978,1.61579658 11.4584504,1.59242282 C10.4954327,1.53208376 8.83903413,1.5 5.95239499,1.5 Z" id="路径" stroke="#5D6573"></path>
                                    <path d="M8.07478133,5.63301029 C7.96848282,5.70348299 7.87856974,5.79766696 7.84106002,5.91176877 L5.5226126,12.9642981 C5.48830611,13.0687071 5.49469354,13.1873398 5.52498846,13.2990359 C5.55748819,13.418861 5.61924432,13.5336794 5.70910611,13.6184306 L8.60927649,16.3534983 C8.71068865,16.4490814 8.85417237,16.5 8.99996457,16.5 C9.14582845,16.5 9.28929352,16.4490883 9.39081903,16.3533983 L12.2910013,13.6184143 C12.3808314,13.5336984 12.4425445,13.4189184 12.475022,13.2991374 C12.5053185,13.1874 12.5116848,13.0687231 12.4773489,12.964213 L10.1590676,5.91176059 C10.1206722,5.79495647 10.0072587,5.71937756 9.82780656,5.65566417 C9.53800063,5.55277031 9.11496066,5.5 8.07478133,5.63301029 Z" id="路径" stroke="#5D6573"></path>
                                </g>
                            </g>
                        </g>
                    </g>
                </g>
            </g>
        </g>
    </g>
</svg>