<?xml version="1.0" encoding="UTF-8"?>
<svg width="102px" height="102px" viewBox="0 0 102 102" version="1.1" xmlns="http://www.w3.org/2000/svg" xmlns:xlink="http://www.w3.org/1999/xlink">
    <!-- Generator: Sketch 50 (54983) - http://www.bohemiancoding.com/sketch -->
    <title>线索</title>
    <desc>Created with Sketch.</desc>
    <defs></defs>
    <g id="06-05需求增加" stroke="none" stroke-width="1" fill="none" fill-rule="evenodd">
        <g id="首页工作台" transform="translate(-693.000000, -107.000000)" fill="#2CB75D" fill-rule="nonzero">
            <g id="线索" transform="translate(480.000000, 92.000000)">
                <g id="icon" transform="translate(192.000000, 0.000000)">
                    <g id="线索" transform="translate(21.000000, 15.000000)">
                        <path d="M93.4506696,46.7310268 C91.4470982,26.5700893 75.4185268,10.5415179 55.2689732,8.53794643 L55.2689732,0 C80.1428571,2.06049107 99.9508929,21.8571429 102,46.7196429 L93.4506696,46.7196429 L93.4506696,46.7310268 Z M34.5388393,46.7310268 L25.7845982,46.7310268 C27.5946429,36.0415179 36.0301339,27.6287946 46.7310268,25.8301339 L46.7310268,34.5388393 C40.7544643,36.0870536 36.0870536,40.7772321 34.5388393,46.7310268 Z M8.54933036,46.7310268 L0,46.7310268 C2.06049107,21.8685268 21.8685268,2.071875 46.7310268,0.0113839286 L46.7310268,8.54933036 C26.5700893,10.5415179 10.5529018,26.5700893 8.54933036,46.7310268 Z M8.54933036,55.2689732 C10.5529018,75.4299107 26.5814732,91.4584821 46.7310268,93.4620536 L46.7310268,102 C21.8685268,99.928125 2.06049107,80.1314732 0,55.2689732 L8.54933036,55.2689732 Z M46.7310268,67.4611607 L46.7310268,76.1698661 C36.0301339,74.3598214 27.5832589,65.9584821 25.7845982,55.2689732 L34.5388393,55.2689732 C36.0870536,61.2227679 40.7544643,65.9129464 46.7310268,67.4611607 Z M67.4611607,55.2689732 L76.2154018,55.2689732 C74.4053571,65.9584821 65.9698661,74.3712054 55.2689732,76.1698661 L55.2689732,67.4611607 C61.2455357,65.9129464 65.9129464,61.2227679 67.4611607,55.2689732 Z M76.2154018,46.7310268 L67.4611607,46.7310268 C65.9129464,40.7772321 61.2455357,36.0870536 55.2689732,34.5388393 L55.2689732,25.8301339 C65.9698661,27.6287946 74.4053571,36.0415179 76.2154018,46.7310268 Z M93.4506696,55.2689732 L102,55.2689732 C99.9395089,80.1314732 80.1314732,99.9395089 55.2689732,101.988616 L55.2689732,93.4506696 C75.4299107,91.4584821 91.4470982,75.4299107 93.4506696,55.2689732 Z" id="Shape"></path>
                    </g>
                </g>
            </g>
        </g>
    </g>
</svg>