<?xml version="1.0" encoding="UTF-8"?>
<svg width="14px" height="16px" viewBox="0 0 14 16" version="1.1" xmlns="http://www.w3.org/2000/svg" xmlns:xlink="http://www.w3.org/1999/xlink">
    <!-- Generator: Sketch 63.1 (92452) - https://sketch.com -->
    <title>等级</title>
    <desc>Created with Sketch.</desc>
    <g id="127001-人物画像" stroke="none" stroke-width="1" fill="none" fill-rule="evenodd">
        <g id="人物画像备份-7" transform="translate(-496.000000, -284.000000)">
            <g id="编组-33" transform="translate(120.000000, 190.000000)">
                <g id="编组-25" transform="translate(168.000000, 24.000000)">
                    <g id="编组-26" transform="translate(0.000000, 34.000000)">
                        <g id="编组-12备份" transform="translate(206.000000, 32.000000)">
                            <g id="编组-8" transform="translate(0.000000, 3.000000)">
                                <g id="等级">
                                    <rect id="矩形" fill="#000000" fill-rule="nonzero" opacity="0" x="0" y="0" width="18" height="18"></rect>
                                    <g transform="translate(2.000000, 1.000000)">
                                        <path d="M11.7192236,0.5 L1.79570516,1.12126781 L2.78077641,3.5 L11.7042948,3.12126781 L11.7192236,0.5 Z" id="矩形" stroke="#5D6573"></path>
                                        <path d="M7,2 C3.14285714,2 0,5.14285714 0,9 C0,12.8571429 3.14285714,16 7,16 C10.8571429,16 14,12.8571429 14,9 C14,5.14285714 10.8571429,2 7,2 Z" id="路径" fill="#FFFFFF" fill-rule="nonzero"></path>
                                        <path d="M7,3.5 C5.48469388,3.5 4.10987018,4.11764477 3.11375747,5.11375747 C2.11764477,6.10987018 1.5,7.48469388 1.5,9 C1.5,10.5153061 2.11764477,11.8901298 3.11375747,12.8862425 C4.10987018,13.8823552 5.48469388,14.5 7,14.5 C8.51530612,14.5 9.89012982,13.8823552 10.8862425,12.8862425 C11.8823552,11.8901298 12.5,10.5153061 12.5,9 C12.5,7.48469388 11.8823552,6.10987018 10.8862425,5.11375747 C9.89012982,4.11764477 8.51530612,3.5 7,3.5 Z" id="路径" stroke="#5D6573" fill-rule="nonzero"></path>
                                        <path d="M7,10.5 L5.41599146,11.3327626 C5.367107,11.3584627 5.30664428,11.339668 5.2809442,11.2907835 C5.2707103,11.2713175 5.26717883,11.2490207 5.27089651,11.2273449 L5.57341523,9.46352549 L5.57341523,9.46352549 L4.2919254,8.21438163 C4.25237704,8.17583151 4.25156781,8.11252019 4.29011793,8.07297183 C4.30546879,8.05722346 4.32558303,8.04697475 4.34734673,8.0438123 L6.11832212,7.78647451 L6.11832212,7.78647451 L6.91032639,6.18169858 C6.93476862,6.13217321 6.99473121,6.11183931 7.04425657,6.13628154 C7.06397783,6.14601456 7.07994058,6.16197731 7.08967361,6.18169858 L7.88167788,7.78647451 L7.88167788,7.78647451 L9.65265327,8.0438123 C9.70730775,8.05175406 9.7451759,8.10249834 9.73723414,8.15715283 C9.73407169,8.17891653 9.72382297,8.19903077 9.7080746,8.21438163 L8.42658477,9.46352549 L8.42658477,9.46352549 L8.72910349,11.2273449 C8.73843959,11.2817786 8.7018808,11.3334742 8.64744716,11.3428103 C8.6257714,11.3465279 8.60347459,11.3429965 8.58400854,11.3327626 L7,10.5 L7,10.5 Z" id="星形" stroke="#5D6573" stroke-width="0.8"></path>
                                    </g>
                                </g>
                            </g>
                        </g>
                    </g>
                </g>
            </g>
        </g>
    </g>
</svg>