<?xml version="1.0" encoding="UTF-8"?>
<svg width="15px" height="13px" viewBox="0 0 15 13" version="1.1" xmlns="http://www.w3.org/2000/svg" xmlns:xlink="http://www.w3.org/1999/xlink">
    <!-- Generator: Sketch 63.1 (92452) - https://sketch.com -->
    <title>等级</title>
    <desc>Created with Sketch.</desc>
    <g id="127001-人物画像" stroke="none" stroke-width="1" fill="none" fill-rule="evenodd">
        <g id="人物画像备份-7" transform="translate(-908.000000, -254.000000)">
            <g id="编组-33" transform="translate(120.000000, 190.000000)">
                <g id="编组-25" transform="translate(168.000000, 24.000000)">
                    <g id="编组-26" transform="translate(0.000000, 34.000000)">
                        <g id="编组-12" transform="translate(618.000000, 0.000000)">
                            <g id="编组-8" transform="translate(0.000000, 3.000000)">
                                <g id="等级">
                                    <rect id="矩形" fill="#000000" fill-rule="nonzero" opacity="0" x="0" y="0" width="18" height="18"></rect>
                                    <path d="M15.8666667,16 L2.99047619,16 C2.4434513,16 2,15.5522847 2,15 L2,4 C2,3.44771525 2.4434513,3 2.99047619,3 L15.8666667,3 C16.4136916,3 16.8571429,3.44771525 16.8571429,4 L16.8571429,15 C16.8571429,15.5522847 16.4136916,16 15.8666667,16 Z M15.9285714,3.92857143 L2.92857143,3.92857143 L2.92857143,15.0714286 L15.9285714,15.0714286 L15.9285714,3.92857143 Z" id="形状" fill="#5D6573" fill-rule="nonzero"></path>
                                    <path d="M9.5,12.25 L7.03431358,13.5462881 C6.98542912,13.5719881 6.92496641,13.5531935 6.89926633,13.504309 C6.88903242,13.484843 6.88550095,13.4625462 6.88921863,13.4408704 L7.36012284,10.6952882 L7.36012284,10.6952882 L5.36534062,8.75085614 C5.32579226,8.71230602 5.32498303,8.64899469 5.36353315,8.60944634 C5.37888402,8.59369797 5.39899826,8.58344926 5.42076196,8.5802868 L8.17748318,8.17971176 L8.17748318,8.17971176 L9.41032639,5.68169858 C9.43476862,5.63217321 9.49473121,5.61183931 9.54425657,5.63628154 C9.56397783,5.64601456 9.57994058,5.66197731 9.58967361,5.68169858 L10.8225168,8.17971176 L10.8225168,8.17971176 L13.579238,8.5802868 C13.6338925,8.58822857 13.6717607,8.63897285 13.6638189,8.69362734 C13.6606565,8.71539104 13.6504077,8.73550528 13.6346594,8.75085614 L11.6398772,10.6952882 L11.6398772,10.6952882 L12.1107814,13.4408704 C12.1201175,13.4953041 12.0835587,13.5469997 12.029125,13.5563358 C12.0074493,13.5600534 11.9851525,13.556522 11.9656864,13.5462881 L9.5,12.25 L9.5,12.25 Z" id="星形" stroke="#5D6573"></path>
                                </g>
                            </g>
                        </g>
                    </g>
                </g>
            </g>
        </g>
    </g>
</svg>