<?xml version="1.0" encoding="UTF-8"?>
<svg width="36px" height="36px" viewBox="0 0 36 36" version="1.1" xmlns="http://www.w3.org/2000/svg" xmlns:xlink="http://www.w3.org/1999/xlink">
    <!-- Generator: Sketch 52.5 (67469) - http://www.bohemiancoding.com/sketch -->
    <title>法院</title>
    <desc>Created with Sketch.</desc>
    <g id="领导工作台" stroke="none" stroke-width="1" fill="none" fill-rule="evenodd">
        <g id="队伍概况大屏-" transform="translate(-62.000000, -196.000000)" fill="#00D1F7" fill-rule="nonzero">
            <g id="分组-15">
                <g id="button-group" transform="translate(31.000000, 176.000000)">
                    <g id="分组" transform="translate(23.000000, 13.000000)">
                        <g id="法院" transform="translate(8.000000, 7.000000)">
                            <path d="M7.199801,27.6916493 L7.199801,16.6168448 C7.99376555,16.6143778 8.63676404,15.9960257 8.63932937,15.2324942 L8.63932937,13.8481437 L1.44168761,13.8481437 L1.44168761,15.2324942 C1.44168761,15.9943365 2.089008,16.6168448 2.88121598,16.6168448 L2.88121598,27.6938966 L7.199801,27.6938966 L7.199801,27.6916493 Z M15.839308,27.6916493 L15.839308,16.6168448 C16.6332726,16.6143778 17.276271,15.9960257 17.2788364,15.2324942 L17.2788364,13.8481437 L10.0811946,13.8481437 L10.0811946,15.2324942 C10.0811946,15.9943365 10.7261781,16.6168448 11.520723,16.6168448 L11.520723,27.6938966 L15.839308,27.6938966 L15.839308,27.6916493 Z M24.478815,27.6916493 L24.478815,16.6168448 C25.2727795,16.6143778 25.915778,15.9960257 25.9183433,15.2324942 L25.9183433,13.8481437 L18.7207016,13.8481437 L18.7207016,15.2324942 C18.7207016,15.9943365 19.368022,16.6168448 20.16023,16.6168448 L20.16023,27.6938966 L24.478815,27.6938966 L24.478815,27.6916493 Z M33.118322,27.6916493 L33.118322,16.6168448 C33.9128669,16.6168448 34.5578504,15.9943365 34.5578504,15.2324942 L34.5578504,13.8481437 L27.3625455,13.8481437 L27.3625455,15.2324942 C27.3625455,15.9943365 28.007529,16.6168448 28.8020739,16.6168448 L28.8020739,27.6938966 L33.118322,27.6938966 L33.118322,27.6916493 Z M34.5578504,31.8469483 L33.118322,31.8469483 L33.118322,29.0782472 L2.88121598,29.0782472 L2.88121598,31.8469483 L1.44168761,31.8469483 C0.647191609,31.8481856 0.00344591057,32.4672563 0.0021592769,33.2312989 L0.0021592769,34.6156494 C0.0021592769,35.3774917 0.647142774,36 1.44168761,36 L34.5578504,36 C35.3523952,36 35.9973787,35.3774917 35.9973787,34.6156494 L35.9973787,33.2312989 C35.9973787,32.4667432 35.3528799,31.8469483 34.5578504,31.8469483 Z M1.3856021,12.4615458 L34.6162728,12.4615458 C34.9906461,12.4544641 35.3467519,12.3046171 35.6062135,12.0449853 C35.8656751,11.7853535 36.0072273,11.4372158 35.9997156,11.0771952 C36.0072224,10.5214871 35.667328,10.0156861 35.1374007,9.79397412 L18.6856482,0.188918416 C18.2574883,-0.0629728054 17.7186807,-0.0629728054 17.2905209,0.188918416 L0.686869992,9.87937238 C0.143097541,10.2086015 -0.115278425,10.8393389 0.0488972104,11.4367668 C0.212479978,12.0412965 0.761650679,12.4615458 1.3856021,12.4615458 Z M17.9986005,4.63861667 C19.7073978,4.63737551 21.093698,5.96852584 21.0949886,7.61182414 C21.0962793,9.25512245 19.7120716,10.5882851 18.0032743,10.5895263 C16.2944771,10.5907674 14.9081769,9.25961707 14.9068863,7.61631878 C14.9055956,5.97302049 16.2898033,4.63985785 17.9986005,4.63861667 Z" id="形状"></path>
                        </g>
                    </g>
                </g>
            </g>
        </g>
    </g>
</svg>