<?xml version="1.0" encoding="UTF-8"?>
<svg width="36px" height="36px" viewBox="0 0 36 36" version="1.1" xmlns="http://www.w3.org/2000/svg" xmlns:xlink="http://www.w3.org/1999/xlink">
    <!-- Generator: Sketch 52.5 (67469) - http://www.bohemiancoding.com/sketch -->
    <title>部门</title>
    <desc>Created with Sketch.</desc>
    <g id="二期二版" stroke="none" stroke-width="1" fill="none" fill-rule="evenodd">
        <g id="队伍概况大屏-" transform="translate(-562.000000, -196.000000)" fill="#F3BF56">
            <g id="分组-15">
                <g id="button-group" transform="translate(31.000000, 176.000000)">
                    <g id="分组" transform="translate(23.000000, 13.000000)">
                        <g id="部门" transform="translate(508.000000, 7.000000)">
                            <path d="M27,9.76153847 C27,10.3846154 26.4,10.8 25.5,10.8 L10.5,10.8 C9.59999998,10.8 9,10.3846154 9,9.76153847 L9,1.24615385 C9,0.623076925 9.59999998,0 10.5,0 L25.5,0 C26.4,0 27,0.623076925 27,1.24615385 L27,9.76153847 Z" id="路径"></path>
                            <path d="M23.4,34.9038542 C23.4,35.5367143 23.04,35.958621 22.5,35.958621 L13.5,35.958621 C12.96,36.1695744 12.6,35.5367143 12.6,34.9038542 L12.6,26.2547668 C12.6,25.6219067 12.96,25.2 13.5,25.2 L22.5,25.2 C23.04,25.2 23.4,25.6219067 23.4,26.2547668 L23.4,34.9038542 Z" id="路径"></path>
                            <path d="M36,34.9411765 C36,35.5764706 35.64,36 35.1,36 L26.1,36 C25.56,36 25.2,35.5764706 25.2,34.9411765 L25.2,26.2588235 C25.2,25.6235294 25.56,25.2 26.1,25.2 L35.1,25.2 C35.64,25.2 36,25.6235294 36,26.2588235 L36,34.9411765 Z" id="路径"></path>
                            <path d="M10.8,34.7538462 C10.8,35.3769231 10.44,36 9.90000001,36 L0.900000028,36 C0.359999986,36 0,35.3769231 0,34.7538462 L0,26.2384615 C0,25.6153846 0.359999986,25.2 0.899999986,25.2 L9.89999997,25.2 C10.44,25.2 10.8,25.6153846 10.8,26.2384615 L10.8,34.7538462 Z" id="路径"></path>
                            <polygon id="路径" points="19.3525046 13.7647059 19.3525046 10.5882353 16.6474954 10.5882353 16.6474954 13.7647059 3.27272727 13.7647059 3.27272727 17.7882353 3.27272727 18 3.27272727 23.2941176 5.82745825 23.2941176 5.82745825 18 16.6474954 18 16.6474954 23.2941176 19.3525046 23.2941176 19.3525046 18 30.0222634 18 30.0222634 23.2941176 32.7272727 23.2941176 32.7272727 18 32.7272727 17.7882353 32.7272727 13.7647058"></polygon>
                        </g>
                    </g>
                </g>
            </g>
        </g>
    </g>
</svg>