<?xml version="1.0" encoding="UTF-8"?>
<svg width="100px" height="100px" viewBox="0 0 100 100" version="1.1" xmlns="http://www.w3.org/2000/svg" xmlns:xlink="http://www.w3.org/1999/xlink">
    <!-- Generator: Sketch 49.3 (51167) - http://www.bohemiancoding.com/sketch -->
    <title>默认头像</title>
    <desc>Created with Sketch.</desc>
    <defs></defs>
    <g id="Page-1" stroke="none" stroke-width="1" fill="none" fill-rule="evenodd">
        <g id="系统管理-首页-copy-3" transform="translate(-288.000000, -108.000000)" fill-rule="nonzero">
            <g id="头像模块" transform="translate(264.000000, 84.000000)">
                <g id="默认头像" transform="translate(24.000000, 24.000000)">
                    <path d="M3.17348252e-15,50 C3.17348252e-15,77.6142375 22.3857625,100 50,100 C77.6142375,100 100,77.6142375 100,50 C100,22.3857625 77.6142375,7.93370629e-16 50,0 C22.3857625,-1.58674126e-15 3.17348252e-15,22.3857625 3.17348252e-15,50 Z" id="Shape" fill="#DEF2FF"></path>
                    <path d="M76.0756814,71.0810248 C76.0756814,71.0810248 69.3944425,67.6580074 64.1819719,65.8581629 C59.0909783,64.0914443 32.9734083,66.0348347 32.9734083,66.0348347 C32.9734083,66.0348347 22.4822068,69.6786919 21.0465687,71.1141507 C21.0465687,71.1141507 18.0317287,78.2583191 15.1162791,85.4797814 C24.0724521,94.4458784 36.4520699,100 50.1237619,100 C62.5365098,100 73.8780507,95.4286156 82.5581395,87.8758935 C80.6697233,82.0678061 78.3064421,75.4536533 76.0756814,71.0810248 Z" id="Shape" fill="#1B95E7"></path>
                    <path d="M49.6487403,97.9996809 L45.4699612,97.9996809 C54.8304264,97.9996809 43.9656008,96.6033727 43.9656008,95.8541342 L34.8837209,83.7755007 L34.8837209,66.8041124 C34.8837209,66.0548738 35.4854651,65.4418605 36.2209302,65.4418605 L60.2906977,65.4418605 C61.0261628,65.4418605 61.627907,66.0548738 61.627907,66.8041124 L61.627907,82.1975589 L52.4123062,94.4464739 C51.7437016,95.3319376 49.8158915,98.0337372 49.6487403,97.9996809 Z" id="Shape" fill="#D5E1EC"></path>
                    <path d="M58.1395349,63.3274751 C58.1395349,72.9390608 53.820598,77.9069767 48.3610188,77.9069767 C42.9014396,77.9069767 38.372093,72.9390608 38.372093,63.3274751 C38.372093,60.7566654 39.213732,58.1395349 39.213732,58.1395349 C39.213732,58.1395349 44.1528239,62.7716244 48.1506091,62.7716244 C52.1705426,62.7716244 57.3089701,58.1395349 57.3089701,58.1395349 C57.3089701,58.1395349 58.1395349,60.5019005 58.1395349,63.3274751 Z" id="Shape" fill="#DFEBF5"></path>
                    <polygon id="Shape" fill="#FFBF00" points="47.0132758 67.4418605 42.0232558 74.9002627 45.5182658 78.2264604 42.2901639 85.4805229 47.6071114 100 48.8372093 100 48.8372093 67.5213259"></polygon>
                    <path d="M47.8372093,67.3838325 L40.8802778,77.9069767 C40.8802778,77.9069767 35.3169101,69.2251038 38.2020225,60.4651163 C38.2020225,60.4651163 41.9581123,67.2722403 47.8372093,67.3838325 Z" id="Shape" fill="#FFFFFF"></path>
                    <path d="M39.5066817,58.1395349 C39.5066817,58.1395349 35.8729608,64.7585939 40.211732,78.3355715 C40.211732,78.3355715 46.3077057,94.2393855 47.6744186,100 L46.1775425,100 L30.2325581,78.3355715 L34.7340333,75.026042 L31.1003124,71.1517464 C31.1003124,71.1517464 31.8053627,62.2623276 39.5066817,58.1395349 Z" id="Shape" fill="#64C1FF"></path>
                    <polygon id="Shape" fill="#FFBF00" points="49.5082924 67.4418605 54.4883721 74.9002627 51.9983323 78.2264604 54.2219957 85.4805229 49.9136477 100 48.6744186 100 48.6744186 67.5213259"></polygon>
                    <path d="M39.5348837,58.5340415 C39.5348837,58.5340415 43.8712654,65.6273352 49.0495509,66.2127041 C49.0495509,66.2127041 53.639657,66.7521617 56.6728176,64.7550208 C56.6728176,64.7550208 57.8145776,64.2614744 59.3023256,61.7363537 C59.3023256,61.7363537 58.9794035,59.4178337 58.3450924,58.5684749 C56.7881469,56.4565558 54.0087108,62.8267467 48.9111557,62.8841359 C48.9111557,62.8841359 42.5449784,62.7234463 39.5348837,58.5340415 Z" id="Shape" fill="#D5E1EC"></path>
                    <path d="M48.8372093,67.3838325 L55.7941408,77.9069767 C55.7941408,77.9069767 61.3575085,69.2251038 58.4723961,60.4651163 C58.4723961,60.4651163 54.7163063,67.2722403 48.8372093,67.3838325 Z" id="Shape" fill="#FFFFFF"></path>
                    <path d="M57.2110378,58.1395349 C57.2110378,58.1395349 60.0854738,64.9945372 56.2998959,78.4460746 C56.2998959,78.4460746 50.2039222,94.2687685 48.8372093,100 L50.3340854,100 L66.2790698,78.4460746 L61.7775946,75.1534259 L65.4113155,71.2988918 C65.4113155,71.2988918 64.9123568,62.2412986 57.2110378,58.1395349 Z" id="Shape" fill="#64C1FF"></path>
                    <path d="M64.4560749,40.5687943 C63.4925291,40.3687044 62.3954911,41.0639817 61.57826,42.3926868 C60.761029,43.7213918 60.3477818,45.4816301 60.4942058,47.0102475 C60.6406297,48.5388649 61.3244758,49.6035906 62.2881112,49.8032987 C63.2516569,50.0033886 64.348695,49.3081113 65.165926,47.9794063 C65.983157,46.6507013 66.3964042,44.8904629 66.2499803,43.3618455 C66.1035564,41.8332282 65.4197102,40.7685024 64.4560749,40.5687943 Z" id="Shape" fill="#F8FCFF"></path>
                    <path d="M63.6592351,41.7272172 C62.8885585,41.5525243 62.0108481,42.1612215 61.3567526,43.324002 C60.702657,44.4867825 60.3715574,46.0269774 60.4881846,47.3643689 C60.6048117,48.7017604 61.1514457,49.6331497 61.9221602,49.8076666 C62.6928369,49.9823594 63.5705472,49.3736623 64.2246428,48.2108817 C64.8787383,47.0481012 65.2098379,45.5079064 65.0932108,44.1705149 C64.9765836,42.8331234 64.4299496,41.901734 63.6592351,41.7272172 Z" id="Shape" fill="#D5E1EC"></path>
                    <path d="M34.2235167,49.8032987 C35.1871521,49.6035906 35.8709982,48.5388649 36.0174221,47.0102475 C36.1638461,45.4816301 35.7505989,43.7213918 34.9333679,42.3926868 C34.1161369,41.0639817 33.0190988,40.3687044 32.0555531,40.5687943 C31.0919177,40.7685024 30.4080715,41.8332282 30.2616476,43.3618455 C30.1152237,44.8904629 30.5284709,46.6507013 31.3457019,47.9794063 C32.1629329,49.3081113 33.259971,50.0033886 34.2235167,49.8032987 Z" id="Shape" fill="#F8FCFF"></path>
                    <path d="M34.5894677,49.8076666 C35.3601822,49.6331497 35.9068162,48.7017604 36.0234433,47.3643689 C36.1400705,46.0269774 35.8089709,44.4867825 35.1548753,43.324002 C34.5007798,42.1612215 33.6230694,41.5525243 32.8523928,41.7272172 C32.0816783,41.901734 31.5350443,42.8331234 31.4184171,44.1705149 C31.30179,45.5079064 31.6328896,47.0481012 32.2869851,48.2108817 C32.9410807,49.3736623 33.818791,49.9823594 34.5894677,49.8076666 Z" id="Shape" fill="#D5E1EC"></path>
                    <path d="M62.7906977,45.7705555 C62.7906977,55.0738526 56.5410446,62.627907 48.8372093,62.627907 C41.133374,62.627907 34.8837209,55.0849942 34.8837209,45.7705555 C34.8837209,42.13837 35.4609535,38.5284679 36.6487207,35.5647828 C39.6125881,28.2335619 44.1305434,28.9243456 48.8372093,28.9243456 C56.5410446,28.9243456 62.7906977,36.4672584 62.7906977,45.7705555 Z" id="Shape" fill="#F8FCFF"></path>
                    <path d="M34.9393544,39.2822142 C34.9393544,39.2822142 37.2102422,33.6618295 40.6278159,30.779581 C40.6278159,30.779581 42.9998819,35.2914085 48.5759232,35.8789438 C48.5759232,35.8789438 54.7028234,35.7348314 61.627907,40.5348837 C61.627907,40.5348837 61.5042448,34.4710762 53.7809779,33.2960057 C53.7809779,33.2960057 45.3831899,33.1518933 41.3810312,29.0834886 C41.3810312,29.0834886 39.3574678,28.1633862 38.1208457,30.5246129 C38.1096037,30.5246129 34.3884955,36.0008851 34.9393544,39.2822142 Z" id="Shape" fill="#DFEBF5"></path>
                    <path d="M35.9499846,46.7069798 C35.9499846,46.7069798 35.9722022,42.1299862 35.3056724,39.2152839 C35.3056724,39.2152839 36.4165554,33.3744936 40.9378496,29.1618379 C40.9378496,29.1618379 44.4149136,33.5225058 48.5696164,34.2056392 C48.5696164,34.2056392 57.3122662,34.2056392 61.6780367,40.5018517 C61.6780367,40.5018517 61.3892071,42.3690829 61.3225541,42.9952885 C61.1225952,44.828363 61.5447308,46.7069798 61.5447308,46.7069798 C61.5447308,46.7069798 61.4336424,42.4032396 62.6000697,41.3557684 C64.1775237,39.9325739 65.3772774,41.6517929 65.3772774,41.6517929 C65.3772774,41.6517929 67.1991256,35.7654604 65.1217743,29.4806334 C65.1217743,29.4806334 60.7893303,17.7990529 48.5696164,18.8692951 C48.5696164,18.8692951 43.537316,19.1994763 39.79364,22.1711064 C39.79364,22.1711064 34.9390809,25.0174954 34.3503129,26.8391844 C34.3503129,26.8391844 29.0847271,31.8146724 32.2396351,40.9345029 C32.2396351,40.9345029 32.7506413,40.649864 33.7393272,40.9231173 C34.605816,41.162214 34.9612986,41.777034 34.9724074,42.5740229 C35.0390604,46.7069798 35.9499846,46.7069798 35.9499846,46.7069798 Z" id="Shape" fill="#ADDEFF"></path>
                </g>
            </g>
        </g>
    </g>
</svg>