<?xml version="1.0" standalone="no"?>
<!DOCTYPE svg PUBLIC "-//W3C//DTD SVG 1.1//EN" "http://www.w3.org/Graphics/SVG/1.1/DTD/svg11.dtd" >
<!--
2013-9-30: Created.
-->
<svg>
<metadata>
Created by iconfont
</metadata>
<defs>

<font id="iconfont" horiz-adv-x="1024" >
  <font-face
    font-family="iconfont"
    font-weight="500"
    font-stretch="normal"
    units-per-em="1024"
    ascent="896"
    descent="-128"
  />
    <missing-glyph />
    
    <glyph glyph-name="renwuhuaxiangyijiicom" unicode="&#59017;" d="M0 896h273.066667v-102.4H0zM102.4 896v-273.066667H0V896zM0-128h273.066667v102.4H0zM102.4-128v273.066667H0v-273.066667zM750.933333 896h273.066667v-102.4h-273.066667zM1024 896v-273.066667h-102.4V896zM750.933333-25.6h273.066667V-128h-273.066667zM1024 145.066667v-273.066667h-102.4v273.066667zM724.650667 116.462933L644.3008 196.266667H379.6992l-80.349867-79.803734v-14.062933h425.301334v14.062933zM819.2 158.72V8.533333H204.8v150.186667l132.3008 131.413333h345.019733L819.2 158.72zM512 759.466667c89.770667 0 165.410133-75.093333 165.410133-164.2496v-93.866667c0-89.224533-75.639467-164.317867-165.410133-164.317867s-165.410133 75.093333-165.410133 164.317867V595.217067C346.589867 684.373333 422.229333 759.466667 512 759.466667z m0-93.866667c-37.819733 0-70.8608-32.836267-70.8608-70.382933v-93.866667c0-37.546667 33.041067-70.4512 70.8608-70.4512S582.8608 463.872 582.8608 501.418667V595.217067c0 37.546667-33.041067 70.382933-70.8608 70.382933z"  horiz-adv-x="1024" />

    
    <glyph glyph-name="zhihuitiaodu1" unicode="&#58959;" d="M851.617684 217.074526a381.520842 381.520842 0 0 0-172.8-173.325473C667.189895-38.063158 597.018947-101.052632 512-101.052632c-85.180632 0-155.432421 63.191579-166.885053 145.205895a381.574737 381.574737 0 0 0-173.163789 172.988632C90.031158 228.702316 26.947368 298.886737 26.947368 384c0 85.072842 63.029895 155.243789 144.909474 166.831158a381.574737 381.574737 0 0 0 173.285053 173.258105C356.729263 805.995789 426.900211 869.052632 512 869.052632c84.965053 0 155.041684-62.868211 166.804211-144.572632a381.547789 381.547789 0 0 0 172.921263-173.581474C933.807158 539.486316 997.052632 469.221053 997.052632 384c0-85.261474-63.312842-155.553684-145.434948-166.925474zM512-16.693895a84.358737 84.358737 0 1 1 0 168.717474 84.358737 84.358737 0 0 1 0-168.717474z m-316.335158 485.052632a84.358737 84.358737 0 1 1 0-168.717474 84.358737 84.358737 0 0 1 0 168.717474zM512 784.693895a84.358737 84.358737 0 1 1 0-168.717474 84.358737 84.358737 0 0 1 0 168.717474z m155.472842-149.989053c-25.6-60.564211-85.584842-103.073684-155.472842-103.073684-69.955368 0-129.967158 42.576842-155.526737 103.248842a296.690526 296.690526 0 0 1-95.245474-95.393684c60.604632-25.573053 103.141053-85.557895 103.141053-155.486316 0-69.874526-42.469053-129.818947-103.019789-155.445895a296.811789 296.811789 0 0 1 95.205052-95.205052c25.6 60.550737 85.557895 103.019789 155.445895 103.019789 69.820632 0 129.724632-42.401684 155.392-102.871579a297.418105 297.418105 0 0 1 95.016421 95.164632c-60.416 25.680842-102.777263 85.557895-102.777263 155.338105 0 69.820632 42.428632 129.751579 102.912 155.405474a297.579789 297.579789 0 0 1-95.070316 95.299368z m160.87579-166.346105a84.358737 84.358737 0 1 1 0-168.717474 84.358737 84.358737 0 0 1 0 168.717474z"  horiz-adv-x="1024" />

    
    <glyph glyph-name="gengduo1" unicode="&#59123;" d="M113.575 495.553c61.606 0 111.559-49.951 111.559-111.554s-49.952-111.554-111.559-111.554c-61.606 0-111.559 49.951-111.559 111.554S51.97 495.553 113.575 495.553zM511.999 495.553c61.606 0 111.559-49.951 111.559-111.554s-49.952-111.554-111.559-111.554c-61.606 0-111.559 49.951-111.559 111.554s49.953 111.554 111.559 111.554zM910.422 495.553c61.606 0 111.559-49.951 111.559-111.554s-49.952-111.554-111.559-111.554c-61.605 0-111.559 49.951-111.559 111.554s49.954 111.554 111.559 111.554z"  horiz-adv-x="1024" />

    
    <glyph glyph-name="quanping" unicode="&#58955;" d="M446.815 412.067H223.088c-20.532 0-37.178-16.646-37.178-37.179 0-20.539 16.646-37.185 37.178-37.185l170.78 0.228L122.44 66.534c-14.094-14.593-13.89-37.781 0.453-52.123 14.337-14.343 37.531-14.546 52.118-0.453l271.508 271.468v-171.114c0-20.533 16.646-37.179 37.179-37.179 20.539 0 37.185 16.646 37.185 37.179V338.003c-0.062 40.879-33.185 74.007-74.068 74.064M900.07 754.404a37.136 37.136 0 0 1-52.577 0L594.911 501.827v170.52c0 20.532-16.646 37.178-37.178 37.178-20.539 0-37.185-16.646-37.185-37.178v-223.725c0-40.828 33.242-74.035 74.068-74.035h223.686c20.539 0 37.185 16.652 37.185 37.184 0 20.539-16.646 37.185-37.185 37.185l-171.37-0.261L900.07 701.832a37.144 37.144 0 0 1 0 52.572"  horiz-adv-x="1024" />

    
    <glyph glyph-name="quanping1" unicode="&#59016;" d="M839.21 782.491H620.937c-20.034 0-36.277-16.216-36.277-36.223 0-20 16.243-36.216 36.277-36.216l166.61 0.215-228.542-228.148c-14.167-14.143-14.167-37.073 0-51.216s37.136-14.143 51.303 0l228.609 228.219v-166.679c0-20.007 16.249-36.223 36.284-36.223 20.034 0 36.283 16.215 36.283 36.223V710.34c-0.061 39.825-32.386 72.09-72.274 72.151zM413.692 337.096L185.083 108.877v166.68c0 20.007-16.249 36.223-36.284 36.223-20.034 0-36.283-16.215-36.283-36.223V57.66c0.061-39.825 32.386-72.09 72.274-72.151h218.273c20.034 0 36.277 16.216 36.277 36.223 0 20-16.243 36.215-36.277 36.215l-166.61-0.215L464.995 285.88c14.167 14.143 14.167 37.073 0 51.216s-37.136 14.143-51.303 0z"  horiz-adv-x="1024" />

    
    <glyph glyph-name="dianhua" unicode="&#58953;" d="M876.76 16.93l25 25a82 82 0 0 1 0 115.63l-86.33 65.37c-4.84 3.66-9.5 7.55-14.15 11.45a71.8 71.8 0 0 1-96.58-4.23l-39.8-38.86a52.71 52.71 0 0 0-64.9-7.68c-85.36 52.59-217.33 185.14-266.22 264.16a52.85 52.85 0 0 0 7.47 65.23l43.63 41.35a71.79 71.79 0 0 1 2.88 98.15c-4.1 4.6-8 9.4-11.83 14.2l-61.5 76.64c-19 23.72-49.57 35.56-79.43 29.81a81.16 81.16 0 0 1-42.18-22.36l-21.1-21.1a164.41 164.41 0 0 1-44.23-153.11C182 340.8 495.86 18.76 728.33-28.29c53.86-10.9 109.58 6.37 148.43 45.22zM740.57-16.62a167.59 167.59 0 0 0-33.26 3.34c-56.79 11.49-119.37 39-186 81.9-61.88 39.78-125.41 92.05-183.73 151.14C279.64 278.48 227.71 343 187.42 406.44c-42.93 67.56-71.47 131.12-84.83 188.92a168.66 168.66 0 0 0 2.41 84.75 170.84 170.84 0 0 0 43.19 73l21.1 21.1A86.07 86.07 0 0 0 214 798c31.49 6.06 63.78-6 84.28-31.59 0 0 69.21-86.2 73.17-90.65a76.62 76.62 0 0 0-3.08-105l-0.1-0.09-43.59-41.31a47.69 47.69 0 0 1-6.71-59c50.23-81.17 181.29-211.21 264.59-262.53a47.53 47.53 0 0 1 58.74 7l39.81 38.85c27.77 27.77 73.15 29.75 103.28 4.49 4.24-3.56 77.18-59.12 96.26-73.65a62.31 62.31 0 0 0 10.86-10.49 86.89 86.89 0 0 0-6.32-115.66l-25-25a169.23 169.23 0 0 0-119.62-49.99zM230.14 789.5a75.19 75.19 0 0 1-14.22-1.36 76.12 76.12 0 0 1-39.58-21l-21.1-21.1c-39.27-39.27-55.3-94.76-42.9-148.45 25.57-110.66 112.44-249.28 232.36-370.8 120.83-122.44 257.13-208.52 364.6-230.27 52.1-10.55 105.9 5.85 143.9 43.85l25 25a76.88 76.88 0 0 1 7.44 99.94 61.1 61.1 0 0 1-12.18 12.17c-19.67 15-91.12 69.37-95.42 73-26.19 22-65.65 20.24-89.83-3.94l-39.81-38.85a57.48 57.48 0 0 0-71-8.36C536.79 224.24 483 269 429.65 322.14 377.07 374.53 333.27 426.62 309.49 465a57.65 57.65 0 0 0 8.19 71.39l0.1 0.09 43.58 41.31a66.61 66.61 0 0 1 2.64 91.28c-4.12 4.63-73.5 91-73.5 91a77.53 77.53 0 0 1-60.36 29.43z"  horiz-adv-x="1024" />

    
    <glyph glyph-name="maikefeng" unicode="&#59216;" d="M785.9 444.8v-60.9c0-70.1-23.4-131-70.1-182.8-46.8-51.9-104.6-81.6-173.4-89.1v-62.7h121.7c8.2 0 15.4-3 21.4-9s9-13.1 9-21.4c0-8.2-3-15.4-9-21.4s-13.2-9-21.4-9H359.8c-8.2 0-15.4 3-21.4 9s-9 13.2-9 21.4 3 15.4 9 21.4 13.1 9 21.4 9h121.7V112c-68.8 7.6-126.6 37.3-173.3 89.2-46.8 51.8-70.1 112.8-70.1 182.9V445c0 8.2 3 15.4 9 21.4s13.1 9 21.4 9c8.2 0 15.4-3 21.4-9s9-13.2 9-21.4v-60.9c0-58.6 20.8-108.8 62.5-150.5S453.2 171 511.9 171c58.6 0 108.8 20.8 150.5 62.5C704.2 275.2 725 325.2 725 384v60.9c0 8.2 3 15.4 9 21.4s13.1 9 21.4 9c8.2 0 15.4-3 21.4-9 6.1-6.1 9.1-13.2 9.1-21.5zM664.2 627.4V384c0-41.8-14.9-77.7-44.7-107.5s-65.6-44.7-107.5-44.7-77.7 14.9-107.5 44.7S359.8 342 359.8 384V627.4c0 41.8 14.9 77.7 44.7 107.5 29.8 29.8 65.6 44.7 107.5 44.7s77.7-14.9 107.5-44.7c29.7-29.8 44.7-65.6 44.7-107.5z"  horiz-adv-x="1024" />

    
    <glyph glyph-name="maikefeng-jingyin" unicode="&#59217;" d="M835.7 616.5L664.1 444.8v-60.9c0-41.8-14.9-77.7-44.7-107.5-29.8-29.8-65.6-44.7-107.5-44.7-17.4 0-34.7 3-51.8 9L414.5 195c30.7-16.2 63.2-24.2 97.5-24.2 58.6 0 108.8 20.8 150.5 62.5 41.6 41.8 62.4 91.9 62.4 150.6v60.9c0 8.2 3 15.4 9 21.4s13.1 9 21.4 9c8.2 0 15.4-3 21.4-9s9-13.2 9-21.4V384c0-70.1-23.4-131-70.1-182.8-46.7-51.9-104.5-81.6-173.3-89.2v-62.7H664c8.2 0 15.4-3 21.4-9s9-13.1 9-21.4c0-8.2-3-15.4-9-21.4s-13.2-9-21.4-9H359.7c-8.2 0-15.4 3-21.4 9s-9 13.2-9 21.4 3 15.4 9 21.4 13.1 9 21.4 9h121.7V112c-39.6 4.1-76.9 17-111.7 38.5L249 29.7c-3.2-3.2-6.8-4.8-10.9-4.8-4.1 0-7.8 1.6-10.9 4.8l-39 39c-3.2 3.2-4.8 6.8-4.8 10.9 0 4.1 1.6 7.8 4.8 10.9l586.7 586.7c3.2 3.2 6.8 4.8 10.9 4.8 4.1 0 7.8-1.6 10.9-4.8l39-39c3.2-3.2 4.8-6.8 4.8-10.9-0.1-4-1.6-7.6-4.8-10.8zM306 330.2l-48-48c-13.3 32.6-20 66.6-20 101.8v61c0 8.2 3 15.4 9 21.4s13.1 9 21.4 9c8.2 0 15.4-3 21.4-9s9-13.2 9-21.4v-60.9c0.1-16.9 2.5-34.9 7.2-53.9z m349 349.1L359.7 384V627.4c0 41.8 14.9 77.7 44.7 107.5 29.8 29.8 65.6 44.7 107.5 44.7 32.3 0 61.6-9.4 87.7-28.1 26.2-18.7 44.6-42.8 55.4-72.2z"  horiz-adv-x="1024" />

    
    <glyph glyph-name="shexiangtou" unicode="&#58951;" d="M658.103 160.431c0-26.458-20.723-47.99-46.187-47.99h-492.66c-25.464 0-46.187 21.532-46.187 47.99V576.353c0 26.459 20.723 47.99 46.187 47.99h492.66c25.464 0 46.187-21.531 46.187-47.99V160.43z m206.611 420.756l-133.483-86.308v-252.926l132.582-85.64c1.423-1.227 9.153-7.307 21.183-7.307 16.026 0 29.058 13.915 29.058 31.025V556.755c0 17.11-13.033 31.024-29.058 31.024-12.03 0-19.759-6.08-20.282-6.592z"  horiz-adv-x="1024" />

    
    <glyph glyph-name="icon_shexiangtou_dis" unicode="&#58952;" d="M404.772571 91.794286l327.68 467.968-0.073142-418.889143c0-27.062857-22.381714-49.005714-50.029715-49.005714H404.772571z m-267.849142 0H49.956571a49.517714 49.517714 0 0 0-49.956571 49.005714v486.4c0 27.136 22.381714 49.078857 50.029714 49.078857h496.128l-409.234285-584.411428z m672.182857 226.304V449.974857c0 13.165714 4.900571 28.379429 11.702857 34.669714l162.230857 148.553143c53.028571 48.64 114.102857 62.244571 114.102857 10.166857v-518.729142c0-52.077714-61.074286-38.473143-114.102857 10.093714l-162.230857 148.626286c-6.802286 6.217143-11.702857 21.430857-11.702857 34.742857zM776.045714 872.813714l59.977143-41.984-671.232-958.610285-59.977143 41.910857z"  horiz-adv-x="1097" />

    
    <glyph glyph-name="shijian" unicode="&#58947;" d="M510.119675-22.519644c-108.830661 0-211.158211 42.36897-288.13642 119.30113-76.961836 77.009931-119.336946 179.37432-119.317503 288.237727 0 108.877733 42.396599 211.230865 119.380948 288.206004 76.964906 76.958766 179.298596 119.342062 288.150746 119.342062 108.854197 0 211.206306-42.380226 288.209074-119.333876 158.872381-158.924569 158.872381-417.483346-0.002047-576.371076C721.367937 19.877979 618.988198-22.519644 510.119675-22.519644zM510.197446 744.873024c-96.123244 0-186.487322-37.418214-254.44611-105.362676-67.967998-67.941392-105.400538-158.320818-105.400538-254.490112-0.014326-96.16213 37.397748-186.54872 105.343233-254.506485C323.676355 62.55701 414.033269 25.132656 510.119675 25.132656c96.140641 0 186.54565 37.453007 254.561743 105.458867 140.297326 140.285047 140.297326 368.582613 0 508.913709C696.709327 707.452763 606.331947 744.873024 510.197446 744.873024zM676.031379 223.537402c-4.994758 0-9.971096 1.411139-14.789844 4.193509l-141.0382 85.48393c-0.785899 0.453325-1.585101 0.899486-2.426259 1.367137-4.235464 2.358721-10.033517 5.588275-12.053524 8.630564l-0.3776 0.569982-0.593518 0.341784c-20.308535 11.650341-24.571628 20.946055-24.571628 26.693965L480.180805 590.244294c0 17.261129 14.038738 31.30396 31.29475 31.30396 17.264199 0 31.309076-14.042831 31.309076-31.30396l0-225.432309 141.876288-82.048691 0-0.004093 1.453095-0.841158c7.471159-4.303003 13.403265-11.31265 16.274662-19.228947 2.977821-8.206916 2.408863-16.550954-1.602498-23.500227-5.741771-9.945513-14.764262-15.651468-24.75173-15.651468C676.033425 223.537402 676.033425 223.537402 676.031379 223.537402z"  horiz-adv-x="1024" />

    
    <glyph glyph-name="xiazai" unicode="&#59010;" d="M475.989333 226.986667a48.298667 48.298667 0 0 1 63.374223 0l182.272 163.896889a37.432889 37.432889 0 0 1 0 57.002666 47.559111 47.559111 0 0 1-31.744 11.776 47.331556 47.331556 0 0 1-31.744-11.776L552.391111 352.824889V855.722667C552.448 877.909333 532.48 896 507.619556 896c-24.746667 0-44.771556-18.033778-44.771556-40.334222v-502.897778L357.148444 448.056889a47.786667 47.786667 0 0 1-31.744 11.776 46.819556 46.819556 0 0 1-31.630222-11.889778 37.432889 37.432889 0 0 1 0-57.002667zM953.002667-128c39.253333 0 70.997333 40.163556 70.997333 89.429333v321.137778c0 27.306667-28.103111 49.664-49.948444 49.664-21.788444 0-46.762667-22.300444-46.762667-49.834667V14.222222c0-16.270222-9.728-28.444444-22.755556-28.444444H113.777778c-12.913778 0-17.066667 12.003556-17.066667 28.444444v268.344889c0 27.477333-28.103111 49.664-49.891555 49.664-21.845333 0-46.819556-22.300444-46.819556-49.664v-321.137778C0-87.950222 31.857778-128 70.997333-128h882.005334z"  horiz-adv-x="1024" />

    
    <glyph glyph-name="liulan" unicode="&#59009;" d="M877.714286 896C392.923429 896 0 384 0 384s392.923429-512 877.714286-512 877.714286 512 877.714285 512-392.923429 512-877.714285 512z m10.386285-914.066286C680.374857-18.066286 512 153.6 512 365.714286 512 577.901714 680.301714 749.714286 888.100571 749.714286s376.100571-171.812571 376.100572-383.926857c0-212.114286-168.228571-383.853714-376.100572-383.853715z m146.285715 365.494857c-69.193143 0-125.293714 57.270857-125.293715 127.926858 0 51.931429 30.281143 96.548571 73.874286 116.736-23.478857 7.314286-48.274286 11.337143-73.874286 11.337142C770.706286 603.428571 658.285714 488.886857 658.285714 347.428571s112.420571-256 250.806857-256 250.806857 114.688 250.806858 256c0 26.185143-3.876571 51.638857-11.117715 75.337143a125.44 125.44 0 0 0-114.395428-75.337143z"  horiz-adv-x="1755" />

    
    <glyph glyph-name="wenshuchaxun" unicode="&#59008;" d="M1008.458932-40.592646l-267.666129 266.028609a410.062053 410.062053 0 0 1 90.472926 257.295176C831.265729 710.960351 645.134401 896 415.677049 896 186.151467 896 0.020139 711.096811 0.020139 482.731139c0-228.297443 185.994868-413.200631 415.65691-413.200632 94.839643 0 182.17399 31.590471 252.177928 84.741609l268.280198-266.847369a51.718309 51.718309 0 0 1 72.460217 0 50.831319 50.831319 0 0 1-0.13646 71.982607zM95.542081 482.731139c0 175.828604 143.282914 318.292758 320.134968 318.292758 176.715594 0 320.066737-142.464154 320.066737-318.292758 0-175.760374-143.282914-318.224529-320.066737-318.224529C238.824995 164.50661 95.542081 306.970764 95.542081 482.731139zM204.437096 464.37728c-9.756884 42.234345-4.366717 86.788508 16.57988 133.389569 21.014827 46.669292 53.424058 76.826934 97.091231 90.472926 15.010591 4.776097 26.746144 24.358095 21.970047 44.554163-4.639637 20.332528-23.198186 30.294102-38.208777 25.586235-65.364301-20.468988-111.351293-61.406963-138.779736-123.632686a293.866433 293.866433 0 0 1-18.763239-189.338136c4.571407-20.332528 20.810137-31.112861 38.208777-25.586235 17.26218 5.594857 26.541454 24.358095 21.901817 44.554164z"  horiz-adv-x="1024" />

    
    <glyph glyph-name="shangchuan" unicode="&#59007;" d="M447.835429 640v-191.853714a64.146286 64.146286 0 0 1 128.292571 0V640h121.197714a29.257143 29.257143 0 0 1 20.699429 49.956571L563.693714 844.288a73.142857 73.142857 0 0 1-103.424 0L301.330286 685.348571a26.550857 26.550857 0 0 1 18.797714-45.348571h127.707429zM511.981714 164.571429m-73.142857 0a73.142857 73.142857 0 1 1 146.285714 0 73.142857 73.142857 0 1 1-146.285714 0ZM917.705143 422.253714v-478.72H112.621714V419.108571a38.034286 38.034286 0 1 1-76.068571 0V-54.857143a73.142857 73.142857 0 0 1 73.142857-73.142857h804.571429a73.142857 73.142857 0 0 1 73.142857 73.142857V422.253714a34.889143 34.889143 0 1 1-69.705143 0z"  horiz-adv-x="1024" />

    
    <glyph glyph-name="bianji" unicode="&#59006;" d="M929.1776-59.733333c14.677333 0 26.555733-15.291733 26.555733-34.133334s-11.8784-34.133333-26.555733-34.133333H94.890667C80.145067-128 68.266667-112.708267 68.266667-93.866667s11.8784 34.133333 26.555733 34.133334H929.109333zM730.453333 882.4832a43.554133 43.554133 0 0 0 63.0784 0l145.6128-151.3472a47.786667 47.786667 0 0 0 0-65.672533l-595.421866-619.1104a18.705067 18.705067 0 0 0-7.236267-3.072l-217.634133-61.713067a36.6592 36.6592 0 0 0-36.113067 9.966933 40.277333 40.277333 0 0 0-9.557333 37.546667l59.8016 228.010667a22.186667 22.186667 0 0 0 1.8432 6.280533L730.453333 882.4832zM172.714667 211.831467l-40.413867-170.666667 163.976533 42.1888-123.562666 128.477867z m440.5248 466.7392L212.445867 261.666133l133.461333-138.581333 401.134933 416.631467-133.666133 138.8544h-0.068267zM762.402133 833.399467L650.990933 717.687467l133.597867-138.786134 111.342933 115.575467L762.333867 833.399467z"  horiz-adv-x="1024" />

    
    <glyph glyph-name="daochu" unicode="&#59005;" d="M466.88 256c67.52 220.992 200.64 258.304 346.048 290.88l34.56-145.408L1152 730.112 730.048 896l34.88-146.88C392.96 662.08 437.504 380.224 466.88 256M449.088 716.8H115.2v-729.6h857.6V393.216c0 27.392 23.552 52.544 55.936 52.544 32.32 0 59.264-25.152 59.264-52.544v-471.616a49.6 49.6 0 0 0-49.536-49.6H49.408A49.6 49.6 0 0 0 0-78.4V782.4C0 809.792 22.208 832 49.408 832h399.68c27.328 0 52.224-26.688 52.224-59.52 0-30.208-17.408-48.768-52.224-55.68z"  horiz-adv-x="1152" />

    
    <glyph glyph-name="fabushijian" unicode="&#59004;" d="M568.762497 99.732504c-18.541657 0-33.329482 6.256387-44.363475 19.508554l-168.353699 178.818929A50.392357 50.392357 0 0 0 341.257498 333.607643v223.523661C341.257498 587.616974 367.761831 611.618751 399.840036 611.618751c32.646967 0 58.582537-24.627416 58.582537-54.430571v-202.365696l153.452122-162.211064a52.894912 52.894912 0 0 0-6.142635-76.782937A47.548545 47.548545 0 0 0 568.762497 99.732504zM950.800267-127.772495a21.328594 21.328594 0 0 0-12.228394 4.265719l-72.915352 53.122417-36.230171-35.604532a19.622306 19.622306 0 0 0-13.820929-6.37014c-6.938902 0-13.309042 4.777605-15.92535 13.309042l-29.348145 86.622528-71.322817 21.271718c-13.309042 3.696956-15.92535 9.55521-16.494112 13.820929 0 4.265719 2.104421 10.067096 15.413463 15.356587l303.434793 116.994446a24.11553 24.11553 0 0 0 8.531437 1.592535c4.265719 0 7.962675-1.592535 10.635859-4.777605 2.161297-2.673184 4.265719-7.450789 2.673184-15.413464l-55.340591-249.288603c-2.161297-8.531437-9.1002-14.901577-17.062875-14.901577z m-158.115975 124.388358c-1.023772-0.568762-1.592535-2.104421-1.023772-3.18507l22.352366-67.512108 4.777605 45.728505a19.679182 19.679182 0 0 0 6.37014 11.659631l112.899356 100.500333-145.375695-87.191291zM512.170629 896C229.780049 896 0 666.276827 0 384.398134 0 102.576316 229.723173-127.772495 512.170629-127.772495c42.202177 0 84.973117 5.858254 127.744057 17.005999 1.763164 0.568762 2.957565 0.568762 5.289491 1.137525a54.487447 54.487447 0 0 1 39.813375 52.155521 54.771828 54.771828 0 0 1-54.487448 54.544323c-3.469451 0-6.995779-0.568762-11.090868-1.194401h-0.568763l-1.82004-0.568763a400.181293 400.181293 0 0 0-104.879804-14.10531c-222.101755 0-403.195734 180.525217-403.195735 403.252611 0 222.044879 180.525217 403.138858 403.252611 403.138858 222.044879 0 403.138858-180.525217 403.138858-403.195734 0-14.048434-0.568762-28.096867-2.331926-43.339703v-0.568762c0-1.194401-0.568762-2.957565-0.568763-4.151966 0-19.906687 11.090869-37.538325 27.528105-46.86603 0.568762 0 0.568762-0.568762 1.137525-0.568763 2.957565-1.763164 6.483892-2.957565 9.953344-4.09509 0.568762 0 1.194401-0.568762 1.194401-0.568762 4.09509-1.194401 7.621417-1.82004 11.716508-1.82004h2.957565c27.528105 0 50.392357 20.532326 53.861808 47.491669v0.568762c1.763164 18.769162 2.957565 36.969562 2.957565 54.487447C1024.341257 666.276827 794.618085 896 512.170629 896z"  horiz-adv-x="1024" />

    
    <glyph glyph-name="tiaoxunpeixun1" unicode="&#59002;" d="M1049.284923 795.175385c-4.686769 6.537846-23.473231 31.744-63.881846 54.153846C930.934154 880.128 860.475077 896 776.861538 896c-87.355077 0-158.72-15.872-212.283076-46.670769a189.912615 189.912615 0 0 1-30.050462-21.464616l-4.726154-3.741538-4.686769 3.741538c-9.373538 7.483077-19.692308 14.926769-30.995692 21.464616C439.650462 880.128 369.191385 896 285.538462 896 198.222769 896 126.818462 880.128 73.255385 849.329231 30.956308 825.068308 14.966154 799.862154 11.224615 792.379077A105.432615 105.432615 0 0 1 0 747.598769V-77.587692c0-16.817231 8.467692-32.689231 21.622154-41.078154 7.483077-4.647385 15.950769-7.483077 25.363692-7.483077 7.483077 0 15.005538 1.890462 21.582769 4.686769 9.412923 4.647385 97.673846 41.984 217.009231 41.984 77.981538 0 131.544615-10.24 163.446154-19.574154 26.308923-7.483077 43.204923-14.966154 50.727385-19.613538 9.412923-5.592615 21.622154-9.334154 33.831384-9.334154 9.373538 0 18.786462 1.851077 27.214769 5.592615 9.412923 4.686769 98.658462 42.023385 217.009231 42.023385 77.981538 0 131.544615-10.279385 163.446154-19.613538 31.940923-9.334154 48.836923-17.723077 50.727385-18.668308 8.467692-4.647385 16.935385-7.483077 26.308923-7.483077 7.483077 0 15.044923 1.890462 21.622154 5.632 15.005538 8.388923 23.473231 24.260923 23.47323 41.984V749.489231c0 14.966154-5.632 32.689231-14.099692 45.725538z m-578.953846-796.711385l-9.176615 2.717538c-34.304 11.697231-92.868923 25.206154-174.867693 25.206154-73.609846 0-135.483077-15.320615-174.867692-28.829538l-9.176615-2.678154V747.52c0 0.905846 0.827077 2.717538 0.827076 3.623385v1.772307l0.866462 0.905846c3.347692 4.489846 13.390769 16.187077 33.476923 27.884308 45.134769 26.978462 106.220308 32.374154 148.873846 32.374154 40.999385 0 99.564308-5.395692 146.392616-33.28 22.606769-12.603077 33.476923-26.072615 35.997538-29.656615l1.654154-1.811693v-750.867692z m490.811077 5.395692l-9.216 2.678154c-34.264615 11.697231-92.868923 25.166769-174.867692 25.166769-73.570462 0-135.483077-15.281231-174.828308-28.750769l-9.176616-2.678154V756.578462l0.787693 0.905846v0.905846l0.866461 0.866461c3.347692 4.489846 12.563692 16.187077 33.476923 27.844923 45.174154 26.072615 106.220308 32.374154 148.873847 32.374154 41.038769 0 99.564308-5.395692 146.432-33.240615 20.913231-12.603077 31.783385-24.260923 35.958153-28.750769l0.866462-0.905846v-1.811693l0.787692-1.772307v-749.13477zM787.692308 423.384615c-80.620308 0-117.366154-52.932923-118.153846-54.823384V305.230769c2.363077 1.890462 52.696615 54.823385 118.153846 54.823385 67.072 0 117.366154-53.878154 118.153846-54.823385v63.330462c-0.787692 1.890462-37.533538 54.823385-118.153846 54.823384zM256 226.461538c-94.089846 0-136.900923-52.932923-137.846154-54.823384V108.307692c1.851077 1.890462 60.534154 54.823385 137.846154 54.823385S392.900923 109.252923 393.846154 108.307692v63.330462C391.995077 173.528615 349.144615 226.461538 256 226.461538zM256 659.692308C161.910154 659.692308 119.099077 606.759385 118.153846 604.868923V541.538462c1.851077 1.890462 60.534154 54.823385 137.846154 54.823384S392.900923 542.483692 393.846154 541.538462V604.868923C392.900923 607.704615 350.089846 659.692308 256 659.692308zM256 423.384615c-94.089846 0-136.900923-52.932923-137.846154-54.823384V305.230769c1.851077 1.890462 60.534154 54.823385 137.846154 54.823385S392.900923 306.176 393.846154 305.230769v63.330462C392.900923 370.451692 350.089846 423.384615 256 423.384615zM787.692308 226.461538c-80.620308 0-117.366154-52.932923-118.153846-54.823384V108.307692c2.363077 1.890462 52.696615 54.823385 118.153846 54.823385 67.072 0 117.366154-53.878154 118.153846-54.823385v63.330462c-0.787692 1.890462-37.533538 54.823385-118.153846 54.823384zM787.692308 659.692308c-80.620308 0-117.366154-52.932923-118.153846-54.823385V541.538462c2.363077 1.890462 52.696615 54.823385 118.153846 54.823384 67.072 0 117.366154-53.878154 118.153846-54.823384V604.868923C905.058462 607.704615 868.312615 659.692308 787.692308 659.692308z"  horiz-adv-x="1063" />

    
    <glyph glyph-name="bananduo" unicode="&#59001;" d="M651.636364 756.363636H93.370182V802.909091c0 51.525818 41.332364 93.090909 93.370182 93.090909h325.818181A139.729455 139.729455 0 0 0 651.636364 756.363636z m592.756363-139.636363l12.520728 93.090909H46.359273l12.567272-93.090909h1185.466182zM1303.272727 570.181818l-93.370182-698.181818H93.370182L0 570.181818h1303.272727zM384.698182 93.556364c0 37.841455-30.72 68.887273-68.887273 68.887272-38.260364 0-68.933818-30.394182-68.933818-68.887272a68.887273 68.887273 0 0 1 137.821091 0z m0 255.674181a68.887273 68.887273 0 1 1-137.821091-0.046545 68.887273 68.887273 0 0 1 137.821091 0.046545z m671.697454-255.674181c0 35.374545-28.858182 64.558545-64.512 64.558545h-436.736a64.698182 64.698182 0 0 1-64.558545-64.558545c0-35.374545 28.858182-64.558545 64.558545-64.558546h436.736a64.232727 64.232727 0 0 1 64.512 64.558546z m0 255.674181c0 35.374545-28.858182 64.558545-64.512 64.558546h-436.736a64.698182 64.698182 0 0 1-64.558545-64.558546c0-35.374545 28.858182-64.512 64.558545-64.512h436.736a64.232727 64.232727 0 0 1 64.512 64.512z"  horiz-adv-x="1303" />

    
    <glyph glyph-name="banankuai" unicode="&#59000;" d="M469.031385 896H24.694154C11.027692 896 0 885.76 0 873.156923v-978.313846c0-12.603077 11.027692-22.843077 24.694154-22.843077h444.337231c13.627077 0 24.694154 10.24 24.694153 22.843077V873.156923c0 12.603077-11.027692 22.843077-24.694153 22.843077z m-74.043077-932.588308H98.737231V804.627692h296.251077V-36.627692zM196.923077 738.461538h123.431385v-98.894769H196.923077V738.461538z m0-175.812923h123.431385v-98.934153H196.923077V562.648615z m0-175.852307h123.431385v-98.89477H196.923077v98.89477zM196.923077 86.252308c0-33.949538 27.648-61.44 61.715692-61.44s61.715692 27.490462 61.715693 61.44c0 33.949538-27.648 61.44-61.715693 61.44S196.923077 120.201846 196.923077 86.252308zM1020.416 896H576.078769C562.412308 896 551.384615 885.76 551.384615 873.156923v-978.313846c0-12.603077 11.027692-22.843077 24.694154-22.843077h444.337231c13.627077 0 24.694154 10.24 24.694154 22.843077V873.156923c0 12.603077-11.027692 22.843077-24.694154 22.843077z m-74.043077-932.588308h-296.251077V804.627692h296.251077V-36.627692zM748.307692 738.461538h123.431385v-98.894769H748.307692V738.461538z m0-175.812923h123.431385v-98.934153H748.307692V562.648615z m0-175.852307h123.431385v-98.89477H748.307692v98.89477zM748.307692 86.252308c0-33.949538 27.648-61.44 61.715693-61.44s61.715692 27.490462 61.715692 61.44c0 33.949538-27.648 61.44-61.715692 61.44S748.307692 120.201846 748.307692 86.252308z"  horiz-adv-x="1063" />

    
    <glyph glyph-name="sifagongkai" unicode="&#58999;" d="M512 896C229.148444 896 0 666.851556 0 384S229.148444-128 512-128 1024 101.148444 1024 384 794.851556 896 512 896z m0-909.994667c-219.742815 0-397.994667 178.251852-397.994667 397.994667S292.257185 781.994667 512 781.994667s397.994667-178.251852 397.994667-397.994667-178.251852-397.994667-397.994667-397.994667zM530.962963 630.518519a262.940444 262.940444 0 0 1-114.346667-26.396445c34.474667-34.436741 34.474667-90.718815 0-125.155555a88.860444 88.860444 0 0 0-125.269333 0A261.613037 261.613037 0 0 1 265.481481 364.73363C265.481481 218.377481 384.417185 99.555556 530.962963 99.555556s265.481481 118.821926 265.481481 265.178074C796.444444 511.127704 678.07763 630.518519 530.962963 630.518519z"  horiz-adv-x="1024" />

    
    <glyph glyph-name="zishenfaguan" unicode="&#58998;" d="M569.494649-127.999621a75.055268 75.055268 0 0 0-54.992491 23.741586L19.076705 431.975639A71.490238 71.490238 0 0 0 7.96443 513.326599l162.777772 344.252992A75.58623 75.58623 0 0 0 236.998672 895.998483h663.171513c27.685875 0 53.096198-14.63938 66.218544-38.191337l1.327405-2.65481 161.943404-340.839665c13.994641-26.548099 9.633167-59.164335-10.922647-81.464738L624.48714-104.144258c-14.032567-15.094491-34.019493-23.855363-54.992491-23.855363zM98.758928 484.12369l470.735721-509.420094 469.560019 510.10276-151.665496 318.842668H249.779686L98.758928 484.12369zM547.573504 175.407225h-0.341332a87.684578 87.684578 0 0 0-64.625658 28.254762l-281.22022 311.750534c-17.711375 19.797297-15.170342 49.303612 5.954359 66.066841 21.010924 16.687377 52.489384 14.298048 70.352462-5.499249l270.032093-299.386705 274.772824 299.728037a52.148052 52.148052 0 0 0 70.352463 4.930362c20.859221-16.877006 23.324401-46.459173 5.233768-66.066841l-286.112656-312.091867a87.457023 87.457023 0 0 0-64.398103-27.685874z"  horiz-adv-x="1138" />

    
    <glyph glyph-name="qingnianfaguan" unicode="&#58997;" d="M613.413472 520.533232l133.347456-21.503984c20.517911-3.299553 28.482349-29.695978 13.463694-44.676708l-97.469557-97.393705a26.81361 26.81361 0 0 1-7.433476-23.02102l21.617761-139.036342c3.413331-21.390206-18.242357-37.432861-36.522639-27.117017l-118.89769 66.635803a23.969167 23.969167 0 0 1-23.324427 0.227555l-120.035467-64.322322c-18.469912-9.936585-39.784267 6.56118-36.067529 27.837609l23.969168 138.58123a26.927387 26.927387 0 0 1-6.940439 23.134798l-95.724967 99.138297c-14.677322 15.208285-6.257773 41.528858 14.222212 44.449152l133.726716 18.962949a24.993167 24.993167 0 0 1 18.962949 14.108434l60.83314 125.724351a24.538056 24.538056 0 0 0 44.828411-0.493036L594.678078 534.945073a24.993167 24.993167 0 0 1 18.735394-14.373915zM101.944813 384C101.944813 610.41761 285.582011 794.054807 511.999621 794.054807c91.932376 0 176.848462-30.264866 245.304707-81.464828l72.476391 72.514316A509.041401 509.041401 0 0 1 511.999621 895.999621C229.299978 895.999621 0 666.81342 0 384c0-120.111318 41.528858-230.475681 110.781548-317.819024l72.514316 72.514317A408.803253 408.803253 0 0 0 101.944813 384zM917.806728 696.016361l-72.817724-72.817723a408.196438 408.196438 0 0 0 77.065424-239.198638c0-226.41761-183.637197-410.054807-410.054807-410.054807-89.277563 0-171.880169 28.634053-239.198638 77.065424l-72.817724-72.817724A509.837845 509.837845 0 0 1 511.999621-127.999621C794.699263-127.999621 1023.999241 101.18658 1023.999241 384c0 117.456506-39.708415 225.659092-106.192513 312.016361z"  horiz-adv-x="1024" />

    
    <glyph glyph-name="zhiwu" unicode="&#58996;" d="M625.694507 825.589832l-48.475536-69.24032a27.783867 27.783867 0 0 0-15.646703-7.311544h-97.243534a28.003213 28.003213 0 0 0-15.500473 7.165313l-48.621767 69.459667h225.488013zM541.026829 557.548634c0.877385 0 2.412809-0.80427 3.36331-1.60854l130.876636-439.86248a12.941433 12.941433 0 0 0-1.681655-6.214813l-160.634619-167.434355-160.415273 167.215009a18.644437 18.644437 0 0 0-2.047232 5.337427L481.583977 556.013209a7.092198 7.092198 0 0 0 3.290195 1.60854h56.152657zM666.05423 893.733421H359.919887c-19.010014 0-35.095411-8.700737-42.991878-23.177594-7.823352-14.549972-6.068581-32.390139 4.679388-47.744381l74.943325-106.967887c14.184395-20.252977 42.699416-34.876064 67.778012-34.876065h97.243534c25.151711 0 53.666732 14.623088 67.778011 34.876065l75.016441 106.967887c10.74797 15.354242 12.429625 33.194409 4.606272 47.744381C701.14964 885.032684 685.064244 893.733421 666.05423 893.733421z m-125.027401-268.114314H484.947288a69.313436 69.313436 0 0 1-64.707164-47.45192l-131.60779-442.860213c-7.311544-24.274326 0.365577-55.275272 18.059514-73.700362l164.655968-171.821281a58.053658 58.053658 0 0 1 83.3516 0l164.729084 171.821281c17.693936 18.425091 25.297942 49.426037 18.059513 73.700362l-131.60779 442.860213a69.313436 69.313436 0 0 1-64.780278 47.525036z"  horiz-adv-x="1024" />

    
    <glyph glyph-name="zhiji" unicode="&#58995;" d="M182.800289 365.142612c8.405425 27.482084 72.140471 38.445682 72.140471 38.445682-55.18344 38.738044-105.981442 88.293505-152.759458 143.476945 0-44.073662 0-88.293505 0.146182-132.294076-33.914061-5.701071-67.828123-11.25596-101.742185-16.810849A1465.759886 1465.759886 0 0 1 182.800289 232.702355c-0.146181 33.256246-0.146181 110.366881-0.146182 132.513348z m739.677373 44.731478V542.241256c-46.631834-55.18344-97.429836-104.738901-152.613276-143.476945h4.093076s63.588865-10.963597 72.213562-38.445681v-132.367167c59.349607 44.073662 127.323911 110.2207 178.121913 165.331049l-101.742184 16.664669z m-648.825696-19.953747c-38.2995-2.411991-69.363026-8.99015-69.363026-20.026838 0-11.036688 11.694504-16.153034 42.027123-22.146467l27.335903 42.173305z m484.591007-1.023269l26.020271-44.585297c34.791149 3.435261 44.585296 10.963597 42.392577 21.707923-2.558173 11.329051-26.751178 17.030121-68.412848 22.877374z m-207.211992-232.428266l-43.85439-111.024697-39.249678 111.828694H468.584728c-57.083797 2.192719-110.366881 7.674518-155.31763 15.641399-50.724911 8.917059-91.14404 21.196288-115.263954 35.302784l-50.871092-78.572448 258.302355 26.458815 99.403284-283.080086 110.074518 277.671378 257.132905-39.761314-50.432548 85.296788c-57.37616-22.877373-155.463812-37.568594-270.581585-39.761313zM326.788868 182.927623c-2.485082 2.192719-4.970164 3.654532-7.309065 5.847252 2.338901-2.192719 4.823983-4.385439 7.309065-5.847252z m-63.00414 160.068523c11.182869-2.777445 23.315917-5.262527 36.179872-7.674519l0.584725-0.146181 3.215989-0.511634c8.405425-1.461813 17.322484-2.923626 26.312634-4.239258l47.508922 73.090649L280.961031 566.361171l166.792862-25.801 71.117202 180.095361 64.539044-183.530621 167.523769 17.249393-102.180728-157.875803 40.930763-69.289936c24.70464 3.069807 47.435832 6.72434 67.974304 10.890507l-34.279514 57.887795 157.729621 243.391862-258.302355-26.531905L523.256534 895.853819l-109.709065-277.744469-257.205995 39.761314 148.59329-251.285653-41.223126-63.588865z m567.621985-0.146182c-32.59843-13.156317-81.715346-24.339186-141.79586-31.648251-49.55546-5.993433-106.493076-9.501784-167.816132-9.501784-70.020842 0-136.16788 4.750892-191.35132 12.937045-58.47252 8.551606-104.811991 20.903926-130.978444 35.156602l-1.461813-122.792291c50.944183-30.990435 179.656817-52.625268 323.791577-52.625268 122.792291 0 229.139186 14.179586 292.362598 37.13005-63.077231-23.242827-169.93576-37.568594-293.532048-37.568594-71.482655 0-139.237687 5.262527-195.517488 14.398858 42.392577-6.943612 91.363312-11.694504 143.550036-13.594861l11.986867-0.365453h1.242541l12.206138-0.292362h1.169451c4.093076-0.146181 8.332334-0.146181 12.571591-0.219272h0.730907l13.083226-0.146182c4.823983 0 9.574875 0 14.398858 0.146182h0.584725l14.252677 0.219272c115.117773 2.192719 213.205425 16.88394 270.435403 39.761313l-0.365453 0.438544 11.329051 4.750892-0.877088 123.81556zM816.49622 208.216988c1.461813 0.730906 2.192719 0.730906 3.654533 1.461813-1.461813-0.730906-2.923626-0.730906-3.654533-1.461813z"  horiz-adv-x="1025" />

    
    <glyph glyph-name="gongzuonianxian" unicode="&#58994;" d="M512.217126 896c68.607174 0 135.765501-13.38053 198.74774-40.312041a519.539545 519.539545 0 0 0 162.697013-109.601027 515.619135 515.619135 0 0 0 109.601026-162.697013c26.164475-63.664049 39.630231-130.822376 39.630231-199.429549 0-68.607174-13.465756-135.765501-40.312042-198.74774a519.539545 519.539545 0 0 0-109.686252-162.697013 515.619135 515.619135 0 0 0-162.611787-109.601026A504.284037 504.284037 0 0 0 511.535316-127.39745a504.284037 504.284037 0 0 0-198.747739 40.312041 519.539545 519.539545 0 0 0-162.697013 109.601026A515.619135 515.619135 0 0 0 40.489538 185.21263 504.284037 504.284037 0 0 0 0.177496 383.96037c0 68.607174 13.38053 135.765501 40.312042 198.747739A519.539545 519.539545 0 0 0 150.005337 745.405122 515.619135 515.619135 0 0 0 512.217126 896zM512.217126 808.38736a424.42699 424.42699 0 0 1-423.659953-423.574727A424.42699 424.42699 0 0 1 512.217126-39.103a424.42699 424.42699 0 0 1 423.659954 423.659954A424.42699 424.42699 0 0 1 512.217126 808.38736z m-14.147566-118.805467c23.352007 0 41.760889-18.408882 41.760889-41.760888h0.68181v-235.480276h235.480276c23.352007 0 41.760889-18.408882 41.760889-41.760889s-18.408882-41.760889-41.760889-41.760888H509.404658c-2.130658 0-4.261315 0.767037-5.710162 0.767036-2.045431-0.68181-3.494278-0.68181-5.624936-0.68181a41.334757 41.334757 0 0 0-41.760888 41.760888V647.650552c0 23.352007 18.408882 41.760889 41.760888 41.760889z"  horiz-adv-x="1024" />

    
    <glyph glyph-name="faguandengji" unicode="&#58993;" d="M512 384c17.066667 0 34.133333-5.688889 39.822222-28.444444l34.133334-68.266667c5.688889-17.066667 22.755556-28.444444 39.822222-28.444445l79.644444-5.688888c34.133333-5.688889 51.2-51.2 22.755556-79.644445l-51.2-56.888889c-17.066667-17.066667-22.755556-34.133333-17.066667-51.2l11.377778-79.644444c5.688889-34.133333-17.066667-56.888889-45.511111-56.888889-5.688889 0-17.066667 0-22.755556 5.688889l-68.266666 34.133333c-5.688889 5.688889-17.066667 5.688889-22.755556 5.688889h-3.982222c-6.030222-0.227556-14.222222-1.137778-18.773334-5.688889l-68.266666-34.133333c-5.688889-5.688889-17.066667-5.688889-22.755556-5.688889-28.444444 0-51.2 28.444444-45.511111 56.888889l17.066667 73.955555c0 22.755556-5.688889 39.822222-17.066667 51.2l-51.2 56.888889c-28.444444 28.444444-17.066667 73.955556 22.755556 79.644445l73.955555 11.377777c17.066667 0 34.133333 11.377778 39.822222 28.444445l34.133334 68.266667c5.688889 22.755556 22.755556 28.444444 39.822222 28.444444z m2.844444-34.133333h-4.949333c-3.697778-0.227556-4.380444-1.649778-9.272889-11.377778L466.488889 270.222222c-11.377778-22.755556-34.133333-39.822222-62.577778-45.511111l-73.955555-11.377778c-5.688889 0-11.377778-5.688889-11.377778-5.688889 0-5.688889 0-11.377778 5.688889-17.066666l51.2-56.888889c17.066667-22.755556 28.444444-51.2 22.755555-79.644445l-11.377778-85.333333c0-3.413333 2.048-6.826667 3.697778-8.988444l1.991111-2.389334c0-5.688889 0-5.688889 5.688889-5.688889h5.688889l68.266667 34.133334c11.377778 5.688889 28.444444 11.377778 39.822222 11.377778 11.377778 0 28.444444-5.688889 39.822222-11.377778l68.266667-34.133334H625.777778l5.688889 5.688889c5.688889 0 5.688889 5.688889 5.688889 11.377778L625.777778 48.355556c-5.688889 28.444444 0 56.888889 22.755555 79.644444l51.2 56.888889c5.688889 5.688889 5.688889 17.066667 5.688889 17.066667-5.688889 0-5.688889 5.688889-11.377778 5.688888l-73.955555 11.377778c-28.444444 5.688889-51.2 22.755556-62.577778 51.2l-34.133333 73.955556c-5.688889 5.688889-5.688889 5.688889-11.377778 5.688889zM682.666667 839.111111l17.066666-17.066667v-449.422222c0-17.066667-11.377778-34.133333-28.444444-39.822222h-11.377778c-11.377778 0-22.755556 5.688889-28.444444 11.377778L546.133333 435.2c-17.066667 17.066667-45.511111 17.066667-62.577777 0L398.222222 344.177778c-11.377778-11.377778-28.444444-17.066667-45.511111-11.377778-17.066667 5.688889-28.444444 22.755556-28.444444 39.822222V822.044444L341.333333 839.111111h341.333334z m-17.066667-34.133333H358.4v-432.355556c0-4.551111 3.640889-5.461333 5.12-5.688889h6.257778L455.111111 457.955556c28.444444 34.133333 85.333333 34.133333 113.777778 0l85.333333-91.022223c5.688889-5.688889 5.688889 0 5.688889 0s5.688889 0 5.688889 5.688889V804.977778z"  horiz-adv-x="1024" />

    
    <glyph glyph-name="xueli" unicode="&#58992;" d="M548.278857 824.612571l428.324572-203.044571a76.507429 76.507429 0 0 0-2.340572-140.434286l-113.517714-50.102857v-284.598857c0-29.769143-17.042286-56.832-43.885714-69.632L529.554286-60.708571a34.377143 34.377143 0 0 0-17.554286-4.681143 39.277714 39.277714 0 0 0-16.384 3.510857l-287.890286 137.508571a77.531429 77.531429 0 0 0-43.885714 69.632v285.257143L49.152 481.133714a77.677714 77.677714 0 0 0-47.396571 69.632 76.726857 76.726857 0 0 0 45.056 70.802286L475.721143 824.612571c23.04 10.532571 49.517714 10.532571 72.557714 0z m236.178286-427.227428L545.938286 292.132571A80.018286 80.018286 0 0 0 512 285.110857c-11.849143 0-23.625143 2.413714-34.523429 7.021714L239.908571 396.946286v-251.099429L512 14.774857l271.506286 129.901714 0.950857 252.708572z m226.669714 48.054857v-242.249143a56.612571 56.612571 0 0 0-35.108571-52.662857 40.082286 40.082286 0 0 0-55.588572 37.449143v219.428571l90.697143 38.034286zM512 757.906286a9.947429 9.947429 0 0 1-4.096-0.585143L78.994286 553.691429c-1.755429-0.585143-2.340571-1.170286-2.340572-1.755429a17.554286 17.554286 0 0 1 2.340572-1.755429l428.909714-189.001142a8.630857 8.630857 0 0 1 7.606857 0l428.324572 189.001142a4.022857 4.022857 0 0 1 2.340571 1.755429 17.554286 17.554286 0 0 1-2.340571 1.755429L515.510857 756.736A4.973714 4.973714 0 0 1 512 757.906286z"  horiz-adv-x="1024" />

    
    <glyph glyph-name="xingbie" unicode="&#58991;" d="M500.928 789.568c-36.48 0-71.424-0.768-105.92 0-40.96 1.28-64.832 34.56-51.712 71.488 9.024 25.088 29.184 34.112 52.992 34.112C478.72 896 561.28 896 643.776 895.168c29.12 0 41.856-13.952 41.856-43.52 0.384-81.792 0-163.968 0-245.696 0-21.76-6.592-40.704-27.52-50.944a52.672 52.672 0 0 0-56.256 4.096c-18.432 12.8-21.76 32-21.76 52.608-0.384 32 0 64.064 0 96.128a78.912 78.912 0 0 0-6.912 5.312l-167.872-177.92c27.52-41.856 43.072-89.088 38.144-141.248-8.192-86.272-49.664-151.232-130.112-186.56-81.28-35.712-159.232-25.856-228.992 28.8C7.168 296.192-18.688 396.416 16.192 488.064A220.16 220.16 0 0 0 232.96 628.928c25.856-1.216 51.328-11.904 77.184-17.28 6.144-1.152 15.616-1.152 19.264 2.56 57.088 55.808 113.28 112.512 169.536 169.216 0.832 0.832 0.832 2.496 2.048 6.144z m-279.04-497.472a114.176 114.176 0 0 1 116.48 114.176 115.072 115.072 0 0 1-114.048 117.12c-65.28 0.384-116.992-49.28-117.376-113.408-0.448-66.112 49.6-117.504 114.88-117.888zM500.48-39.04c-25.408-26.304-47.168-50.112-70.592-71.936-20.096-18.88-46.72-20.928-67.712-7.36a52.48 52.48 0 0 0-20.096 59.52c3.712 9.92 10.24 19.328 17.664 26.752 20.48 21.76 42.24 42.304 66.048 66.112-22.144 21.76-45.568 41.92-64.832 64.96a94.976 94.976 0 0 0-20.48 46.4c-2.496 20.16 10.24 36.544 29.504 44.8 22.592 9.408 43.136 4.928 60.352-11.904 22.976-22.208 45.12-45.632 70.144-71.104 19.328 19.712 36.992 38.208 55.04 56.704 18.432 18.496 36.928 36.16 56.64 55.424-35.712 66.176-43.136 133.568-13.952 203.008 19.712 47.232 52.48 82.56 96.832 107.2 85.76 47.68 204.8 29.568 267.2-40.64 75.52-84.672 81.664-196.8 15.616-287.616-49.28-67.84-164.224-124.48-288.96-57.536l-112.448-112.576c22.592-21.76 46.336-44.352 68.928-67.776 14.784-15.168 18.88-34.112 12.352-55.04-6.592-20.48-21.376-31.232-41.92-34.112-18.88-2.88-34.88 3.712-48 16.832-21.312 22.208-43.072 44.416-67.328 69.888z m417.856 375.04c0 63.744-52.16 115.456-116.16 115.456a117.12 117.12 0 0 1-116.544-115.392 116.352 116.352 0 0 1 117.376-116.288 115.2 115.2 0 0 1 115.328 116.288z"  horiz-adv-x="1024" />

    
    <glyph glyph-name="shenfenhuji" unicode="&#58990;" d="M864.6656 77.4144h-145.681067a46.557867 46.557867 0 1 0 0 93.184h145.681067a46.557867 46.557867 0 1 0 0-93.184z m97.0752 121.2416h-242.756267a46.557867 46.557867 0 1 0 0 93.184h242.756267a46.557867 46.557867 0 1 0 0-93.184z m-465.578667 30.037333a146.8416 146.8416 0 0 0-146.773333 146.773334c0 81.032533 65.7408 146.773333 146.773333 146.773333 80.964267 0 146.773333-65.7408 146.773334-146.773333 0-80.964267-65.809067-146.773333-146.773334-146.773334z m4.5056 200.2944a58.026667 58.026667 0 1 1 58.026667-58.026666 58.026667 58.026667 0 0 1-58.026667 58.026666z m574.805334-485.376H298.8032a95.4368 95.4368 0 0 0-95.232 95.232V572.893867c0 52.4288 42.734933 95.300267 95.232 95.300266h776.669867c52.497067 0 95.300267-42.8032 95.300266-95.300266v-411.511467a46.557867 46.557867 0 1 0-93.184 0V572.893867a1.8432 1.8432 0 0 1-1.8432 1.8432H298.871467a1.8432 1.8432 0 0 1-1.911467-1.8432v-534.050134c0-1.024 0.8192-1.8432 1.8432-1.8432h776.669867c25.8048 0 46.626133-20.821333 46.626133-46.421333a46.557867 46.557867 0 0 0-46.626133-47.035733z m-826.845867 169.984H153.326933A95.4368 95.4368 0 0 0 58.026667 208.964267v533.845333C58.026667 795.101867 100.829867 837.973333 153.326933 837.973333h776.669867c52.4288 0 95.232-42.8032 95.232-95.300266V622.250667a46.557867 46.557867 0 1 0-93.184 0V742.673067a1.8432 1.8432 0 0 1-1.774933 1.8432H153.326933a1.8432 1.8432 0 0 1-1.8432-1.8432v-534.050134c0-1.024 0.8192-1.8432 1.8432-1.8432h95.300267a46.557867 46.557867 0 1 0 0-93.115733z"  horiz-adv-x="1228" />

    
    <glyph glyph-name="nianling" unicode="&#58989;" d="M877.266824-50.176h-123.843765c83.968 61.560471 171.851294 136.312471 206.908235 183.717647 27.949176 37.767529 59.392 90.834824 54.814118 166.610824-3.614118 59.753412-31.984941 115.832471-80.112941 157.876705a271.661176 271.661176 0 0 1-179.440942 66.319059c-74.209882 0-138.059294-37.948235-181.248-73.005176v52.284235c36.141176 22.287059 121.434353 83.124706 121.434353 159.442824 0 94.750118-131.553882 165.647059-137.095529 168.658823a35.719529 35.719529 0 0 1-33.129412 0c-5.541647-3.011765-137.095529-73.908706-137.095529-168.658823 0-76.257882 85.293176-137.095529 121.434353-159.442824v-50.718118c-42.405647 34.635294-105.231059 71.439059-181.308236 71.439059a271.661176 271.661176 0 0 1-179.440941-66.258823c-48.007529-42.164706-76.498824-98.183529-80.112941-157.936941-3.493647-59.271529 13.432471-110.652235 54.934588-166.671059 34.816-46.983529 123.241412-121.795765 207.932236-183.717647H93.364706c-17.829647 0-32.225882-12.769882-32.225882-28.611765s14.456471-28.672 32.225882-28.672h783.902118c17.769412 0 32.225882 12.830118 32.225882 28.672s-14.456471 28.672-32.225882 28.672zM452.909176 663.070118c0 43.670588 54.633412 87.702588 89.268706 109.748706 34.635294-21.985882 89.148235-65.837176 89.148236-109.748706 0-43.670588-54.633412-87.642353-89.268706-109.688471-34.635294 21.925647-89.148235 65.837176-89.148236 109.688471z m-16.745411-713.246118c-104.448 69.150118-223.533176 168.176941-258.409412 215.220706-33.852235 45.718588-47.104 85.172706-44.333177 132.096 5.662118 93.665882 93.244235 169.863529 195.162353 169.863529 105.893647 0 185.946353-104.688941 186.729412-105.712941 5.842824-7.830588 15.721412-12.649412 26.383059-12.769882a34.032941 34.032941 0 0 1 26.804706 12.167529c23.431529 29.515294 102.701176 106.375529 187.090823 106.37553 101.978353 0 189.560471-76.257882 195.162353-169.923765 2.891294-46.802824-10.420706-86.317176-44.272941-132.156235-35.177412-47.525647-153.660235-146.492235-257.14447-215.160471H436.163765z m577.536-8.432941a35.177412 35.177412 0 0 1-45.598118 0c-6.023529-5.360941-9.396706-12.649412-9.456941-20.239059a25.660235 25.660235 0 0 1 5.421176-15.902118 28.491294 28.491294 0 0 1 8.914824-7.951058 34.093176 34.093176 0 0 1 11.625412-4.216471 35.538824 35.538824 0 0 1 29.093647 7.830588 30.298353 30.298353 0 0 1 6.927059 9.276235 25.720471 25.720471 0 0 1 2.469647 10.962824 27.286588 27.286588 0 0 1-9.396706 20.239059z"  horiz-adv-x="1084" />

    
    <glyph glyph-name="dangyuan" unicode="&#58988;" d="M1019.426133-67.7888H72.840533C32.5632-67.7888 0-34.474667 0 6.3488V821.8624C0 862.8224 32.631467 896 72.840533 896h946.5856C1059.703467 896 1092.266667 862.8224 1092.266667 821.8624v-815.5136c0-40.96-32.631467-74.1376-72.840534-74.1376z m-55.637333 835.310933H128.477867v-706.7648h835.310933V767.522133zM254.839467 414.037333l36.4544 74.1376 36.386133-74.1376h72.840533L327.68 377.0368l36.386133-74.1376-72.772266 37.0688-72.840534-37.0688 36.386134 74.1376-72.772267 37.0688h72.772267z m145.681066-185.344L436.906667 302.8992l36.386133-74.1376H546.133333l-72.840533-37.0688 36.4544-74.1376L436.906667 154.624l-72.840534-37.0688 36.4544 74.1376L327.68 228.7616h72.840533zM655.36 302.8992l36.386133-74.1376H764.586667l-72.840534-37.0688 36.4544-74.1376L655.36 154.624l-72.840533-37.0688 36.4544 74.1376L546.133333 228.7616h72.840534L655.36 302.8992z m109.226667 74.1376l-72.840534 37.0688H764.586667l36.386133 74.1376 36.4544-74.1376h72.772267l-72.772267-37.0688 36.386133-74.1376-72.840533 37.0688-72.772267-37.0688 36.386134 74.1376z m-109.226667 0L546.133333 451.1744 436.906667 377.0368l36.386133 148.2752-109.226667 74.1376h145.681067L546.133333 710.724267l36.386134-111.274667h145.681066l-109.226666-74.1376 36.386133-148.2752z"  horiz-adv-x="1092" />

    
    <glyph glyph-name="zitisuoxiao1" unicode="&#58950;" d="M631.1 629.1h345.4v-41H631.1zM368.5 745.5L57.2 40.8h73.2l101.3 236.8h346.7l98.9-236.8h78.1L444.2 745.5h-75.7zM559 324H251.3l54.9 127.6c35.4 82.2 65.9 156.6 96.4 241.7h4.9c31.7-85.1 61-159.5 97.7-241.7L559 324z"  horiz-adv-x="1024" />

    
    <glyph glyph-name="zitifangda" unicode="&#58942;" d="M631.1 629.1h152.2v-41H631.1zM824.3 629.1h152.2v-41H824.3zM783.3 588.2h41V436h-41zM783.3 781.4h41v-152.2h-41zM783.3 629.1h41v-41h-41zM368.5 745.5L57.2 40.8h73.2l101.3 236.8h346.7l98.9-236.8h78.1L444.2 745.5h-75.7zM559 324H251.3l54.9 127.6c35.4 82.2 65.9 156.6 96.4 241.7h4.9c31.7-85.1 61-159.5 97.7-241.7L559 324z"  horiz-adv-x="1024" />

    
    <glyph glyph-name="zitisuoxiao" unicode="&#58948;" d="M367.0016 896H532.48l367.0016-952.832H743.3216l-89.3952 245.5552H244.224l-89.3952-245.5552H0L367.0016 896z m-78.7456-587.1616h321.536l-157.3888 431.104h-5.3248l-158.72-431.104zM819.2 637.952h409.6v102.4H819.2z"  horiz-adv-x="1228" />

    
    <glyph glyph-name="zitifangda1" unicode="&#58949;" d="M367.0016 896H532.48l367.0016-952.832H743.3216l-89.3952 245.5552H244.224l-89.3952-245.5552H0L367.0016 896z m-78.7456-587.1616h321.536l-157.3888 431.104h-5.3248l-158.72-431.104zM972.8 740.352V893.952h102.4v-153.6H1228.8v-102.4h-153.6v-153.6h-102.4v153.6H819.2v102.4h153.6z"  horiz-adv-x="1228" />

    
    <glyph glyph-name="jingyingzhengchang" unicode="&#58982;" d="M6.023529 892.048565h1011.952942v-1011.952941L512 29.382776 6.023529-119.904376z"  horiz-adv-x="1024" />

    
    <glyph glyph-name="yichangliebiao1" unicode="&#58981;" d="M800.871478 88.653609V387.704253a285.197341 285.197341 0 1 1-570.394683 0v-298.327863a108.236457 108.236457 0 0 1-61.436386-97.274278v-52.642551c0-36.741368 29.814717-66.556085 66.616317-66.556085h560.878066c36.741368 0 66.495853 29.814717 66.495853 66.556085v51.91977a108.236457 108.236457 0 0 1-62.159167 97.274278zM304.381154 387.704253a212.015764 212.015764 0 1 0 424.091759 0v-286.703135H454.297982v165.336156a36.560673 36.560673 0 1 1-73.121345 0v-165.275925H304.381154v286.703135z m485.528145-438.728075H241.559438v42.403153a35.115111 35.115111 0 0 0 35.054879 36.560673h476.794541c19.394624 0 35.115111-15.720487 35.115111-35.115111l1.445562-43.848715zM515.734369 732.892418a36.560673 36.560673 0 0 1 36.560672 36.560673V859.379095a36.560673 36.560673 0 0 1-73.181577 0V769.453091c0-20.237868 16.383036-36.560673 36.620905-36.560673zM218.069055 566.893712a36.560673 36.560673 0 0 1-13.130522 49.691195l-78.301276 45.354508a36.741368 36.741368 0 1 1-36.500442-63.604729l78.241045-45.354508a35.837892 35.837892 0 0 1 18.250221-5.119699 36.560673 36.560673 0 0 1 31.440974 19.033233z m-108.236457-133.11217H66.706664a36.560673 36.560673 0 1 1 0-73.121346h42.403153a36.560673 36.560673 0 1 1 0 73.121346h0.722781zM282.517028 723.375801a35.837892 35.837892 0 0 1 49.751427-13.190753 36.560673 36.560673 0 0 1 13.853303 49.028645l-21.201577 37.283454a36.741368 36.741368 0 0 1-63.664961-36.560673l21.261808-36.560673z m414.575143-18.310452a36.560673 36.560673 0 0 1 46.07729 13.853303l24.875713 40.295041a36.741368 36.741368 0 1 1-63.604729 36.560673l-21.201577-37.343685a36.560673 36.560673 0 0 1 13.853303-53.365332z m256.707723-280.800423h-42.403153a36.560673 36.560673 0 0 1 0-73.121346h42.403153a36.560673 36.560673 0 0 1 0 73.121346z m-114.801717 115.524498a36.560673 36.560673 0 0 1 18.25022 5.119699l78.301277 45.354509a36.741368 36.741368 0 1 1-36.620905 63.604729l-78.241045-45.294277a36.560673 36.560673 0 0 1 18.310453-68.061879v-0.722781z"  horiz-adv-x="1024" />

    
    <glyph glyph-name="xinxichaxun" unicode="&#58980;" d="M776.194048 738.5088a40.413867 40.413867 0 0 1-11.605333 27.989333 37.6832 37.6832 0 0 1-27.306667 11.332267H640.343381v-39.3216a39.1168 39.1168 0 0 0-38.912-39.389867H271.703381a39.1168 39.1168 0 0 0-38.775466 39.389867v39.3216H116.396715a39.1168 39.1168 0 0 1-38.775467-39.3216V-9.898667c0-21.640533 17.339733-39.3216 38.775467-39.3216h310.4768L504.492715-128H77.621248A78.2336 78.2336 0 0 0 0.002048-49.220267V777.8304C0.002048 821.316267 34.749781 856.610133 77.621248 856.610133H232.791381c0 21.777067 17.339733 39.389867 38.775467 39.389867h329.864533c21.435733 0 38.912-17.6128 38.912-39.389867h135.714134c43.008 0 77.6192-35.293867 77.6192-78.779733v-361.403733l-77.6192-81.783467V738.5088z m-174.762667-275.797333H252.315648a18.8416 18.8416 0 0 0-13.653333 5.7344 20.206933 20.206933 0 0 0-5.7344 13.994666v19.729067c0 5.256533 2.048 10.24 5.7344 13.994667a18.8416 18.8416 0 0 0 13.653333 5.666133H601.431381c10.717867 0 19.456-8.874667 19.456-19.6608v-19.729067a20.206933 20.206933 0 0 0-5.802666-13.994666 18.909867 18.909867 0 0 0-13.653334-5.666134z m19.524267-196.881067a20.2752 20.2752 0 0 0-5.802667-13.994667 18.909867 18.909867 0 0 0-13.653333-5.666133H252.247381a18.8416 18.8416 0 0 0-13.653333 5.666133 20.206933 20.206933 0 0 0-5.7344 13.994667v19.729067c0 5.256533 2.048 10.24 5.7344 13.994666a18.8416 18.8416 0 0 0 13.653333 5.666134H601.431381c10.717867 0 19.456-8.8064 19.456-19.6608v-19.729067z m-63.351467-223.6416v-115.370667H669.015381l328.430934 340.036267-111.342934 115.234133-328.4992-339.968z m526.062934 313.7536a31.607467 31.607467 0 0 1 0 43.349333l-69.563734 71.953067a28.945067 28.945067 0 0 1-41.7792 0l-54.340266-56.251733 111.274666-115.234134 54.408534 56.183467z"  horiz-adv-x="1092" />

    
    <glyph glyph-name="logo2" unicode="&#58977;" d="M103.496989 674.99801L464.323571 883.013134a94.054037 94.054037 0 0 0 95.34905 0l358.688306-207.985007A96.22243 96.22243 0 0 0 963.746592 591.966636v-415.970015a96.282663 96.282663 0 0 0-45.385665-83.031373l-358.688306-207.985008a94.054037 94.054037 0 0 0-95.34905 0L105.575032 92.965248a96.282663 96.282663 0 0 0-45.295315 83.031373V591.966636a96.282663 96.282663 0 0 0 43.126923 83.031374h0.090349z m408.621573-711.112366l363.205791 212.110977-2.349092 420.126102-363.205791 207.954891-363.235907-212.110978v-420.126101l363.266024-207.954891h4.517485-2.258743 0.060233z m-41.952377 370.825282v-165.129133a45.626598 45.626598 0 0 0-22.828357-39.272003 45.17485 45.17485 0 0 0-45.265199 0.09035l-141.969494 82.579625a45.626598 45.626598 0 0 0-22.738008 39.151536v165.15925a45.626598 45.626598 0 0 0 22.617541 39.633402 45.17485 45.17485 0 0 0 45.476016 0l142.150193-82.489276c14.12467-8.161589 22.798241-23.340339 22.707891-39.723751h-0.150583z m-90.741214-26.020713v-59.751268l-51.378863 29.725051v59.721151l51.378863-29.694934z m107.576375 134.169303l-141.999611 82.489276a45.626598 45.626598 0 0 0 0 78.965637l142.059844 82.519392a45.17485 45.17485 0 0 0 45.476015 0l142.029728-82.579625a45.626598 45.626598 0 0 0 0-78.905404l-142.059844-82.519392a45.17485 45.17485 0 0 0-45.445899 0h-0.060233z m84.928717-68.424839l142.120077 82.519392a45.17485 45.17485 0 0 0 45.476015-0.030116c14.064437-8.191706 22.677775-23.310222 22.617542-39.633402v-165.129133a45.626598 45.626598 0 0 0-22.738008-39.272003L617.406079 130.40014a45.17485 45.17485 0 0 0-45.295316-0.09035 45.626598 45.626598 0 0 0-22.828358 39.272003v165.129133a45.626598 45.626598 0 0 0 22.647658 39.753868z m-62.130476 160.461066l-51.378863 29.634701 51.378863 30.116567 51.378862-30.116567-51.378862-29.725051v0.09035z"  horiz-adv-x="1024" />

    
    <glyph glyph-name="guanbishexiangtou" unicode="&#58979;" d="M98.018408 711.581804l603.424222-676.332743 38.665625 38.665625-603.424223 676.331719zM882.856399 588.964138c-11.994172 0-19.699668-6.063089-20.221553-6.572695l-133.079948-86.047772v-252.164137l132.181485-85.382622c1.419326-1.221828 9.125845-7.283894 21.118993-7.283894 15.97688 0 28.969798 13.872962 28.969799 30.930453V558.033685c0.001023 17.057491-12.991895 30.930453-28.968776 30.930453zM656.646378 577.572694c0 26.378787-20.660552 47.846728-46.047756 47.846728H317.463352l339.183026-373.512903V577.572694zM73.377194 577.572694v-414.667208c0-26.378787 20.659529-47.846728 46.047756-47.846728h439.882496L99.940177 620.919944c-15.677051-7.640004-26.562982-24.199145-26.562983-43.34725z"  horiz-adv-x="1024" />

    
    <glyph glyph-name="tongjifenxi" unicode="&#58973;" d="M1023.931738 384.034131H511.965869V896C796.414106 896 1023.931738 668.482368 1023.931738 384.034131zM392.711953 896v-115.021665c-160.415972-57.544964-276.529831-207.10726-276.529832-391.141924 0-224.377575 171.406173-402.746484 387.182721-402.746484 177.003666 0 320.831945 120.823945 370.595027 287.656557h110.584628c-49.831345-230.04333-248.883674-402.678221-486.708886-402.678222C221.169255-127.931738 0 102.111593 0 389.768149 5.529231 637.150057 171.474435 844.257316 392.711953 896z"  horiz-adv-x="1024" />

    
    <glyph glyph-name="suofang" unicode="&#58971;" d="M102.253714 750.006857l152.478476-152.771047 43.641905 43.836952 2.145524 1.999238L150.332952 793.6h155.989334V858.453333H37.497905v-267.459047h64.755809v158.963809zM298.130286 130.925714l-43.739429 43.788191-1.950476 2.145524-150.186667-150.381715v156.086857H37.546667v-269.312h266.922666v64.853334H145.700571l152.429715 152.819809zM713.923048 858.453333V793.6h155.940571l-148.089905-148.382476-1.999238-2.145524 43.739429-43.78819 1.950476-1.950477 152.527238 152.624762v-158.963809h64.75581V858.453333H713.874286z m204.068571-832.121904l-150.235429 150.430476-43.739428-43.836953-1.950476-1.999238 152.380952-152.771047h-158.72v-64.853334h267.020191v269.263238h-64.75581v-156.233142z m-407.844571 607.085714a247.612952 247.612952 0 0 1-247.125334-247.417905c0-136.387048 110.83581-247.56419 247.125334-247.56419a247.515429 247.515429 0 0 1 0 495.030857z m182.320762-247.564191a182.662095 182.662095 0 0 0-182.369524-182.662095 182.662095 182.662095 0 0 0 0 365.372953c100.59581 0 182.369524-81.92 182.369524-182.710858z"  horiz-adv-x="1024" />

    
    <glyph glyph-name="logo1" unicode="&#58970;" d="M541.838222 896l287.687111-167.537778-287.687111-167.509333V896zM875.235556 701.866667l89.116444-51.882667v-221.923556l-279.665778 162.844445 190.577778 110.933333z m89.116444-327.025778v-243.512889l-182.528-106.268444V481.109333l182.528-106.268444z m-228.238222-376.405333L518.968889-128 224.483556 43.463111l511.630222 297.898667v-342.926222zM178.773333 70.087111L73.585778 131.328V614.030222l519.68-302.620444-414.492445-241.322667zM88.405333 658.602667L496.128 896v-474.794667L88.405333 658.602667zM532.878222 392.533333v113.777778l100.209778 56.888889 100.209778-56.888889v-113.777778l-100.209778-56.888889z"  horiz-adv-x="1024" />

    
    <glyph glyph-name="xinwen" unicode="&#58969;" d="M275.692308 68.923077h482.461538V758.153846H137.846154v-689.230769H275.692308z m-275.692308 0V896h896v-206.769231H1102.769231V68.923077c0-75.854769-61.991385-137.846154-137.846154-137.846154H137.846154C62.070154-68.923077 0-6.931692 0 68.923077z m896 482.461538v-448.039384c0-20.637538 13.784615-34.422154 34.500923-34.422154 20.637538 0 34.422154 13.784615 34.422154 34.500923V551.384615h-68.923077z m-689.230769 137.846154H689.230769v-137.846154H206.769231v137.846154z m0-206.769231H689.230769V344.615385H206.769231V482.461538z m0-206.76923H551.384615v-137.846154H206.769231v137.846154z"  horiz-adv-x="1102" />

    
    <glyph glyph-name="yifasong" unicode="&#58943;" d="M24.64 496.64l940.8 392.064a29.248 29.248 0 0 0 39.68-34.112l-234.368-937.472a29.248 29.248 0 0 0-47.104-15.36l-203.456 169.6a29.248 29.248 0 0 1-39.424-1.92l-104.32-104.256a29.248 29.248 0 0 0-49.92 20.608v220.48c0 7.744 3.072 15.168 8.512 20.672l424.448 424.448-501.12-375.872a29.248 29.248 0 0 0-36.224 0.96L17.216 447.168a29.248 29.248 0 0 0 7.424 49.472z"  horiz-adv-x="1024" />

    
    <glyph glyph-name="banli" unicode="&#58944;" d="M910.72-101.312H113.28a37.312 37.312 0 0 0 0 74.624H910.72a37.312 37.312 0 1 0 0-74.624z m0 148.48H114.944a37.312 37.312 0 0 0-37.312 37.248V216.32a118.4 118.4 0 0 0 118.272 118.272h150.72c-2.048 39.296-15.424 102.272-27.52 116.224a300.16 300.16 0 0 0-64.192 173.696A244.16 244.16 0 0 0 332.16 804.224 243.2 243.2 0 0 0 512.896 868.8a242.624 242.624 0 0 0 257.92-240.576 299.328 299.328 0 0 0-63.04-174.528c-12.992-15.168-26.496-77.952-28.736-117.248h150.72a118.4 118.4 0 0 0 118.272-118.272v-133.76a37.312 37.312 0 0 0-37.312-37.312zM152.256 121.664h721.152v96.448a43.712 43.712 0 0 1-43.648 43.712H653.568a37.312 37.312 0 0 0-30.528 15.872 106.368 106.368 0 0 0-18.624 50.304 38.4 38.4 0 0 0-0.192 4.8c0.64 23.552 10.944 127.424 45.824 168a223.232 223.232 0 0 1 46.08 128.576 167.936 167.936 0 0 1-180.48 164.8 37.248 37.248 0 0 0-5.504 0 168.32 168.32 0 0 1-180.672-168.128 224 224 0 0 1 47.36-128c34.112-39.36 44.032-143.68 44.608-167.296a104.192 104.192 0 0 0-18.816-54.912 37.376 37.376 0 0 0-30.528-15.872H195.84a43.712 43.712 0 0 1-43.648-43.712v-94.592z"  horiz-adv-x="1024" />

    
    <glyph glyph-name="shuru" unicode="&#58945;" d="M872.448 457.9328a32.221867 32.221867 0 0 1-32.017067-33.314133v-407.552c0-43.8272-33.928533-81.032533-77.687466-81.032534h-595.285334c-43.8272 0-94.754133 37.205333-94.754133 81.032534V613.444267c0 43.8272 50.926933 90.589867 94.685867 90.589866h340.309333c18.432 0 33.245867 13.585067 33.245867 31.9488a32.1536 32.1536 0 0 1-33.245867 32.085334H167.389867c-87.4496 0-158.72-66.901333-158.72-154.692267v-596.309333C8.669867-70.656 79.940267-128 167.389867-128h595.285333c87.586133 0 141.7216 57.344 141.7216 145.066667v407.552c0 18.363733-13.585067 33.314133-31.9488 33.314133z m131.072 361.403733l-48.674133 48.810667c-37.0688 37.137067-102.263467 37.137067-139.332267 0l-92.091733-108.270933-490.837334-469.947734v-11.4688l-0.341333-1.979733-61.713067-209.3056 45.329067-40.482133 197.973333 69.8368 2.525867-0.546134h9.762133l469.333334 491.52L1003.52 675.84c38.365867 38.434133 38.365867 104.994133 0 143.496533zM257.774933 113.117867l28.808534 91.886933 57.617066-57.685333-86.4256-34.133334z m144.9984 68.539733L317.917867 266.513067l438.818133 436.6336 82.056533-82.193067-436.087466-439.296z m554.461867 544.631467l-65.399467-65.399467-95.163733 95.300267 65.3312 65.467733c6.144 6.144 14.404267 9.557333 23.210667 9.557333 8.874667 0 17.066667-3.413333 23.210666-9.557333l48.7424-48.810667a32.9728 32.9728 0 0 0 0-46.557866z"  horiz-adv-x="1092" />

    
    <glyph glyph-name="luru" unicode="&#58946;" d="M341.824-90.112H186.176a143.808 143.808 0 0 0-143.36 143.36V720.384a143.808 143.808 0 0 0 143.36 143.36h667.136a143.808 143.808 0 0 0 143.36-143.36v-155.136c0-22.528-18.432-40.96-40.96-40.96a41.088 41.088 0 0 0-40.96 40.96V720.384a61.632 61.632 0 0 1-61.44 61.44H186.176a61.632 61.632 0 0 1-61.44-61.44v-667.136c0-33.792 27.648-61.44 61.44-61.44h155.136c22.528 0 40.96-18.432 40.96-40.96 0-22.528-17.92-40.96-40.448-40.96z m160.256 9.728a43.328 43.328 0 0 0-29.184 11.776 41.088 41.088 0 0 0 0 57.856l451.584 452.096a41.088 41.088 0 0 0 57.856 0 41.088 41.088 0 0 0 0-57.856l-451.584-451.584a39.552 39.552 0 0 0-28.672-12.288zM790.336 555.008H249.664a41.088 41.088 0 0 0-40.96 40.96c0 22.528 18.432 40.96 40.96 40.96h541.184c22.528 0 40.96-18.432 40.96-40.96 0-22.528-18.432-40.96-41.472-40.96z m-225.28-278.016H249.664a41.088 41.088 0 0 0-40.96 40.96c0 22.528 18.432 40.96 40.96 40.96h315.904c22.528 0 40.96-18.432 40.96-40.96 0-22.528-18.432-40.96-41.472-40.96z"  horiz-adv-x="1024" />

    
    <glyph glyph-name="xiansuoguankong" unicode="&#58941;" d="M302.714592 670.60462a72.184789 72.184789 0 0 0-72.213634-72.199212H86.102535a72.184789 72.184789 0 0 0-72.199211 72.199212V815.031887A72.213634 72.213634 0 0 0 86.088113 887.231099h144.412845a72.184789 72.184789 0 0 0 72.213634-72.199212v-144.427267z m361.024901 0a72.184789 72.184789 0 0 0-72.199211-72.199212H447.127437a72.184789 72.184789 0 0 0-72.213634 72.199212V815.031887A72.184789 72.184789 0 0 0 447.127437 887.231099h144.412845a72.184789 72.184789 0 0 0 72.199211-72.199212v-144.427267z m361.039324 0a72.184789 72.184789 0 0 0-72.213634-72.199212H808.152338a72.184789 72.184789 0 0 0-72.213634 72.199212V815.031887A72.213634 72.213634 0 0 0 808.152338 887.231099h144.412845a72.184789 72.184789 0 0 0 72.213634-72.199212v-144.427267zM302.714592 309.579718a72.184789 72.184789 0 0 0-72.213634-72.213633H86.102535A72.184789 72.184789 0 0 0 13.888901 309.579718V453.992563a72.213634 72.213634 0 0 0 72.199212 72.213634h144.412845a72.184789 72.184789 0 0 0 72.213634-72.213634V309.579718z m361.024901 0a72.184789 72.184789 0 0 0-72.199211-72.213633H447.127437a72.184789 72.184789 0 0 0-72.213634 72.213633V453.992563a72.184789 72.184789 0 0 0 72.213634 72.213634h144.412845a72.184789 72.184789 0 0 0 72.199211-72.213634V309.579718z m361.039324 0a72.184789 72.184789 0 0 0-72.213634-72.213633H808.152338a72.184789 72.184789 0 0 0-72.213634 72.213633V453.992563a72.213634 72.213634 0 0 0 72.213634 72.213634h144.412845a72.184789 72.184789 0 0 0 72.213634-72.213634V309.579718zM302.714592-51.445183a72.184789 72.184789 0 0 0-72.213634-72.213634H86.102535a72.184789 72.184789 0 0 0-72.199211 72.213634V92.953239a72.213634 72.213634 0 0 0 72.199211 72.199212h144.412845a72.184789 72.184789 0 0 0 72.213634-72.199212v-144.412845z m361.024901 0a72.184789 72.184789 0 0 0-72.199211-72.213634H447.127437a72.184789 72.184789 0 0 0-72.213634 72.213634V92.953239a72.184789 72.184789 0 0 0 72.213634 72.199212h144.412845a72.184789 72.184789 0 0 0 72.199211-72.199212v-144.412845z m361.039324 0a72.184789 72.184789 0 0 0-72.213634-72.213634H808.152338a72.184789 72.184789 0 0 0-72.213634 72.213634V92.953239a72.213634 72.213634 0 0 0 72.213634 72.199212h144.412845a72.184789 72.184789 0 0 0 72.213634-72.199212v-144.412845z"  horiz-adv-x="1038" />

    
    <glyph glyph-name="zhihuitiaodu" unicode="&#58940;" d="M870.485333 207.815111a402.716444 402.716444 0 0 0-182.414222-182.983111A177.976889 177.976889 0 0 0 512-128a177.948444 177.948444 0 0 0-176.156444 153.258667 402.773333 402.773333 0 0 0-182.784 182.613333A177.976889 177.976889 0 0 0 0 384c0 89.799111 66.56 163.84 152.945778 176.099556a402.773333 402.773333 0 0 0 182.926222 182.897777A177.976889 177.976889 0 0 0 512 896a177.976889 177.976889 0 0 0 176.071111-152.604444 402.744889 402.744889 0 0 0 182.528-183.210667A177.976889 177.976889 0 0 0 1024 384a177.976889 177.976889 0 0 0-153.514667-176.184889zM512-38.968889a89.031111 89.031111 0 1 1 0 178.119111 89.031111 89.031111 0 0 1 0-178.119111z m-333.937778 512a89.031111 89.031111 0 1 1 0.028445-178.062222 89.031111 89.031111 0 0 1 0 178.062222zM512 806.968889a89.031111 89.031111 0 1 1 0-178.119111 89.031111 89.031111 0 0 1 0 178.119111z m164.124444-158.321778a178.147556 178.147556 0 0 0-328.305777 0.170667 313.173333 313.173333 0 0 1-100.522667-100.693334 178.119111 178.119111 0 0 0 0.142222-328.220444c25.372444-40.675556 59.733333-75.178667 100.465778-100.465778a178.147556 178.147556 0 1 0 328.106667 0.142222 313.941333 313.941333 0 0 1 100.323555 100.437334 178.147556 178.147556 0 0 0 0.113778 328.021333 314.112 314.112 0 0 1-100.352 100.608z m169.813334-175.616a89.031111 89.031111 0 1 1 0-178.062222 89.031111 89.031111 0 0 1 0 178.062222z"  horiz-adv-x="1024" />

    
    <glyph glyph-name="pingtaidaohang" unicode="&#58938;" d="M531.968-128C251.676444-128 24.462222 101.262222 24.462222 384S251.676444 896 531.968 896c280.263111 0 507.505778-229.262222 507.505778-512s-227.242667-512-507.505778-512z m0 938.666667C298.382222 810.666667 109.027556 619.633778 109.027556 384c0-235.662222 189.354667-426.666667 422.940444-426.666667S954.88 148.337778 954.88 384c0 235.633778-189.326222 426.666667-422.912 426.666667z m-34.702222-462.250667L193.308444 397.198222 786.204444 640.284444 545.422222 42.666667 497.208889 348.444444z"  horiz-adv-x="1052" />

    
    <glyph glyph-name="new" unicode="&#58936;" d="M887.872 630.4 136.128 630.4C96.288 630.4 64 598.112 64 558.272l0-349.44c0-39.84 32.288-72.128 72.128-72.128l751.744 0c39.84 0 72.128 32.288 72.128 72.128l0 349.44C960 598.112 927.712 630.4 887.872 630.4L887.872 630.4zM323.04 269.984 271.584 269.984l-97.632 189.504 0-188.48L143.168 271.008l0 224.096 45.568 0 100.448-194.336 3.04 0 0 195.36 30.784 0L323.008 269.984 323.04 269.984zM527.072 399.328l0-30.784-125.344-0.064c0.032-2.304 0.064-4.416 0.064-6.368l0-0.16c0.128-39.52 12.672-59.552 37.28-59.552l88 0 0-30.784-88 0c-19.392 0-35.904 7.296-47.776 21.12-13.344 15.552-20.16 38.784-20.288 69.056-0.16 11.584-0.256 29.12-0.256 53.6 0 50.944 35.392 75.072 68.512 80.672l1.44 0.224c13.728 1.376 79.168 0.448 86.592 0.352l-0.448-30.784c-27.936 0.416-72.48 0.704-82.56-0.16-12.96-2.208-42.752-11.552-42.752-50.304 0-5.76 0-11.104 0-16.096L527.072 399.328 527.072 399.328zM815.872 269.984l-45.76 0-45.696 180.224-50.88-180.224-47.104 0L560.768 496l33.568 0 58.048-184.992 1.92 1.024 51.2 184.608 38.848 0 49.312-194.368 60.192 193.792 32.416 0L815.872 269.984 815.872 269.984zM815.872 269.984"  horiz-adv-x="1024" />

    
    <glyph glyph-name="xiansuoguankongpingtai" unicode="&#58935;" d="M213.678829 776.666537h119.333464v-59.654244H213.666341V776.666537z m0-357.975415h119.333464V359.02439H213.666341v59.666732z m0-357.987902h119.333464v-59.666732H213.666341v59.666732zM869.987902 836.333268V657.358049H154.012098V836.333268h715.975804zM929.654634 896H94.345366v-298.321171h835.309268V896z m-59.666732-417.642146v-179.000195H154.012098V478.357854h715.975804z m59.666732 59.654244H94.345366v-298.321171h835.309268v298.333658zM869.987902 120.382439v-178.987707H154.012098V120.369951h715.975804z m59.666732 59.666732H94.345366v-298.333659h835.309268v298.333659z"  horiz-adv-x="1024" />

    
    <glyph glyph-name="gongzuotai" unicode="&#58934;" d="M1052.803282 343.630769c21.162667 0 38.518154 94.523077 38.518154 115.698872V768c0 63.63241-52.066462 115.698872-115.685744 115.698872H126.897231C63.264821 883.685744 11.198359 831.619282 11.198359 768v-617.353846c0-63.63241 52.066462-115.698872 115.698872-115.698872h219.93682l-19.456-77.16759h-123.444513A38.662564 38.662564 0 0 1 165.415385-80.738462a38.662564 38.662564 0 0 1 38.518153-38.518153h694.534565a38.662564 38.662564 0 0 1 38.518153 38.518153 38.662564 38.662564 0 0 1-38.518153 38.518154H755.685744l-19.31159 77.16759h239.261538c63.619282 0 115.685744 52.066462 115.685744 115.698872v385.837949a38.662564 38.662564 0 0 1-38.518154 38.531282 38.662564 38.662564 0 0 1-38.531282-38.518154v-385.851077a38.662564 38.662564 0 0 0-38.518154-38.518154H126.765949a38.662564 38.662564 0 0 0-38.518154 38.518154V768a38.662564 38.662564 0 0 0 38.518154 38.518154h848.869743A38.662564 38.662564 0 0 0 1014.153846 768v-308.683487c0-21.162667 17.355487-115.685744 38.649436-115.685744zM655.386256 34.947282l19.324718-77.16759H408.497231l19.31159 77.16759h227.577435z m90.715898 385.851077l-181.431795 291.314872c-7.745641 11.579077-19.31159 19.337846-32.728615 17.368615-13.548308 0-26.952205-7.758769-32.741744-19.324718l-162.093949-289.345641H184.608821a38.662564 38.662564 0 0 1-38.518154-38.531282 38.662564 38.662564 0 0 1 38.518154-38.531282h173.673025c13.522051 0 26.952205 7.758769 32.728616 19.324718L531.82359 615.752205l158.155487-252.678564c7.745641-11.565949 19.324718-17.355487 32.741744-17.355487h154.335179a38.662564 38.662564 0 0 1 38.531282 38.531282 38.662564 38.662564 0 0 1-38.531282 38.518154h-130.953846v-1.969231z"  horiz-adv-x="1102" />

    
    <glyph glyph-name="falv" unicode="&#58893;" d="M1160.533333 385.51552h-0.136533L984.51456 763.972267V800.781653H661.777067c0 53.643947-36.181333 92.40576-84.04992 92.40576-45.21984 0-84.04992-36.181333-84.04992-92.40576h-317.44v-42.871466L3.249493 385.501867a0.8192 0.8192 0 0 0-0.095573 0v-0.218454C3.263147 275.0464 84.896427 174.6944 211.43552 174.6944c129.324373 0 208.145067 100.297387 208.2816 210.520747v0.28672h-0.136533L262.007467 725.97504h251.112106V7.850667h-246.1696c-94.399147 0-133.884587-45.356373-133.884586-129.897814h897.570133c0 72.594773-38.434133 129.897813-133.884587 129.897814H636.040533V726.05696h265.721174L744.133973 385.501867h-0.177493c0-110.318933 81.67424-210.807467 208.295253-210.807467 129.324373 0 208.131413 100.297387 208.2816 210.520747v0.28672z m-830.8736-0.136533c-69.986987-0.027307-166.597973-0.027307-236.557653 0l118.3744 292.181333 118.183253-292.181333z m504.326827 0l118.224213 292.181333 118.196907-292.181333c-69.95968-0.027307-166.488747-0.027307-236.42112 0z"  horiz-adv-x="1174" />

    
    <glyph glyph-name="tiaodu" unicode="&#58892;" d="M874.671158-128H149.328842C66.128842-128 0-61.871158 0 21.328842V746.671158C0 829.871158 66.128842 896 149.328842 896h725.342316C957.871158 896 1024 829.871158 1024 746.671158v-725.342316C1024-61.871158 957.871158-128 874.671158-128zM149.328842 810.671158c-36.257684 0-64-27.742316-64-64v-725.342316c0-36.257684 27.742316-64 64-64h725.342316c36.257684 0 64 27.742316 64 64V746.671158c0 36.257684-27.742316 64-64 64H149.328842z m620.8-226.142316h-42.657684c-17.071158 38.4-53.342316 64-98.142316 64-44.8 0-81.057684-25.6-98.128842-64H253.871158c-23.471158 0-40.542316-19.2-40.542316-40.528842v-2.128842c0-23.471158 19.2-40.542316 40.542316-40.542316h277.328842c17.071158-38.4 53.328842-64 98.128842-64s81.071158 25.6 98.142316 64h42.657684c23.471158 0 40.542316 19.2 40.542316 40.542316v2.128842c0 21.328842-19.2 40.528842-40.542316 40.528842z m0-320H492.8c-17.071158 38.4-53.328842 64-98.128842 64s-81.071158-25.6-98.142316-64h-42.657684c-23.471158 0-40.542316-19.2-40.542316-40.528842v-2.128842c0-23.471158 19.2-40.542316 40.542316-40.542316h42.657684c17.071158-38.4 53.342316-64 98.142316-64 44.8 0 81.057684 25.6 98.128842 64h277.328842c23.471158 0 40.542316 19.2 40.542316 40.542316v2.128842c0 21.328842-19.2 40.528842-40.542316 40.528842z"  horiz-adv-x="1024" />

    
    <glyph glyph-name="shangjijiaoban" unicode="&#58987;" d="M795.320515 831.695184V865.653907c0 8.850944-7.044629 16.256835-15.895572 16.256836H315.382607c-8.670312 0-15.895572-7.22526-15.895572-16.256836v-33.958723c0-8.850944-7.044629-16.256835-15.895573-16.256835H32.152408c-8.670312 0-15.895572-7.22526-15.895573-16.256836v-897.016052c0-8.850944 7.044629-16.256835 15.895573-16.256835h959.695184c8.670312 0 15.895572 7.22526 15.895573 16.256835V799.362145c0 8.850944-7.044629 16.256835-15.895573 16.256835H811.035456c-8.670312-0.180632-15.714941 7.044629-15.714941 16.076204z m-405.337096-28.90104h313.034397c8.489681 0 15.353678-7.044629 15.353678-15.714941v-33.055566c0-8.670312-6.863997-15.714941-15.353678-15.714941H389.983419c-8.489681 0-15.353678 7.044629-15.353678 15.714941V787.079203c0 8.670312 6.863997 15.714941 15.353678 15.714941z m519.134944-837.768919H115.062268c-8.489681 0-15.353678 7.044629-15.353677 15.714941V722.7743869999999c0 8.670312 6.863997 15.714941 15.353677 15.714941h175.573823c8.489681 0 15.353678-7.044629 15.353678-15.714941v-47.506086c0-8.670312 6.863997-15.714941 15.353678-15.714941h450.494972c8.489681 0 15.353678 7.044629 15.353678 15.714941V722.7743869999999c0 8.670312 6.863997 15.714941 15.353678 15.714941h106.75322c8.489681 0 15.353678-7.044629 15.353677-15.714941v-741.85359c-0.180632-8.850944-7.044629-15.895572-15.534309-15.895572z m15.353678 0M455.191392 353.74422300000003l-37.390722 35.223143c-10.295996 9.754101-3.61263 27.275357 10.476628 27.275358h274.740518c8.489681 0 15.353678 7.044629 15.353678 15.71494v33.055566c0 8.670312-6.863997 15.714941-15.353678 15.714941H428.277298c-13.908626 0-20.772623 17.521256-10.476628 27.275357l37.390722 35.223143c6.502734 6.322103 6.502734 16.979361 0 23.120833l-25.469042 23.843359c-5.780208 5.418945-14.811783 5.418945-20.772623 0l-139.447522-130.235315c-6.683366-6.141471-6.683366-16.979361 0-23.120833l139.447522-130.235315c5.96084-5.418945 14.811783-5.418945 20.772623 0l25.469042 23.843359c6.502734 6.322103 6.502734 16.979361 0 23.301464z m113.797848-68.278709l37.390721-35.223143c10.295996-9.754101 3.61263-27.275357-10.476627-27.275357H321.162815c-8.489681 0-15.353678-7.044629-15.353678-15.714941v-33.055566c0-8.670312 6.863997-15.714941 15.353678-15.714941h274.740519c13.908626 0 20.772623-17.521256 10.476627-27.275357L568.98924 95.98306600000001c-6.502734-6.322103-6.502734-16.979361 0-23.120833l25.469042-23.843358c5.780208-5.418945 14.811783-5.418945 20.772623 0l139.447522 130.235314c6.683366 6.141471 6.683366 16.979361 0 23.120833l-139.447522 130.054683c-5.96084 5.418945-14.811783 5.418945-20.772623 0L568.98924 308.58634700000005c-6.683366-6.322103-6.683366-16.979361 0-23.120833z m-12.282943 11.560416"  horiz-adv-x="1024" />

    
    <glyph glyph-name="huiyuandengji" unicode="&#58932;" d="M923.3 529l-125 208.3c-7.3 12-20.5 20-35.6 20H263.2c-15.1 0-28.3-8-35.7-20.2L102.7 529c-9-15.1-7.7-34.2 3.5-47.8l374.6-457.9 0.1-0.1C488.5 14 500 8 513 8s24.5 5.9 32.2 15.2l374.6 457.9c11.2 13.7 12.6 32.8 3.5 47.9z m-166.9-22.2L539.8 242.7c-6.4-7.8-15.6-11.8-25-11.9-0.6-0.1-1.2 0-1.9 0-0.6 0-1.2-0.1-1.9 0-9.3 0.2-18.6 4.1-25 11.9L269.6 506.8c-11.6 14.1-9.5 34.9 4.6 46.5s34.9 9.5 46.5-4.6L513 314.1l192.3 234.5c11.6 14.1 32.4 16.2 46.5 4.6 14.1-11.5 16.2-32.3 4.6-46.4z"  horiz-adv-x="1024" />

    
    <glyph glyph-name="jx-renshi" unicode="&#59015;" d="M512 164.571429v-73.142858H219.428571V457.142857h292.571429v-292.571428z m292.571429 438.857142v-73.142857H219.428571V676.571429h585.142858v-73.142858zM0 896h1024v-1024H0V896z m146.285714-146.285714v-731.428572h731.428572V749.714286H146.285714z m438.857143-512h219.428572v-146.285715H585.142857V237.714286z m0 219.428571h219.428572v-146.285714H585.142857V457.142857z"  horiz-adv-x="1024" />

    
    <glyph glyph-name="jx-dangan" unicode="&#59014;" d="M964.923077 689.230769V758.153846H137.846154v-68.923077h827.076923z m137.846154 0v-137.846154h-68.923077v-620.307692H68.923077V551.384615H0V896h1102.769231v-206.769231zM206.769231 551.384615V68.923077h689.230769V551.384615h-689.230769z m206.769231-68.923077h275.692307V344.615385h-275.692307V482.461538z"  horiz-adv-x="1102" />

    
    <glyph glyph-name="jx-geren" unicode="&#59011;" d="M730.330961 27.135668h62.02501v68.315282l-55.807881 55.80788H593.773539l74.459269 124.123163h117.906033l124.123163-124.123163v-248.246325H599.990669l130.340292 124.123163z m-434.467641 0l124.123163-124.123163H109.715148v248.246325h6.217129l124.123163 124.123163h117.906033l74.459269-124.123163H289.719333l-55.881023-55.80788v-68.315282h62.02501z m496.492651 589.530165a278.088547 278.088547 0 0 0-279.25883-279.185688 278.088547 278.088547 0 0 0-279.258831 279.258831A278.088547 278.088547 0 0 0 513.097141 895.997806a278.088547 278.088547 0 0 0 279.25883-279.25883z m-124.123163 0a153.599671 153.599671 0 0 1-155.062525 155.20881 153.599671 153.599671 0 0 1-155.20881-155.135667A153.599671 153.599671 0 0 1 513.097141 461.530165a153.599671 153.599671 0 0 1 155.135667 155.062525zM419.986483 275.455135h186.221315l-62.098153-124.123162 62.098153-186.148173L513.097141-128l-93.110658 93.110658 62.098153 186.148172-62.098153 124.123163z"  horiz-adv-x="1024" />

    
    <glyph glyph-name="jx-bumen" unicode="&#59012;" d="M704 19.163429L595.236571 128h-358.4L128 19.163429v-19.163429h576v19.163429z m128 57.636571V-128H0v204.8l179.2 179.2h467.163429l185.636571-179.2z m-96.036571 179.2h108.836571L1024 76.8V-128h-128v224.036571L735.963429 256z m-192 70.436571c89.6 25.6 160.036571 115.126857 160.036571 217.6v128c0 102.4-70.363429 185.563429-160.036571 217.6C563.2 896 588.8 896 607.963429 896c121.636571 0 224.036571-102.4 224.036571-224.036571v-128c0-121.563429-102.4-223.963429-224.036571-223.963429-25.6 0-44.763429 6.436571-64 6.436571zM415.963429 896C537.6 896 640 793.6 640 671.963429v-128c0-121.563429-102.4-223.963429-224.036571-223.963429-121.563429 0-223.963429 102.4-223.963429 224.036571v128C192 793.6 294.4 896 416.036571 896z m0-128c-51.2 0-95.963429-44.763429-95.963429-96.036571v-128c0-51.2 44.763429-95.963429 96.036571-95.963429 51.2 0 95.963429 44.836571 95.963429 96.036571v128c0 51.2-44.836571 95.963429-96.036571 95.963429z"  horiz-adv-x="1024" />

    
    <glyph glyph-name="jx-quanzhong" unicode="&#59013;" d="M827.076923 137.846154V206.769231h137.846154v-68.923077H1102.769231v-137.846154h-137.846154v-68.923077H827.076923v68.923077H0v137.846154h827.076923zM482.461538 482.461538v68.923077h137.846154v-68.923077H1102.769231V344.615385H620.307692v-68.923077h-137.846154V344.615385H0V482.461538h482.461538zM137.846154 827.076923V896H275.692308v-68.923077H1102.769231v-137.846154H275.692308V620.307692H137.846154v68.923077H0V827.076923h137.846154z"  horiz-adv-x="1102" />

    
    <glyph glyph-name="yujing" unicode="&#58922;" d="M230.786844-45.397333H157.172622V295.025778c0 193.194667 156.785778 349.866667 350.367289 349.866666 193.558756 0 350.367289-156.717511 350.367289-349.866666v-340.423111H230.786844z m302.102756 549.2736l-172.828444-284.216889h138.24l-34.6112-213.174045 172.828444 284.216889h-138.217244l34.588444 213.174045zM797.946311 816.128c16.224711-9.443556 21.777067-30.196622 12.424533-46.466844l-62.122666-107.861334-58.709334 33.928534 62.077156 107.861333a33.792 33.792 0 0 0 46.125511 12.515555h0.2048zM507.426133 896c20.320711 0 36.750222-15.268978 36.750223-34.247111v-122.242845h-73.500445V861.843911C470.675911 880.731022 487.105422 896 507.448889 896zM217.133511 816.128a33.905778 33.905778 0 0 0 46.307556-12.401778l62.122666-107.861333-58.709333-33.974045-62.190933 107.884089A33.974044 33.974044 0 0 0 217.088 816.128h0.045511z m-212.536889-213.174044a33.792 33.792 0 0 0 46.262045 12.401777l107.633777-62.350222-33.860266-58.845867-107.656534 62.418489A33.974044 33.974044 0 0 0 4.551111 602.953956H4.551111z m1005.886578 0a34.087822 34.087822 0 0 0-12.401778-46.444089l-107.611022-62.281956-33.860267 58.891378 107.588267 62.327467a33.905778 33.905778 0 0 0 46.193778-12.288c0-0.113778 0.091022-0.113778 0.091022-0.227556zM37.114311-45.420089h940.942222c20.320711 0 36.864-16.520533 36.864-36.795733a36.864 36.864 0 0 0-36.864-36.818489H37.114311a36.864 36.864 0 0 0-26.077867 62.8736 36.795733 36.795733 0 0 0 26.077867 10.740622z"  horiz-adv-x="1024" />

    
    <glyph glyph-name="xinzengshangjia" unicode="&#58930;" d="M231.800163-2.612245h238.278531v193.765878c-27.627102 6.603755-47.647347 23.740082-47.647347 44.449959 0 20.668082 19.999347 37.825306 47.647347 44.429061v193.765878H231.800163V-2.612245z m524.225306 327.262041v149.148735H517.726041v-193.765878c27.627102-6.582857 47.689143-23.76098 47.689143-44.429061 0-20.68898-20.062041-37.846204-47.689143-44.449959V-2.612245h169.315265a269.082122 269.082122 0 0 0 68.963265 327.262041z m47.584653 31.63951a266.010122 266.010122 0 0 0 47.710041 19.393306v169.524245h136.463674L493.902367 896 0 545.206857h136.463673V-2.612245h47.647347V521.383184h619.499102v-165.093878z m241.893878-206.241959h-84.344163v84.365061c0 18.055837-14.607673 32.726204-32.684408 32.726204h-0.167184c-18.055837 0-32.684408-14.628571-32.684408-32.726204v-84.365061h-84.385959c-18.055837 0-32.705306-14.628571-32.705307-32.705306v-0.188082c0-18.055837 14.628571-32.684408 32.705307-32.684408h84.385959v-84.365061c0-18.055837 14.586776-32.705306 32.684408-32.705306h0.167184c18.055837 0 32.684408 14.628571 32.684408 32.705306v84.365061h84.344163c18.055837 0 32.726204 14.628571 32.726204 32.684408v0.188082c0 18.055837-14.649469 32.705306-32.726204 32.705306z m-117.133061 207.015184c-132.367673 0-239.72049-107.373714-239.72049-239.783184 0-132.430367 107.352816-239.783184 239.72049-239.783184 132.409469 0 239.741388 107.352816 239.741388 239.783184 0 132.409469-107.331918 239.783184-239.741388 239.783184z m0-449.577796c-115.837388 0-209.752816 93.894531-209.752817 209.81551a209.773714 209.773714 0 1 0 419.526531 0c0-115.92098-93.915429-209.81551-209.773714-209.81551z"  horiz-adv-x="1170" />

    
    <glyph glyph-name="zongshu" unicode="&#58931;" d="M851.18887 768C761.58887 844.8 640 896 512 896c-108.81113 0-204.8-32.01113-288.01113-89.6L512 435.2 851.18887 768zM499.2 351.98887L172.81113 768C70.41113 671.98887 0 537.6 0 384c0-281.6 230.4-512 512-512s512 230.4 512 512v25.6l-524.8-57.58887z m518.41113 121.61113c-19.21113 96.01113-57.61113 179.2-121.61113 249.58887L601.6 428.81113l416.01113 44.78887z"  horiz-adv-x="1024" />

    
    <glyph glyph-name="shangdian" unicode="&#58926;" d="M1024 479.552c0-69.44-57.344-125.696-128-125.696s-128 56.32-128 125.696c0-69.44-57.344-125.696-128-125.696s-128 56.32-128 125.696c0-69.44-57.28-125.696-128-125.696s-128 56.32-128 125.696c0-69.44-57.344-125.696-128-125.696s-128 56.32-128 125.696l89.984 235.712h844.032L1024 479.552z m-167.424 296H167.424c-25.92 0-46.976 26.944-46.976 60.224S141.568 896 167.424 896h689.152c25.92 0 46.976-27.008 46.976-60.16 0-33.28-21.12-60.288-46.976-60.288zM112.576 280.96a185.6 185.6 0 0 1 14.848 2.176l3.2 0.384c2.176 0.448 4.352 1.152 6.656 1.6 9.472 2.24 18.688 4.992 27.648 8.512v-261.888h697.92V293.632c8.832-3.52 18.112-6.272 27.584-8.512 2.24-0.448 4.48-1.152 6.784-1.6l3.136-0.384a179.456 179.456 0 0 1 32.256-3.008c11.968 0 23.616 1.28 34.944 3.392v-358.336A52.8 52.8 0 0 0 915.2-128H112.64a52.8 52.8 0 0 0-52.416 53.184v358.4a187.328 187.328 0 0 1 52.352-2.56z"  horiz-adv-x="1024" />

    
    <glyph glyph-name="lingdaogongzuotai" unicode="&#58968;" d="M889.563429 320h-57.563429v128h57.563429a380.562286 380.562286 0 0 1-313.563429 313.636571v-57.636571h-128v57.636571a380.562286 380.562286 0 0 1-313.636571-313.636571h57.636571v-128h-57.636571a380.562286 380.562286 0 0 1 313.636571-313.563429v57.563429h128v-57.563429a380.562286 380.562286 0 0 1 313.563429 313.563429zM512-128c-281.6 0-512 230.4-512 512s230.4 512 512 512 512-230.4 512-512-230.4-512-512-512z m198.436571 716.8L550.4 294.4 415.963429 428.836571 710.436571 588.8z m-486.4 38.4l44.763429 44.763429 44.763429-44.763429-44.763429-44.763429-44.763429 44.763429z m479.963429-480.036571l44.836571 44.836571 44.763429-44.836571-44.763429-44.763429-44.836571 44.763429z m44.836571 524.8l44.763429-44.763429-44.763429-44.763429-44.836571 44.763429 44.836571 44.763429zM268.8 192l44.763429-44.836571-44.763429-44.763429-44.763429 44.763429 44.763429 44.836571z"  horiz-adv-x="1024" />

    
    <glyph glyph-name="chaxun" unicode="&#58924;" d="M853.079771 396.317257c0 180.545829-148.216686 328.762514-328.762514 328.762514-16.1792 0-26.945829 10.766629-26.945828 26.916572 0 16.208457 10.766629 26.975086 26.945828 26.975086C734.500571 778.971429 906.971429 606.500571 906.971429 396.317257c0-16.1792-10.766629-26.945829-26.945829-26.945828s-26.945829 10.766629-26.945829 26.945828z m38.882743-354.538057l123.962515-123.962514a26.038857 26.038857 0 0 0 0-37.741715 29.110857 29.110857 0 0 0-18.870858-8.074971 29.110857 29.110857 0 0 0-18.870857 8.074971l-123.962514 123.962515C762.616686-76.8 644.037486-128 512-128c-102.4 0-202.108343 29.637486-285.637486 86.2208-13.458286 8.104229-16.1792 24.283429-8.074971 37.741714 8.074971 13.458286 24.224914 16.149943 37.712457 8.074972a454.8608 454.8608 0 0 1 256-78.116572c253.308343 0 458.108343 204.8 458.108343 458.079086 0 253.308343-204.8 458.108343-458.108343 458.108343S53.891657 637.308343 53.891657 384c0-75.454171 18.870857-153.6 56.583314-218.258286 8.104229-13.487543 2.691657-29.666743-10.766628-37.741714-13.458286-8.074971-29.637486-2.691657-37.741714 10.766629A517.646629 517.646629 0 0 0 0 384C0 666.945829 229.054171 896 512 896S1024 666.945829 1024 384c0-132.037486-51.2-250.616686-132.037486-342.2208z"  horiz-adv-x="1024" />

    
    <glyph glyph-name="tixingxiansuo" unicode="&#58923;" d="M341.036617 866.742857C150.13376 800.475429 14.161189 621.348571 1.14176 419.620571c-21.211429-324.754286 256.365714-574.902857 560.128-545.133714a48.566857 48.566857 0 0 1-9.581714 96.694857c-247.588571-24.356571-473.526857 180.955429-453.485715 446.317715 12.068571 159.890286 119.881143 301.933714 270.848 356.132571a415.451429 415.451429 0 0 0 550.765715-315.026286c13.824-75.629714-5.997714-187.611429-44.909715-254.976-16.822857-23.04-53.76-52.809143-88.356571-53.101714-25.965714-0.365714-44.909714 20.48-59.757714 50.249143-11.776 23.698286-14.628571 50.688-9.728 76.580571 11.702857 63.195429 15.067429 153.746286 7.094857 310.784-9.069714 75.044571-58.075429 95.597714-99.766857 105.106286-73.874286 16.822857-185.636571 7.68-289.060572-79.067429-71.68-59.977143-110.957714-130.925714-120.32-216.722285-8.923429-82.651429 15.506286-155.648 68.900572-205.312 64.877714-60.489143 155.648-84.699429 292.352-68.022857 30.72 3.730286 61.732571-4.461714 86.528-22.966858 26.477714-19.748571 68.461714-42.642286 124.854857-47.689142 10.459429-0.877714 20.918857 1.170286 31.305143 3.072 70.802286 12.946286 133.412571 71.460571 154.550857 127.341714 39.277714 88.210286 57.929143 204.068571 41.837714 292.352A512.585143 512.585143 0 0 1 341.036617 866.742857zM627.537189 579.803429c8.045714-157.037714-3.364571-317.074286-24.283429-353.645715-125.366857-21.357714-205.312-7.314286-253.001143 37.010286-40.96 38.180571-41.691429 93.988571-38.473143 123.830857 4.388571 41.252571 7.021714 93.769143 74.971429 150.601143a276.260571 276.260571 0 0 0 128.219428 60.708571c36.352 6.582857 68.022857 4.681143 87.990858 0.219429 22.820571-5.266286 22.820571-5.851429 24.576-18.724571z"  horiz-adv-x="1024" />

    
    <glyph glyph-name="person" unicode="&#58966;" d="M600.48 313.82399999999996v-32H418.56C266.88 281.82399999999996 144 164.15999999999997 144 20.255999999999972v-17.44c0-40.736 62.208-52.64 274.56-52.64h181.92c208.64 0 274.624 12.448 274.624 52.64v17.44c0 143.872-122.912 261.568-274.624 261.568v32z m0 0v32c186.432 0 338.624-145.696 338.624-325.568v-17.44c0-58.944-43.456-91.52-117.664-105.504-49.76-9.376-98.016-11.136-220.96-11.136H418.56c-126.368 0-174.304 1.728-223.52 11.136C122.208-88.73599999999999 80-56 80 2.816000000000031v17.44c0 179.872 152.128 325.568 338.56 325.568h181.92v-32z m-72.832-59.072a48.416 48.416 0 1 0 0-96.8 48.416 48.416 0 0 0 0 96.8z m0-121.888a48.416 48.416 0 1 0 0-96.8 48.416 48.416 0 0 0 0 96.8zM448.384 608.992c-19.904 0-36 21.472-36 48 0 26.496 16.096 48 36 48 19.84 0 36-21.504 36-48 0-26.528-16.128-48-36-48z m158.976 0c-19.84 0-35.968 21.472-35.968 48 0 26.496 16.096 48 35.968 48 19.872 0 35.968-21.504 35.968-48 0-26.528-16.096-48-35.968-48z m-88.96-236.384A261.696 261.696 0 1 0 518.4 896a261.696 261.696 0 0 0 0-523.392z m0 64A197.696 197.696 0 1 1 518.4 832a197.696 197.696 0 0 1 0-395.392z"  horiz-adv-x="1024" />

    
    <glyph glyph-name="Shape1" unicode="&#58889;" d="M512 896C230.4 896 0 665.6 0 384s230.4-512 512-512 512 230.4 512 512S793.6 896 512 896z m12.8-153.6c195.211636 0 195.211636-147.223273 195.211636-230.4 0-83.223273-76.8-236.823273-195.211636-239.988364-115.2 0-195.211636 153.6-195.211636 239.988364 0 83.176727 0 230.4 195.211636 230.4zM512-99.188364c-147.176727 0-281.6 67.211636-371.2 172.776728 12.8 32.023273 28.811636 67.211636 51.2 86.388363 47.988364 38.446545 192 102.4 192 102.4l89.6-172.776727 16.011636 41.611636-25.6 51.2 51.2 51.2 51.2-51.2-22.434909-54.411636 12.846546-41.611636 92.765091 169.611636s144.011636-64 192-102.4c22.388364-16.011636 38.4-44.823273 47.988363-70.376727-86.388364-112.034909-223.976727-182.458182-377.576727-182.458182z"  horiz-adv-x="1024" />

    
    <glyph glyph-name="jiantouliuchengzhongjian" unicode="&#58965;" d="M0 668.444444l177.493333-292.932266L0 76.79999999999995h2030.478222L2230.044444 372.62222199999997l-199.566222 295.822222z"  horiz-adv-x="2230" />

    
    <glyph glyph-name="liuchengjiantou1" unicode="&#58964;" d="M0 668.444444v-591.644444h2029.135644L2230.044444 372.62222199999997l-200.9088 295.822222z"  horiz-adv-x="2230" />

    
    <glyph glyph-name="ganbujianzhi" unicode="&#58962;" d="M330.666667 608.398222c-11.434667 88.291556-12.600889 169.955556-0.568889 243.271111 159.914667 108.728889 235.690667-19.2 357.774222 0 9.642667-76.273778 6.030222-179.015111-5.404444-239.672889a230.954667 230.954667 0 0 0-47.530667-105.116444c-33.066667-40.248889-78.165333-65.479111-128.654222-65.479111-50.503111 0-96.227556 25.244444-128.668445 65.479111a228.721778 228.721778 0 0 0-46.933333 101.518222z m-80.583111-690.773333h527.928888L746.737778-128H275.939556l-25.856 45.624889z m556.231111 392.860444l58.325333-221.041777c20.451556-77.496889 10.808889-132.750222-78.748444-132.750223h-19.868445v303.928889H529.109333l67.939556 156.16 24.647111 19.214222 133.475556-33.024 6.613333-1.806222 4.195555-5.404444c19.868444-25.827556 32.483556-54.670222 39.111112-85.902222l1.208888 0.625777zM265.699556-43.306667H229.632c-88.974222 0-98.616889 55.253333-78.748444 132.750223L209.208889 310.485333c7.793778 36.636444 24.647111 65.479111 48.696889 87.708445l3.598222 3.029333 4.835556 1.208889 128.654222 33.024 25.272889-19.2 73.955555-156.16H265.728v-303.402667z"  horiz-adv-x="1024" />

    
    <glyph glyph-name="tiaoxunpeixun" unicode="&#58961;" d="M503.076571 261.456457v97.367772c0 26.858057 23.464229 50.351543 50.293029 50.351542s50.322286-23.493486 50.322286-50.351542v-97.367772l67.057371 114.146743-60.357486 127.5904c171.037257-23.508114 278.367086-144.384 328.660115-365.962971h-771.364572C218.0096 362.174171 325.310171 486.4 496.362057 503.1936l-60.372114-127.5904 67.072-114.146743zM100.600686 6.290286h905.508571V-128h-905.508571v134.290286zM0 107.022629h1106.753829v-100.732343H0v100.732343z m429.290057 748.690285C456.118857 882.570971 499.712 896 553.3696 896c53.6576 0 97.265371-13.429029 124.094171-40.287086 33.543314-30.222629 46.957714-80.574171 40.2432-144.369371-10.064457-107.432229-77.136457-181.291886-167.687314-181.291886-87.186286 0-154.272914 73.859657-167.687314 181.291886 0 63.780571 13.4144 110.7968 46.957714 144.369371z"  horiz-adv-x="1111" />

    
    <glyph glyph-name="gongzuoyeji" unicode="&#58956;" d="M1077.248 292.299034V766.870069c0 42.584276-69.067034 112.534069-110.55669 112.534069H163.910621c-41.489655 0-110.55669-69.914483-110.55669-112.498759v-474.606345a75.140414 75.140414 0 0 1-50.176-70.620689v-4.731586c0-41.489655 6.532414-110.55669 75.246345-110.55669h41.560276L99.575172-43.961379c-4.625655-15.465931-1.765517-31.814621 7.909518-44.773518 9.639724-12.994207 24.434759-20.44469 40.606896-20.444689 19.314759 0 36.687448 10.734345 45.338483 28.001103l111.439448 187.568552h530.184828l111.439448-187.568552c8.615724-17.266759 25.988414-28.001103 45.303173-28.001103 16.172138 0 30.967172 7.415172 40.606896 20.444689 9.675034 12.958897 12.570483 29.307586 7.909517 44.808828l-20.374069 150.316138h32.203035c75.281655 0 75.281655 69.067034 75.281655 110.55669v4.696275c0 32.662069-21.044966 60.274759-50.176 70.62069zM138.840276 766.870069c0 14.936276 11.264 27.047724 25.070345 27.047724h802.780689c13.806345 0 25.070345-12.111448 25.070345-27.012414v-469.980689H138.840276V766.905379z m9.286621-825.873655l-0.459035 0.635586 24.717241 164.758069h76.376276l-100.210758-165.111172a0.494345 0.494345 0 0 0-0.423724-0.282483z m843.670069 0l-100.634483 165.393655H967.503448l24.646621-165.181793c-0.141241-0.211862-0.211862-0.211862-0.353103-0.211862z m25.070344 236.296827H113.69931a25.105655 25.105655 0 0 0-25.070344 25.070345v4.731586c0 13.806345 11.264 25.070345 25.070344 25.070345h903.09738c13.841655 0 25.070345-11.264 25.070344-25.070345v-4.731586c0-13.806345-11.22869-25.070345-25.070344-25.070345zM622.839172 394.063448l248.055173 310.23669-39.194483 31.320276-216.946759-271.28938-184.072827 142.795035-30.72-39.618207-140.288-181.495172 39.724138-30.68469 140.252689 181.389241 161.862621-125.598896z"  horiz-adv-x="1129" />

    
    <glyph glyph-name="gengduo" unicode="&#58954;" d="M178.086957 406.26087m-133.565218 0a133.565217 133.565217 0 1 1 267.130435 0 133.565217 133.565217 0 1 1-267.130435 0ZM712.347826 406.26087m-133.565217 0a133.565217 133.565217 0 1 1 267.130434 0 133.565217 133.565217 0 1 1-267.130434 0ZM1246.608696 406.26087m-133.565218 0a133.565217 133.565217 0 1 1 267.130435 0 133.565217 133.565217 0 1 1-267.130435 0Z"  horiz-adv-x="1424" />

    
    <glyph glyph-name="fabu" unicode="&#58888;" d="M654.592-107.52a41.6 41.6 0 0 0-35.008 18.688L390.144 266.048a38.144 38.144 0 0 0 5.504 48.256L953.28 863.552a42.56 42.56 0 0 0 51.2 6.08 38.656 38.656 0 0 0 17.28-46.528l-328.256-904.128a40.896 40.896 0 0 0-38.912-26.496zM448 256.512l158.016-241.152L832 629.76 448 256.512z m-35.84 4.608a42.752 42.752 0 0 0-21.632 5.76L19.712 483.2a38.656 38.656 0 0 0-19.52 37.504 39.68 39.68 0 0 0 27.2 32.896L968.832 873.216a42.432 42.432 0 0 0 48.832-16 37.76 37.76 0 0 0-5.888-48.832L441.152 272.448a42.432 42.432 0 0 0-29.056-11.328zM128 471.296L380.16 322.56 768 691.2 128 471.296z"  horiz-adv-x="1024" />

    
    <glyph glyph-name="xingxing" unicode="&#58921;" d="M824.704 71.296L724.096-128 512-58.24 299.904-128l-100.608 199.296L0 171.904 69.76 384 0 596.096l199.296 100.608L299.904 896 512 826.24 724.096 896l100.608-199.296L1024 596.096 954.24 384 1024 171.904z"  horiz-adv-x="1024" />

    
    <glyph glyph-name="daiban" unicode="&#58884;" d="M91.030744 486.400141H409.600565V804.969962H91.030744V486.400141zM0.000706 847.730775C0.000706 874.390076 21.328147 896 48.269931 896h358.576428c26.623991 0 48.269225-21.327441 48.269225-48.269225v-358.576428a48.092673 48.092673 0 0 0-48.269225-48.269225H48.269931A48.092673 48.092673 0 0 0 0.000706 489.154347V847.730775z m91.030038-884.700384H409.600565V281.600212H91.030744v-318.569821zM0.000706 278.846006c0 26.623991 21.327441 48.269225 48.269225 48.269225h358.576428c26.623991 0 48.269225-21.327441 48.269225-48.269225v-358.576428A48.127983 48.127983 0 0 0 406.846359-127.999647H48.269931A48.127983 48.127983 0 0 0 0.000706-79.730422V278.846006zM614.400494 486.400141h318.569822V804.969962H614.400494V486.400141zM568.885476 847.730775c0 26.659301 21.327441 48.269225 48.269224 48.269225h358.576428C1002.39043 896 1024.000353 874.672559 1024.000353 847.730775v-358.576428a48.127983 48.127983 0 0 0-48.269225-48.269225H617.1547a48.127983 48.127983 0 0 0-48.269224 48.269225V847.730775zM614.400494-36.969609h318.569822V281.600212H614.400494v-318.569821z m-45.515018 315.815615c0 26.623991 21.327441 48.269225 48.269224 48.269225h358.576428c26.659301 0 48.269225-21.327441 48.269225-48.269225v-358.576428A48.127983 48.127983 0 0 0 975.731128-127.999647H617.1547a48.127983 48.127983 0 0 0-48.269224 48.269225V278.846006z"  horiz-adv-x="1024" />

    
    <glyph glyph-name="jishijihechaxun" unicode="&#58885;" d="M832.18432 82.944L962.56-54.0672l-47.88224-43.49952-127.5904 134.02112A205.94688 205.94688 0 0 0 662.44608-5.12c-2.58048 0-5.16096 0-7.74144 0.12288a206.848 206.848 0 0 0-144.75264 66.1504 206.11072 206.11072 0 0 0-55.58272 149.13536 206.848 206.848 0 0 0 66.1504 144.7936 206.31552 206.31552 0 0 0 149.13536 55.54176 206.848 206.848 0 0 0 144.7936-66.10944 206.11072 206.11072 0 0 0 55.54176-149.17632 207.17568 207.17568 0 0 0-37.80608-112.4352z m-334.6432-180.46976H61.44V896h785.6128v-393.74848h-63.488V831.03744H124.928V-32.5632h372.61312v-64.9216z m164.53632 443.96544c-36.37248 0-70.90176-13.5168-97.60768-38.42048a142.17216 142.17216 0 0 1-45.62944-99.9424 142.9504 142.9504 0 0 1 38.2976-102.97344 142.17216 142.17216 0 0 1 99.90144-45.62944 142.9504 142.9504 0 0 1 102.97344 38.2976 142.17216 142.17216 0 0 1 45.6704 99.90144 142.9504 142.9504 0 0 1-38.2976 103.0144 141.9264 141.9264 0 0 1-99.9424 45.62944c-1.76128 0.12288-3.56352 0.12288-5.36576 0.12288z m-462.0288 341.6064h303.18592v-63.8976H200.0896v63.8976z m0-146.92352h303.18592v-63.8976H200.0896v63.8976z m0-176.5376h184.85248v-69.34528H200.0896v69.34528z"  horiz-adv-x="1024" />

    
    </font>
</defs>
</svg>
